<svg xmlns="http://www.w3.org/2000/svg" viewBox="0 0 470 355.18">
  <title>overview-diagram</title>
  <g id="Shapes">
    <rect width="470" height="355.18" fill="#fff"/>
    <g>
      <rect width="85" height="70" fill="#fff"/>
      <rect width="85" height="70" fill="#0072c6" opacity="0.7"/>
    </g>
    <g>
      <rect x="385" width="85" height="70" fill="#fff"/>
      <rect x="385" width="85" height="70" fill="#0072c6" opacity="0.7"/>
    </g>
    <g>
      <rect x="95.63" width="85" height="70" fill="#fff"/>
      <rect x="95.63" width="85" height="70" fill="#0072c6" opacity="0.7"/>
    </g>
    <g>
      <rect x="192.5" width="85" height="70" fill="#fff"/>
      <rect x="192.5" width="85" height="70" fill="#0072c6" opacity="0.7"/>
    </g>
    <g>
      <rect x="289.38" width="85" height="70" fill="#fff"/>
      <rect x="289.38" width="85" height="70" fill="#0072c6" opacity="0.7"/>
    </g>
    <g>
      <rect y="80" width="470" height="90" fill="#fff"/>
      <rect y="80" width="470" height="90" fill="#75757a" opacity="0.2"/>
    </g>
    <g>
      <rect x="55" y="105" width="110" height="50" fill="#fff"/>
      <rect x="55" y="105" width="110" height="50" fill="#3c3c41" opacity="0.4"/>
    </g>
    <g>
      <rect x="180" y="105" width="110" height="50" fill="#fff"/>
      <rect x="180" y="105" width="110" height="50" fill="#3c3c41" opacity="0.4"/>
    </g>
    <g>
      <rect y="265" width="300" height="90" fill="#fff"/>
      <rect y="265" width="300" height="90" fill="#75757a" opacity="0.2"/>
    </g>
    <g>
      <rect x="310" y="265.18" width="160" height="90" fill="#fff"/>
      <rect x="310" y="265.18" width="160" height="90" fill="#75757a" opacity="0.2"/>
    </g>
    <g>
      <rect x="32.5" y="290" width="110" height="50" fill="#fff"/>
      <rect x="32.5" y="290" width="110" height="50" fill="#3c3c41" opacity="0.4"/>
    </g>
    <g>
      <rect x="157.5" y="290" width="110" height="50" fill="#fff"/>
      <rect x="157.5" y="290" width="110" height="50" fill="#3c3c41" opacity="0.4"/>
    </g>
    <g>
      <rect y="180" width="470" height="75" fill="#fff"/>
      <rect y="180" width="470" height="75" fill="#75757a" opacity="0.2"/>
    </g>
    <g>
      <rect x="55" y="205" width="360" height="35" fill="#fff"/>
      <rect x="55" y="205" width="360" height="35" fill="#3c3c41" opacity="0.4"/>
    </g>
    <g>
      <rect x="305" y="105" width="110" height="50" fill="#fff"/>
      <rect x="305" y="105" width="110" height="50" fill="#3c3c41" opacity="0.4"/>
    </g>
  </g>
  <g id="Text">
    <g>
      <path d="M42.19,32.08a5.54,5.54,0,0,1-2.41.45,4.06,4.06,0,0,1-3-1.14,4.14,4.14,0,0,1-1.1-3,4.45,4.45,0,0,1,1.24-3.27,4.38,4.38,0,0,1,3.23-1.25,6,6,0,0,1,2.08.31V26a3.78,3.78,0,0,0-1.93-.5,2.59,2.59,0,0,0-1.91.74,2.79,2.79,0,0,0-.72,2,2.73,2.73,0,0,0,.68,1.94,2.45,2.45,0,0,0,1.85.72,4,4,0,0,0,2-.53Z" fill="#fff"/>
      <path d="M49.58,26.12l-.23,1.05H48.27L48,28.63h1.21l-.26,1.05H47.73l-.46,2H46.1l.43-2H45.19l-.44,2H43.58l.42-2H42.91l.21-1.05h1.11l.31-1.46H43.35l.2-1.05h1.2L45.19,24h1.2L46,26.12H47.3L47.74,24h1.19l-.43,2.09Zm-2.5,1.05H45.73l-.33,1.46h1.36Z" fill="#fff"/>
      <path d="M18.33,45.58H16.27l-.6-1.87h-3l-.59,1.87H10l3.06-8.4h2.24Zm-3.09-3.32-.9-2.82a3.12,3.12,0,0,1-.14-.76h0a3.06,3.06,0,0,1-.15.73l-.91,2.85Z" fill="#fff"/>
      <path d="M21.08,44.89h0v3.45H19.2V39.58h1.85v.91h0a2.35,2.35,0,0,1,3.72-.25,3.36,3.36,0,0,1,.64,2.17,3.71,3.71,0,0,1-.74,2.41,2.4,2.4,0,0,1-2,.91A1.85,1.85,0,0,1,21.08,44.89ZM21,42.42v.49a1.52,1.52,0,0,0,.33,1,1.08,1.08,0,0,0,.86.39,1.12,1.12,0,0,0,1-.49,2.29,2.29,0,0,0,.35-1.38q0-1.59-1.23-1.59a1.16,1.16,0,0,0-.93.44A1.68,1.68,0,0,0,21,42.42Z" fill="#fff"/>
      <path d="M28.52,44.89h0v3.45H26.64V39.58h1.85v.91h0a2.36,2.36,0,0,1,3.73-.25,3.42,3.42,0,0,1,.63,2.17,3.71,3.71,0,0,1-.74,2.41,2.4,2.4,0,0,1-2,.91A1.87,1.87,0,0,1,28.52,44.89Zm-.06-2.47v.49a1.52,1.52,0,0,0,.33,1,1.08,1.08,0,0,0,.86.39,1.11,1.11,0,0,0,1-.49A2.29,2.29,0,0,0,31,42.44q0-1.59-1.23-1.59a1.16,1.16,0,0,0-.93.44A1.68,1.68,0,0,0,28.46,42.42Z" fill="#fff"/>
      <path d="M35.93,45.58H34.08V36.7h1.85Z" fill="#fff"/>
      <path d="M38.43,38.63a1.11,1.11,0,0,1-.77-.27.92.92,0,0,1-.3-.69.88.88,0,0,1,.3-.68,1.16,1.16,0,0,1,.77-.26,1.14,1.14,0,0,1,.77.26.93.93,0,0,1,0,1.37A1.1,1.1,0,0,1,38.43,38.63Zm.91,6.95H37.49v-6h1.85Z" fill="#fff"/>
      <path d="M45.45,45.37a3.69,3.69,0,0,1-1.81.36,3.06,3.06,0,0,1-2.24-.84,2.89,2.89,0,0,1-.85-2.16,3.19,3.19,0,0,1,.91-2.41,3.39,3.39,0,0,1,2.46-.88,3.12,3.12,0,0,1,1.53.28v1.57a2.12,2.12,0,0,0-1.29-.44,1.71,1.71,0,0,0-1.27.47,2,2,0,0,0,0,2.54,1.66,1.66,0,0,0,1.23.45,2.42,2.42,0,0,0,1.35-.43Z" fill="#fff"/>
      <path d="M51.66,45.58H49.9v-.86h0a2,2,0,0,1-1.79,1,1.86,1.86,0,0,1-1.37-.5,1.75,1.75,0,0,1-.5-1.32q0-1.74,2.07-2l1.63-.22c0-.66-.36-1-1.07-1a3.65,3.65,0,0,0-2,.63V39.94a4.67,4.67,0,0,1,1.06-.35,5.56,5.56,0,0,1,1.22-.15A2.27,2.27,0,0,1,51.66,42Zm-1.74-2.43v-.41l-1.09.14c-.61.08-.91.35-.91.82a.67.67,0,0,0,.22.51.84.84,0,0,0,.6.21,1.11,1.11,0,0,0,.85-.36A1.31,1.31,0,0,0,49.92,43.15Z" fill="#fff"/>
      <path d="M56.75,45.51a2.7,2.7,0,0,1-1.24.22,1.77,1.77,0,0,1-2-2V41h-1V39.58h1V38.29l1.85-.53v1.82h1.35V41H55.4v2.42c0,.63.25.94.74.94a1.31,1.31,0,0,0,.61-.17Z" fill="#fff"/>
      <path d="M58.73,38.63a1.11,1.11,0,0,1-.77-.27.92.92,0,0,1-.3-.69A.88.88,0,0,1,58,37a1.27,1.27,0,0,1,1.54,0,1,1,0,0,1,0,1.37A1.11,1.11,0,0,1,58.73,38.63Zm.91,6.95H57.79v-6h1.85Z" fill="#fff"/>
      <path d="M64.06,45.73a3.23,3.23,0,0,1-2.36-.84,3.47,3.47,0,0,1,0-4.61,3.38,3.38,0,0,1,2.41-.84,3.2,3.2,0,0,1,2.35.84,3,3,0,0,1,.84,2.22,3.18,3.18,0,0,1-.87,2.36A3.24,3.24,0,0,1,64.06,45.73Zm0-4.88a1.21,1.21,0,0,0-1,.46,1.92,1.92,0,0,0-.37,1.27c0,1.16.47,1.73,1.4,1.73s1.33-.59,1.33-1.77S65,40.85,64.11,40.85Z" fill="#fff"/>
      <path d="M74.33,45.58H72.49V42.25c0-.93-.34-1.4-1-1.4a1,1,0,0,0-.79.37,1.4,1.4,0,0,0-.31.94v3.42H68.54v-6h1.85v1h0a2.12,2.12,0,0,1,1.93-1.09c1.33,0,2,.82,2,2.47Z" fill="#fff"/>
    </g>
    <g>
      <path d="M132.88,32.08a5.46,5.46,0,0,1-2.4.45,4,4,0,0,1-3-1.14,4.14,4.14,0,0,1-1.11-3,4.46,4.46,0,0,1,1.25-3.27,4.36,4.36,0,0,1,3.23-1.25,5.94,5.94,0,0,1,2.07.31V26a3.71,3.71,0,0,0-1.92-.5,2.56,2.56,0,0,0-1.91.74,2.75,2.75,0,0,0-.73,2,2.69,2.69,0,0,0,.69,1.94,2.41,2.41,0,0,0,1.84.72,4,4,0,0,0,2-.53Z" fill="#fff"/>
      <path d="M140.49,29.54h-2.26V31.8h-1.18V29.54h-2.27V28.35h2.27V26.08h1.18v2.27h2.26Z" fill="#fff"/>
      <path d="M149,29.54h-2.26V31.8h-1.18V29.54h-2.27V28.35h2.27V26.08h1.18v2.27H149Z" fill="#fff"/>
      <path d="M114,45.58H111.9l-.6-1.87h-3l-.59,1.87h-2l3.06-8.4H111Zm-3.1-3.32-.9-2.82a4.51,4.51,0,0,1-.14-.76h0a3,3,0,0,1-.14.73l-.92,2.85Z" fill="#fff"/>
      <path d="M116.7,44.89h0v3.45h-1.85V39.58h1.85v.91h0a2.18,2.18,0,0,1,1.93-1.05,2.14,2.14,0,0,1,1.8.8,3.42,3.42,0,0,1,.64,2.17,3.66,3.66,0,0,1-.75,2.41,2.4,2.4,0,0,1-2,.91A1.87,1.87,0,0,1,116.7,44.89Zm0-2.47v.49a1.52,1.52,0,0,0,.33,1,1.05,1.05,0,0,0,.86.39,1.12,1.12,0,0,0,1-.49,2.36,2.36,0,0,0,.35-1.38q0-1.59-1.23-1.59a1.16,1.16,0,0,0-.93.44A1.68,1.68,0,0,0,116.65,42.42Z" fill="#fff"/>
      <path d="M124.14,44.89h0v3.45h-1.85V39.58h1.85v.91h0a2.18,2.18,0,0,1,1.93-1.05,2.14,2.14,0,0,1,1.8.8,3.42,3.42,0,0,1,.64,2.17,3.71,3.71,0,0,1-.74,2.41,2.43,2.43,0,0,1-2,.91A1.87,1.87,0,0,1,124.14,44.89Zm0-2.47v.49a1.52,1.52,0,0,0,.33,1,1.06,1.06,0,0,0,.86.39,1.12,1.12,0,0,0,1-.49,2.36,2.36,0,0,0,.35-1.38q0-1.59-1.23-1.59a1.16,1.16,0,0,0-.93.44A1.68,1.68,0,0,0,124.09,42.42Z" fill="#fff"/>
      <path d="M131.56,45.58h-1.85V36.7h1.85Z" fill="#fff"/>
      <path d="M134.06,38.63a1.1,1.1,0,0,1-.77-.27.92.92,0,0,1-.3-.69.88.88,0,0,1,.3-.68,1.14,1.14,0,0,1,.77-.26,1.16,1.16,0,0,1,.77.26,1,1,0,0,1,0,1.37A1.11,1.11,0,0,1,134.06,38.63Zm.91,6.95h-1.85v-6H135Z" fill="#fff"/>
      <path d="M141.08,45.37a3.73,3.73,0,0,1-1.82.36,3,3,0,0,1-2.23-.84,2.9,2.9,0,0,1-.86-2.16,3.19,3.19,0,0,1,.92-2.41,3.38,3.38,0,0,1,2.45-.88,3.14,3.14,0,0,1,1.54.28v1.57a2.13,2.13,0,0,0-1.3-.44,1.71,1.71,0,0,0-1.26.47,1.75,1.75,0,0,0-.47,1.29,1.71,1.71,0,0,0,.45,1.25,1.62,1.62,0,0,0,1.22.45,2.47,2.47,0,0,0,1.36-.43Z" fill="#fff"/>
      <path d="M147.28,45.58h-1.75v-.86h0a2,2,0,0,1-1.78,1,1.9,1.9,0,0,1-1.38-.5,1.79,1.79,0,0,1-.5-1.32q0-1.74,2.07-2l1.63-.22c0-.66-.36-1-1.07-1a3.7,3.7,0,0,0-2,.63V39.94a4.67,4.67,0,0,1,1.06-.35,5.7,5.7,0,0,1,1.22-.15A2.27,2.27,0,0,1,147.28,42Zm-1.74-2.43v-.41l-1.09.14c-.6.08-.9.35-.9.82a.64.64,0,0,0,.22.51.8.8,0,0,0,.59.21,1.1,1.1,0,0,0,.85-.36A1.31,1.31,0,0,0,145.54,43.15Z" fill="#fff"/>
      <path d="M152.37,45.51a2.62,2.62,0,0,1-1.23.22,1.76,1.76,0,0,1-2-2V41h-1V39.58h1V38.29l1.84-.53v1.82h1.35V41H151v2.42c0,.63.25.94.75.94a1.27,1.27,0,0,0,.6-.17Z" fill="#fff"/>
      <path d="M154.35,38.63a1.11,1.11,0,0,1-.77-.27.94.94,0,0,1-.29-.69.91.91,0,0,1,.29-.68,1.16,1.16,0,0,1,.77-.26,1.12,1.12,0,0,1,.77.26.93.93,0,0,1,0,1.37A1.08,1.08,0,0,1,154.35,38.63Zm.92,6.95h-1.85v-6h1.85Z" fill="#fff"/>
      <path d="M159.68,45.73a3.2,3.2,0,0,1-2.35-.84,3.47,3.47,0,0,1,0-4.61,3.35,3.35,0,0,1,2.41-.84,3.19,3.19,0,0,1,2.34.84A3,3,0,0,1,163,42.5a3.15,3.15,0,0,1-.88,2.36A3.24,3.24,0,0,1,159.68,45.73Zm0-4.88a1.21,1.21,0,0,0-1,.46,2,2,0,0,0-.36,1.27c0,1.16.46,1.73,1.39,1.73s1.33-.59,1.33-1.77S160.63,40.85,159.73,40.85Z" fill="#fff"/>
      <path d="M170,45.58h-1.85V42.25c0-.93-.33-1.4-1-1.4a1,1,0,0,0-.79.37,1.46,1.46,0,0,0-.31.94v3.42h-1.85v-6H166v1h0A2.11,2.11,0,0,1,168,39.44c1.33,0,2,.82,2,2.47Z" fill="#fff"/>
    </g>
    <g>
      <path d="M216.05,86.6,213.67,95h-1.15l-1.73-6.14a3.78,3.78,0,0,1-.13-.86h0a4.09,4.09,0,0,1-.15.85L208.74,95H207.6l-2.46-8.4h1.08L208,93a4.57,4.57,0,0,1,.14.85h0a5.24,5.24,0,0,1,.18-.85l1.86-6.44h.94l1.78,6.49a4.72,4.72,0,0,1,.14.79h0a3.93,3.93,0,0,1,.15-.81L215,86.6Z" fill="#1e1e1e"/>
      <path d="M217.66,87.48a.6.6,0,0,1-.44-.18.59.59,0,0,1-.18-.44.61.61,0,0,1,.18-.45.6.6,0,0,1,.44-.18.64.64,0,0,1,.45.18.61.61,0,0,1,.18.45.58.58,0,0,1-.18.43A.61.61,0,0,1,217.66,87.48Zm.47,7.52h-1V89h1Z" fill="#1e1e1e"/>
      <path d="M225.05,95h-1V91.58c0-1.28-.46-1.91-1.39-1.91a1.5,1.5,0,0,0-1.19.54,2,2,0,0,0-.48,1.37V95h-1V89h1v1h0a2.16,2.16,0,0,1,2-1.14,1.82,1.82,0,0,1,1.5.64,2.79,2.79,0,0,1,.52,1.83Z" fill="#1e1e1e"/>
      <path d="M235.56,95h-1V89.36c0-.44,0-1,.08-1.63h0a5.05,5.05,0,0,1-.25.81L231.52,95H231l-2.87-6.41a4.68,4.68,0,0,1-.25-.86h0c0,.33,0,.88,0,1.65V95H227V86.6h1.3l2.58,5.86a7.92,7.92,0,0,1,.39,1h0c.17-.46.31-.8.41-1l2.63-5.83h1.23Z" fill="#1e1e1e"/>
      <path d="M242.13,95h-4.36V86.6h1v7.51h3.38Z" fill="#1e1e1e"/>
      <path d="M253.21,95h-1.09l-.89-2.36h-3.56L246.83,95h-1.1L249,86.6h1Zm-2.3-3.24-1.32-3.58a2.59,2.59,0,0,1-.13-.56h0a2.59,2.59,0,0,1-.13.56L248,91.76Z" fill="#1e1e1e"/>
      <path d="M255.43,91.82V95h-1V86.6h2.31a3.08,3.08,0,0,1,2.09.65,2.34,2.34,0,0,1,.74,1.86,2.54,2.54,0,0,1-.82,2,3.13,3.13,0,0,1-2.22.76Zm0-4.33v3.44h1a2.32,2.32,0,0,0,1.56-.46,1.67,1.67,0,0,0,.53-1.32c0-1.11-.66-1.66-2-1.66Z" fill="#1e1e1e"/>
      <path d="M262.15,95h-1V86.6h1Z" fill="#1e1e1e"/>
      <path d="M263.87,94.78v-1a2.79,2.79,0,0,0,1.72.58c.85,0,1.27-.28,1.27-.84a.76.76,0,0,0-.11-.41,1,1,0,0,0-.29-.29,2.28,2.28,0,0,0-.44-.24l-.53-.21a6.76,6.76,0,0,1-.7-.32,2.55,2.55,0,0,1-.51-.36,1.52,1.52,0,0,1-.3-.46,1.63,1.63,0,0,1-.1-.61,1.38,1.38,0,0,1,.19-.74,1.7,1.7,0,0,1,.52-.55,2.43,2.43,0,0,1,.73-.33,3.59,3.59,0,0,1,2.25.16v1a2.71,2.71,0,0,0-1.53-.43,1.8,1.8,0,0,0-.48.06,1.15,1.15,0,0,0-.37.17.76.76,0,0,0-.24.27.67.67,0,0,0-.09.34.75.75,0,0,0,.09.39.84.84,0,0,0,.25.29,2,2,0,0,0,.39.22l.54.22a6.85,6.85,0,0,1,.71.31,2.82,2.82,0,0,1,.54.36,1.41,1.41,0,0,1,.34.47,1.46,1.46,0,0,1,.12.62,1.5,1.5,0,0,1-.19.78,1.61,1.61,0,0,1-.53.54,2.55,2.55,0,0,1-.75.33,3.82,3.82,0,0,1-.9.1A3.34,3.34,0,0,1,263.87,94.78Z" fill="#1e1e1e"/>
    </g>
    <g>
      <path d="M211.54,29.05a3.81,3.81,0,0,1-.78,2.58,2.84,2.84,0,0,1-2.26.9,3.28,3.28,0,0,1-1.23-.23V30.53a1.78,1.78,0,0,0,1.09.36c.86,0,1.3-.64,1.3-1.92V24h1.88Z" fill="#fff"/>
      <path d="M218.08,32.38h-1.76v-.86h0a2,2,0,0,1-1.79,1,1.86,1.86,0,0,1-1.37-.5,1.75,1.75,0,0,1-.5-1.32q0-1.74,2.07-2l1.62-.22c0-.66-.35-1-1.06-1a3.65,3.65,0,0,0-2,.63V26.74a4.67,4.67,0,0,1,1.06-.35,5.56,5.56,0,0,1,1.22-.15,2.27,2.27,0,0,1,2.57,2.56ZM216.33,30v-.41l-1.08.14c-.61.08-.91.35-.91.82a.67.67,0,0,0,.22.51.84.84,0,0,0,.6.21,1.11,1.11,0,0,0,.85-.36A1.3,1.3,0,0,0,216.33,30Z" fill="#fff"/>
      <path d="M225.25,26.38l-2.23,6h-2.11l-2.13-6h2l1.05,3.7a5.91,5.91,0,0,1,.2,1.07h0a5.87,5.87,0,0,1,.21-1l1.07-3.74Z" fill="#fff"/>
      <path d="M230.85,32.38H229.1v-.86h0a2,2,0,0,1-1.79,1,1.86,1.86,0,0,1-1.37-.5,1.75,1.75,0,0,1-.5-1.32q0-1.74,2.07-2l1.62-.22c0-.66-.35-1-1.06-1a3.65,3.65,0,0,0-2,.63V26.74a4.67,4.67,0,0,1,1.06-.35,5.56,5.56,0,0,1,1.22-.15,2.26,2.26,0,0,1,2.56,2.56ZM229.11,30v-.41l-1.09.14c-.6.08-.9.35-.9.82a.67.67,0,0,0,.22.51.84.84,0,0,0,.6.21,1.11,1.11,0,0,0,.85-.36A1.35,1.35,0,0,0,229.11,30Z" fill="#fff"/>
      <path d="M231.93,32.22v-1.5a3.66,3.66,0,0,0,.91.41,3,3,0,0,0,.86.14,1.83,1.83,0,0,0,.77-.14.43.43,0,0,0,.29-.41.41.41,0,0,0-.13-.29,1.32,1.32,0,0,0-.33-.2,4.72,4.72,0,0,0-.45-.16l-.46-.16a4.68,4.68,0,0,1-.63-.29,1.84,1.84,0,0,1-.46-.36,1.72,1.72,0,0,1-.28-.47,2.06,2.06,0,0,1-.09-.64,1.61,1.61,0,0,1,.22-.87,1.84,1.84,0,0,1,.58-.6,3.15,3.15,0,0,1,.84-.34,4.46,4.46,0,0,1,1-.1,5.52,5.52,0,0,1,.81.06,5.88,5.88,0,0,1,.81.18v1.43a3,3,0,0,0-.75-.31,3.11,3.11,0,0,0-.79-.1,1.79,1.79,0,0,0-.34,0,1.1,1.1,0,0,0-.29.09.51.51,0,0,0-.19.16.34.34,0,0,0-.07.22.4.4,0,0,0,.1.28.75.75,0,0,0,.28.2,2.72,2.72,0,0,0,.38.16l.41.13a6.16,6.16,0,0,1,.67.28,2.55,2.55,0,0,1,.51.36,1.58,1.58,0,0,1,.33.48,1.86,1.86,0,0,1,.11.66,1.67,1.67,0,0,1-.23.91,1.9,1.9,0,0,1-.61.62,3.05,3.05,0,0,1-.89.34,5,5,0,0,1-1,.11A5.17,5.17,0,0,1,231.93,32.22Z" fill="#fff"/>
      <path d="M242.15,32.17a3.73,3.73,0,0,1-1.82.36,3,3,0,0,1-2.23-.84,2.9,2.9,0,0,1-.86-2.16,3.19,3.19,0,0,1,.92-2.41,3.38,3.38,0,0,1,2.45-.88,3.14,3.14,0,0,1,1.54.28v1.57a2.13,2.13,0,0,0-1.3-.44,1.71,1.71,0,0,0-1.26.47,1.75,1.75,0,0,0-.47,1.29,1.71,1.71,0,0,0,.45,1.25,1.62,1.62,0,0,0,1.22.45,2.47,2.47,0,0,0,1.36-.43Z" fill="#fff"/>
      <path d="M247.27,28.05a1.61,1.61,0,0,0-.78-.18,1.14,1.14,0,0,0-.94.44,1.93,1.93,0,0,0-.34,1.21v2.86h-1.85v-6h1.85V27.5h0a1.6,1.6,0,0,1,1.59-1.22,1.12,1.12,0,0,1,.45.07Z" fill="#fff"/>
      <path d="M249.12,25.43a1.11,1.11,0,0,1-.77-.27.92.92,0,0,1-.3-.69.88.88,0,0,1,.3-.68,1.27,1.27,0,0,1,1.54,0,1,1,0,0,1,0,1.37A1.11,1.11,0,0,1,249.12,25.43Zm.91,7h-1.85v-6H250Z" fill="#fff"/>
      <path d="M253.47,31.69h0v3.45h-1.85V26.38h1.85v.91h0A2.36,2.36,0,0,1,257.2,27a3.4,3.4,0,0,1,.63,2.17,3.71,3.71,0,0,1-.74,2.41,2.4,2.4,0,0,1-2,.91A1.86,1.86,0,0,1,253.47,31.69Zm-.06-2.47v.49a1.52,1.52,0,0,0,.33,1,1.08,1.08,0,0,0,.86.39,1.12,1.12,0,0,0,1-.49,2.29,2.29,0,0,0,.35-1.38q0-1.59-1.23-1.59a1.18,1.18,0,0,0-.93.43A1.73,1.73,0,0,0,253.41,29.22Z" fill="#fff"/>
      <path d="M262.66,32.31a2.67,2.67,0,0,1-1.24.22c-1.3,0-1.95-.68-1.95-2V27.75h-1V26.38h1V25.09l1.84-.53v1.82h1.35v1.37h-1.35v2.42c0,.63.25.94.75.94a1.31,1.31,0,0,0,.6-.17Z" fill="#fff"/>
      <path d="M210.83,45.58h-2.06l-.6-1.87h-3l-.59,1.87h-2.05l3.06-8.4h2.24Zm-3.09-3.32-.9-2.82a3.12,3.12,0,0,1-.14-.76h0a3.06,3.06,0,0,1-.15.73l-.91,2.85Z" fill="#fff"/>
      <path d="M213.58,44.89h0v3.45H211.7V39.58h1.85v.91h0a2.35,2.35,0,0,1,3.72-.25,3.36,3.36,0,0,1,.64,2.17,3.71,3.71,0,0,1-.74,2.41,2.4,2.4,0,0,1-2,.91A1.85,1.85,0,0,1,213.58,44.89Zm-.06-2.47v.49a1.52,1.52,0,0,0,.33,1,1.08,1.08,0,0,0,.86.39,1.12,1.12,0,0,0,1-.49,2.29,2.29,0,0,0,.35-1.38q0-1.59-1.23-1.59a1.16,1.16,0,0,0-.93.44A1.68,1.68,0,0,0,213.52,42.42Z" fill="#fff"/>
      <path d="M221,44.89h0v3.45h-1.85V39.58H221v.91h0a2.36,2.36,0,0,1,3.73-.25,3.42,3.42,0,0,1,.63,2.17,3.71,3.71,0,0,1-.74,2.41,2.4,2.4,0,0,1-2,.91A1.87,1.87,0,0,1,221,44.89ZM221,42.42v.49a1.52,1.52,0,0,0,.33,1,1.08,1.08,0,0,0,.86.39,1.11,1.11,0,0,0,1-.49,2.29,2.29,0,0,0,.35-1.38q0-1.59-1.23-1.59a1.16,1.16,0,0,0-.93.44A1.68,1.68,0,0,0,221,42.42Z" fill="#fff"/>
      <path d="M228.43,45.58h-1.85V36.7h1.85Z" fill="#fff"/>
      <path d="M230.93,38.63a1.11,1.11,0,0,1-.77-.27.92.92,0,0,1-.3-.69.88.88,0,0,1,.3-.68,1.16,1.16,0,0,1,.77-.26,1.14,1.14,0,0,1,.77.26.93.93,0,0,1,0,1.37A1.1,1.1,0,0,1,230.93,38.63Zm.91,6.95H230v-6h1.85Z" fill="#fff"/>
      <path d="M238,45.37a3.69,3.69,0,0,1-1.81.36,3.06,3.06,0,0,1-2.24-.84,2.89,2.89,0,0,1-.85-2.16,3.19,3.19,0,0,1,.91-2.41,3.39,3.39,0,0,1,2.46-.88,3.12,3.12,0,0,1,1.53.28v1.57a2.12,2.12,0,0,0-1.29-.44,1.71,1.71,0,0,0-1.27.47,2,2,0,0,0,0,2.54,1.66,1.66,0,0,0,1.23.45,2.42,2.42,0,0,0,1.35-.43Z" fill="#fff"/>
      <path d="M244.16,45.58H242.4v-.86h0a2,2,0,0,1-1.79,1,1.86,1.86,0,0,1-1.37-.5,1.75,1.75,0,0,1-.5-1.32q0-1.74,2.07-2l1.63-.22c0-.66-.36-1-1.07-1a3.65,3.65,0,0,0-2,.63V39.94a4.67,4.67,0,0,1,1.06-.35,5.56,5.56,0,0,1,1.22-.15A2.27,2.27,0,0,1,244.16,42Zm-1.74-2.43v-.41l-1.09.14c-.61.08-.91.35-.91.82a.67.67,0,0,0,.22.51.84.84,0,0,0,.6.21,1.11,1.11,0,0,0,.85-.36A1.31,1.31,0,0,0,242.42,43.15Z" fill="#fff"/>
      <path d="M249.25,45.51a2.7,2.7,0,0,1-1.24.22,1.77,1.77,0,0,1-2-2V41h-1V39.58h1V38.29l1.85-.53v1.82h1.35V41H247.9v2.42c0,.63.25.94.74.94a1.31,1.31,0,0,0,.61-.17Z" fill="#fff"/>
      <path d="M251.23,38.63a1.11,1.11,0,0,1-.77-.27.92.92,0,0,1-.3-.69.88.88,0,0,1,.3-.68A1.27,1.27,0,0,1,252,37a1,1,0,0,1,0,1.37A1.11,1.11,0,0,1,251.23,38.63Zm.91,6.95h-1.85v-6h1.85Z" fill="#fff"/>
      <path d="M256.56,45.73a3.23,3.23,0,0,1-2.36-.84,3.47,3.47,0,0,1,0-4.61,3.38,3.38,0,0,1,2.41-.84,3.2,3.2,0,0,1,2.35.84,3,3,0,0,1,.84,2.22,3.18,3.18,0,0,1-.87,2.36A3.24,3.24,0,0,1,256.56,45.73Zm.05-4.88a1.21,1.21,0,0,0-1,.46,1.92,1.92,0,0,0-.37,1.27c0,1.16.47,1.73,1.4,1.73s1.33-.59,1.33-1.77S257.5,40.85,256.61,40.85Z" fill="#fff"/>
      <path d="M266.83,45.58H265V42.25c0-.93-.34-1.4-1-1.4a1,1,0,0,0-.79.37,1.4,1.4,0,0,0-.31.94v3.42H261v-6h1.85v1h0a2.12,2.12,0,0,1,1.93-1.09c1.33,0,2,.82,2,2.47Z" fill="#fff"/>
    </g>
    <g>
      <path d="M81.55,128.88H80.34L76,122.19a2.94,2.94,0,0,1-.27-.53h0a7.12,7.12,0,0,1,.05,1.15v6.07h-1v-8.4h1.27l4.21,6.59c.18.28.29.46.34.56h0a9,9,0,0,1-.05-1.23v-5.92h1Z" fill="#1e1e1e"/>
      <path d="M87.92,128.88H87V128h0A2,2,0,0,1,85.09,129a1.93,1.93,0,0,1-1.4-.47,1.65,1.65,0,0,1-.51-1.26c0-1.12.66-1.77,2-2l1.8-.25c0-1-.41-1.53-1.24-1.53a3,3,0,0,0-2,.74v-1a3.76,3.76,0,0,1,2-.56c1.41,0,2.12.75,2.12,2.24Zm-1-3-1.45.2a2.35,2.35,0,0,0-1,.33,1,1,0,0,0-.34.84.93.93,0,0,0,.32.72,1.22,1.22,0,0,0,.83.27,1.51,1.51,0,0,0,1.18-.5,1.77,1.77,0,0,0,.47-1.26Z" fill="#1e1e1e"/>
      <path d="M92.51,128.82a1.76,1.76,0,0,1-.89.19c-1.05,0-1.58-.58-1.58-1.76V123.7H89v-.82h1v-1.46l1-.31v1.77h1.51v.82H91v3.38a1.41,1.41,0,0,0,.21.87.81.81,0,0,0,.68.25.94.94,0,0,0,.62-.2Z" fill="#1e1e1e"/>
      <path d="M94.29,121.36a.6.6,0,0,1-.44-.18.57.57,0,0,1-.18-.44.61.61,0,0,1,.18-.45.6.6,0,0,1,.44-.18.64.64,0,0,1,.45.18.61.61,0,0,1,.18.45.6.6,0,0,1-.18.44A.64.64,0,0,1,94.29,121.36Zm.47,7.52h-1v-6h1Z" fill="#1e1e1e"/>
      <path d="M101.42,122.88l-2.39,6h-1l-2.27-6h1.06l1.52,4.36a4.27,4.27,0,0,1,.21.84h0a4.38,4.38,0,0,1,.19-.81l1.6-4.39Z" fill="#1e1e1e"/>
      <path d="M107.27,126.12H103a2.19,2.19,0,0,0,.54,1.55,1.85,1.85,0,0,0,1.41.54,3,3,0,0,0,1.87-.66v.9a3.53,3.53,0,0,1-2.1.57,2.53,2.53,0,0,1-2-.81,3.34,3.34,0,0,1-.73-2.3,3.29,3.29,0,0,1,.79-2.29,2.58,2.58,0,0,1,2-.88,2.28,2.28,0,0,1,1.82.76,3.19,3.19,0,0,1,.64,2.12Zm-1-.81a2,2,0,0,0-.4-1.3,1.4,1.4,0,0,0-1.1-.46,1.54,1.54,0,0,0-1.16.49,2.21,2.21,0,0,0-.58,1.27Z" fill="#1e1e1e"/>
      <path d="M118.65,128.88h-1.09l-.89-2.35H113.1l-.84,2.35h-1.09l3.22-8.4h1Zm-2.31-3.24L115,122.06a3.36,3.36,0,0,1-.12-.56h0a3.13,3.13,0,0,1-.13.56l-1.31,3.58Z" fill="#1e1e1e"/>
      <path d="M123.84,128.61a3.19,3.19,0,0,1-1.64.41,2.71,2.71,0,0,1-2.07-.83,3.06,3.06,0,0,1-.79-2.17,3.36,3.36,0,0,1,.85-2.38,3,3,0,0,1,2.27-.9,3.06,3.06,0,0,1,1.39.3v1a2.45,2.45,0,0,0-1.43-.47,1.91,1.91,0,0,0-1.5.66,2.47,2.47,0,0,0-.59,1.73,2.4,2.4,0,0,0,.55,1.67,1.94,1.94,0,0,0,1.49.6,2.38,2.38,0,0,0,1.47-.52Z" fill="#1e1e1e"/>
      <path d="M129.39,128.61a3.22,3.22,0,0,1-1.64.41,2.72,2.72,0,0,1-2.08-.83,3.06,3.06,0,0,1-.78-2.17,3.32,3.32,0,0,1,.85-2.38,3,3,0,0,1,2.26-.9,3.1,3.1,0,0,1,1.4.3v1a2.47,2.47,0,0,0-1.43-.47,1.92,1.92,0,0,0-1.51.66,2.52,2.52,0,0,0-.59,1.73,2.4,2.4,0,0,0,.55,1.67,1.94,1.94,0,0,0,1.49.6,2.43,2.43,0,0,0,1.48-.52Z" fill="#1e1e1e"/>
      <path d="M135.66,126.12h-4.24a2.28,2.28,0,0,0,.54,1.55,1.88,1.88,0,0,0,1.42.54,3,3,0,0,0,1.87-.66v.9a3.53,3.53,0,0,1-2.1.57,2.53,2.53,0,0,1-2-.81,3.34,3.34,0,0,1-.73-2.3,3.29,3.29,0,0,1,.79-2.29,2.58,2.58,0,0,1,2-.88,2.29,2.29,0,0,1,1.83.76,3.19,3.19,0,0,1,.64,2.12Zm-1-.81a2,2,0,0,0-.4-1.3,1.4,1.4,0,0,0-1.1-.46A1.54,1.54,0,0,0,132,124a2.21,2.21,0,0,0-.58,1.27Z" fill="#1e1e1e"/>
      <path d="M136.75,128.67v-1a2.82,2.82,0,0,0,1.73.58c.84,0,1.27-.28,1.27-.84a.78.78,0,0,0-.11-.41,1,1,0,0,0-.3-.29,1.59,1.59,0,0,0-.43-.23l-.54-.22a6.6,6.6,0,0,1-.7-.32,2,2,0,0,1-.5-.36,1.26,1.26,0,0,1-.3-.46,1.57,1.57,0,0,1-.11-.6,1.45,1.45,0,0,1,.2-.75,1.67,1.67,0,0,1,.51-.55,2.77,2.77,0,0,1,.74-.33,3.56,3.56,0,0,1,2.24.16v1a2.78,2.78,0,0,0-1.52-.43,1.88,1.88,0,0,0-.49.06,1.16,1.16,0,0,0-.37.18.85.85,0,0,0-.24.26.81.81,0,0,0-.08.34,1,1,0,0,0,.08.4.94.94,0,0,0,.25.28,2.11,2.11,0,0,0,.4.22l.53.22a6.21,6.21,0,0,1,.72.31,2.82,2.82,0,0,1,.54.36,1.41,1.41,0,0,1,.34.47,1.54,1.54,0,0,1,.12.63,1.5,1.5,0,0,1-.2.77,1.7,1.7,0,0,1-.52.55,2.49,2.49,0,0,1-.76.32,3.68,3.68,0,0,1-.89.1A3.51,3.51,0,0,1,136.75,128.67Z" fill="#1e1e1e"/>
      <path d="M141.84,128.67v-1a2.84,2.84,0,0,0,1.73.58c.85,0,1.27-.28,1.27-.84a.78.78,0,0,0-.11-.41,1,1,0,0,0-.29-.29,1.83,1.83,0,0,0-.44-.23l-.53-.22a5.16,5.16,0,0,1-.7-.32,2,2,0,0,1-.51-.36,1.41,1.41,0,0,1-.3-.46,1.57,1.57,0,0,1-.11-.6,1.45,1.45,0,0,1,.2-.75,1.78,1.78,0,0,1,.51-.55,2.77,2.77,0,0,1,.74-.33,3.41,3.41,0,0,1,.85-.11,3.46,3.46,0,0,1,1.4.27v1a2.82,2.82,0,0,0-1.53-.43,1.75,1.75,0,0,0-.48.06,1.11,1.11,0,0,0-.38.18.85.85,0,0,0-.24.26.81.81,0,0,0-.08.34,1,1,0,0,0,.08.4.94.94,0,0,0,.25.28,2.48,2.48,0,0,0,.4.22l.53.22a6.21,6.21,0,0,1,.72.31,2.82,2.82,0,0,1,.54.36,1.41,1.41,0,0,1,.34.47,1.54,1.54,0,0,1,.12.63,1.49,1.49,0,0,1-.19.77,1.85,1.85,0,0,1-.53.55,2.49,2.49,0,0,1-.76.32,3.68,3.68,0,0,1-.89.1A3.54,3.54,0,0,1,141.84,128.67Z" fill="#1e1e1e"/>
      <path d="M106.23,142.08h-1.09l-.89-2.35h-3.56l-.84,2.35H98.76l3.22-8.4h1Zm-2.3-3.24-1.32-3.58a4.39,4.39,0,0,1-.13-.56h0a2.38,2.38,0,0,1-.14.56l-1.3,3.58Z" fill="#1e1e1e"/>
      <path d="M108.45,138.91v3.17h-1v-8.4h2.31a3,3,0,0,1,2.09.66,2.34,2.34,0,0,1,.74,1.85,2.55,2.55,0,0,1-.83,2,3.16,3.16,0,0,1-2.22.76Zm0-4.34V138h1a2.33,2.33,0,0,0,1.56-.47,1.64,1.64,0,0,0,.54-1.31c0-1.11-.66-1.67-2-1.67Z" fill="#1e1e1e"/>
      <path d="M115.17,142.08h-1v-8.4h1Z" fill="#1e1e1e"/>
      <path d="M116.89,141.87v-1a2.83,2.83,0,0,0,1.73.59c.84,0,1.26-.29,1.26-.85a.78.78,0,0,0-.1-.41,1,1,0,0,0-.3-.29,1.93,1.93,0,0,0-.43-.23l-.54-.22a5.79,5.79,0,0,1-.7-.32,1.74,1.74,0,0,1-.5-.36,1.29,1.29,0,0,1-.31-.46,1.79,1.79,0,0,1-.1-.6,1.45,1.45,0,0,1,.2-.75,1.67,1.67,0,0,1,.51-.55,2.77,2.77,0,0,1,.74-.33,3.56,3.56,0,0,1,2.24.16v1a2.78,2.78,0,0,0-1.52-.43,1.88,1.88,0,0,0-.49.06,1.16,1.16,0,0,0-.37.18.85.85,0,0,0-.24.26.81.81,0,0,0-.08.34,1,1,0,0,0,.08.4.94.94,0,0,0,.25.28,2.11,2.11,0,0,0,.4.22l.53.22a6.21,6.21,0,0,1,.72.31,2.82,2.82,0,0,1,.54.36,1.57,1.57,0,0,1,.34.47,1.54,1.54,0,0,1,.12.63,1.5,1.5,0,0,1-.2.77,1.7,1.7,0,0,1-.52.55,2.49,2.49,0,0,1-.76.32,3.68,3.68,0,0,1-.89.1A3.51,3.51,0,0,1,116.89,141.87Z" fill="#1e1e1e"/>
    </g>
    <g>
      <path d="M210.81,128.53a4.92,4.92,0,0,1-2.32.49,3.72,3.72,0,0,1-2.87-1.15,4.26,4.26,0,0,1-1.08-3,4.47,4.47,0,0,1,1.21-3.26,4.11,4.11,0,0,1,3.08-1.24,5,5,0,0,1,2,.35v1a4.09,4.09,0,0,0-2-.5,3,3,0,0,0-2.34,1,3.62,3.62,0,0,0-.9,2.58,3.49,3.49,0,0,0,.84,2.45,2.89,2.89,0,0,0,2.21.91,4.2,4.2,0,0,0,2.19-.56Z" fill="#1e1e1e"/>
      <path d="M214.9,129a2.79,2.79,0,0,1-2.13-.84A3.1,3.1,0,0,1,212,126a3.26,3.26,0,0,1,.82-2.36,3,3,0,0,1,2.24-.85,2.69,2.69,0,0,1,2.09.83,3.27,3.27,0,0,1,.75,2.29,3.23,3.23,0,0,1-.81,2.3A2.81,2.81,0,0,1,214.9,129Zm.07-5.47a1.84,1.84,0,0,0-1.47.63,2.59,2.59,0,0,0-.54,1.74,2.41,2.41,0,0,0,.55,1.68,1.85,1.85,0,0,0,1.46.61,1.75,1.75,0,0,0,1.43-.6,2.63,2.63,0,0,0,.5-1.72,2.68,2.68,0,0,0-.5-1.73A1.73,1.73,0,0,0,215,123.55Z" fill="#1e1e1e"/>
      <path d="M222.55,123.86a1.18,1.18,0,0,0-.73-.2,1.25,1.25,0,0,0-1,.58,2.74,2.74,0,0,0-.41,1.58v3.06h-1v-6h1v1.24h0a2.17,2.17,0,0,1,.63-1,1.46,1.46,0,0,1,.94-.35,1.49,1.49,0,0,1,.58.08Z" fill="#1e1e1e"/>
      <path d="M228.41,126.12h-4.23a2.19,2.19,0,0,0,.54,1.55,1.85,1.85,0,0,0,1.41.54,3,3,0,0,0,1.87-.66v.9a3.52,3.52,0,0,1-2.09.57,2.54,2.54,0,0,1-2-.81,3.34,3.34,0,0,1-.73-2.3,3.29,3.29,0,0,1,.8-2.29,2.55,2.55,0,0,1,2-.88,2.28,2.28,0,0,1,1.82.76,3.19,3.19,0,0,1,.64,2.12Zm-1-.81a2,2,0,0,0-.4-1.3,1.4,1.4,0,0,0-1.1-.46,1.52,1.52,0,0,0-1.15.49,2.16,2.16,0,0,0-.59,1.27Z" fill="#1e1e1e"/>
      <path d="M243.24,120.48l-2.37,8.4h-1.15L238,122.74a3.68,3.68,0,0,1-.14-.85h0a3.89,3.89,0,0,1-.15.84l-1.74,6.15h-1.15l-2.46-8.4h1.09l1.79,6.45a4.6,4.6,0,0,1,.14.84h0a4.13,4.13,0,0,1,.18-.84l1.85-6.45h1l1.78,6.49a5.13,5.13,0,0,1,.14.79h0a5.15,5.15,0,0,1,.16-.81l1.72-6.47Z" fill="#1e1e1e"/>
      <path d="M244.86,121.36a.59.59,0,0,1-.44-.18.55.55,0,0,1-.19-.44.63.63,0,0,1,.63-.63.6.6,0,0,1,.44.18.58.58,0,0,1,.19.45.58.58,0,0,1-.19.44A.6.6,0,0,1,244.86,121.36Zm.46,7.52h-1v-6h1Z" fill="#1e1e1e"/>
      <path d="M252.25,128.88h-1v-3.42c0-1.27-.47-1.91-1.4-1.91a1.52,1.52,0,0,0-1.19.54,2,2,0,0,0-.47,1.37v3.42h-1v-6h1v1h0a2.17,2.17,0,0,1,2-1.14,1.83,1.83,0,0,1,1.51.64,2.79,2.79,0,0,1,.52,1.83Z" fill="#1e1e1e"/>
      <path d="M260.21,128.88H259l-1.41-2.35a3.88,3.88,0,0,0-.37-.56,2.24,2.24,0,0,0-.37-.38,1.23,1.23,0,0,0-.41-.21,1.55,1.55,0,0,0-.5-.07h-.81v3.57h-1v-8.4h2.51a3.62,3.62,0,0,1,1,.14,2.23,2.23,0,0,1,.81.42,1.88,1.88,0,0,1,.54.7,2.58,2.58,0,0,1,.06,1.78,2.13,2.13,0,0,1-.37.66,2.57,2.57,0,0,1-.59.49,3.1,3.1,0,0,1-.77.31v0a2,2,0,0,1,.36.22,1.58,1.58,0,0,1,.3.28c.09.11.19.24.28.37l.31.49Zm-5-7.51v3h1.34a2.11,2.11,0,0,0,.68-.11,1.61,1.61,0,0,0,.54-.32,1.32,1.32,0,0,0,.36-.51,1.65,1.65,0,0,0,.13-.68,1.28,1.28,0,0,0-.44-1,1.88,1.88,0,0,0-1.26-.38Z" fill="#1e1e1e"/>
      <path d="M265.8,121.37h-2.43v7.51h-1v-7.51H260v-.89h5.83Z" fill="#1e1e1e"/>
      <path d="M231.23,142.08h-1.09l-.89-2.35h-3.56l-.84,2.35h-1.09l3.22-8.4h1Zm-2.3-3.24-1.32-3.58a4.39,4.39,0,0,1-.13-.56h0a2.38,2.38,0,0,1-.14.56l-1.3,3.58Z" fill="#1e1e1e"/>
      <path d="M233.45,138.91v3.17h-1v-8.4h2.31a3,3,0,0,1,2.09.66,2.34,2.34,0,0,1,.74,1.85,2.55,2.55,0,0,1-.83,2,3.16,3.16,0,0,1-2.22.76Zm0-4.34V138h1a2.33,2.33,0,0,0,1.56-.47,1.64,1.64,0,0,0,.54-1.31c0-1.11-.66-1.67-2-1.67Z" fill="#1e1e1e"/>
      <path d="M240.17,142.08h-1v-8.4h1Z" fill="#1e1e1e"/>
      <path d="M241.89,141.87v-1a2.83,2.83,0,0,0,1.73.59c.84,0,1.26-.29,1.26-.85a.78.78,0,0,0-.1-.41,1,1,0,0,0-.3-.29,1.93,1.93,0,0,0-.43-.23l-.54-.22a5.79,5.79,0,0,1-.7-.32,1.74,1.74,0,0,1-.5-.36,1.29,1.29,0,0,1-.31-.46,1.79,1.79,0,0,1-.1-.6,1.45,1.45,0,0,1,.2-.75,1.67,1.67,0,0,1,.51-.55,2.77,2.77,0,0,1,.74-.33,3.56,3.56,0,0,1,2.24.16v1a2.78,2.78,0,0,0-1.52-.43,1.88,1.88,0,0,0-.49.06,1.16,1.16,0,0,0-.37.18.85.85,0,0,0-.24.26.81.81,0,0,0-.08.34,1,1,0,0,0,.08.4.94.94,0,0,0,.25.28,2.11,2.11,0,0,0,.4.22l.53.22a6.21,6.21,0,0,1,.72.31,2.82,2.82,0,0,1,.54.36,1.57,1.57,0,0,1,.34.47,1.54,1.54,0,0,1,.12.63,1.5,1.5,0,0,1-.2.77,1.7,1.7,0,0,1-.52.55,2.49,2.49,0,0,1-.76.32,3.68,3.68,0,0,1-.89.1A3.51,3.51,0,0,1,241.89,141.87Z" fill="#1e1e1e"/>
    </g>
    <g>
      <path d="M127.2,280v-8.4h2.32q4.44,0,4.44,4.09a4.14,4.14,0,0,1-1.23,3.13,4.55,4.55,0,0,1-3.3,1.18Zm1-7.51v6.62h1.25a3.55,3.55,0,0,0,2.57-.89,3.28,3.28,0,0,0,.92-2.5c0-2.16-1.14-3.23-3.43-3.23Z" fill="#1e1e1e"/>
      <path d="M136,272.48a.6.6,0,0,1-.44-.18.59.59,0,0,1-.18-.44.61.61,0,0,1,.18-.45.6.6,0,0,1,.44-.18.64.64,0,0,1,.45.18.61.61,0,0,1,.18.45.58.58,0,0,1-.18.43A.61.61,0,0,1,136,272.48Zm.47,7.52h-1v-6h1Z" fill="#1e1e1e"/>
      <path d="M141.52,275a1.18,1.18,0,0,0-.73-.19,1.2,1.2,0,0,0-1,.58,2.64,2.64,0,0,0-.42,1.58V280h-1v-6h1v1.24h0a2,2,0,0,1,.62-1,1.45,1.45,0,0,1,.95-.36,1.41,1.41,0,0,1,.57.09Z" fill="#1e1e1e"/>
      <path d="M147.39,277.24h-4.24a2.3,2.3,0,0,0,.54,1.55,1.87,1.87,0,0,0,1.42.54,2.93,2.93,0,0,0,1.86-.67v.91a3.5,3.5,0,0,1-2.09.57,2.53,2.53,0,0,1-2-.82,3.36,3.36,0,0,1-.73-2.3,3.29,3.29,0,0,1,.8-2.28,2.53,2.53,0,0,1,2-.88,2.24,2.24,0,0,1,1.82.76,3.18,3.18,0,0,1,.65,2.12Zm-1-.81a2,2,0,0,0-.4-1.3,1.36,1.36,0,0,0-1.1-.46,1.55,1.55,0,0,0-1.15.48,2.25,2.25,0,0,0-.59,1.28Z" fill="#1e1e1e"/>
      <path d="M152.93,279.72a3.1,3.1,0,0,1-1.64.42,2.72,2.72,0,0,1-2.07-.83,3,3,0,0,1-.79-2.17,3.3,3.3,0,0,1,.85-2.38,3,3,0,0,1,2.27-.9,3.23,3.23,0,0,1,1.39.29v1a2.38,2.38,0,0,0-1.43-.47,2,2,0,0,0-1.51.66,2.5,2.5,0,0,0-.59,1.73,2.36,2.36,0,0,0,.56,1.66,1.89,1.89,0,0,0,1.48.61,2.39,2.39,0,0,0,1.48-.52Z" fill="#1e1e1e"/>
      <path d="M157.17,279.94a1.82,1.82,0,0,1-.9.19c-1.05,0-1.58-.59-1.58-1.76v-3.55h-1V274h1v-1.46l1-.32V274h1.52v.82h-1.52v3.38a1.37,1.37,0,0,0,.21.86.83.83,0,0,0,.68.26,1.05,1.05,0,0,0,.63-.2Z" fill="#1e1e1e"/>
      <path d="M167.14,280h-1v-5.64c0-.44,0-1,.08-1.63h0a4.19,4.19,0,0,1-.25.81L163.1,280h-.48l-2.86-6.41a4.54,4.54,0,0,1-.26-.86h0c0,.33.05.88.05,1.65V280h-.95v-8.4h1.3l2.58,5.86a6.3,6.3,0,0,1,.38,1h0c.17-.46.3-.8.4-1l2.63-5.83h1.23Z" fill="#1e1e1e"/>
      <path d="M173.71,280h-4.36v-8.4h1v7.51h3.37Z" fill="#1e1e1e"/>
    </g>
    <g>
      <path d="M385.62,312.46a4.89,4.89,0,0,1-2.32.5,3.75,3.75,0,0,1-2.87-1.16,4.26,4.26,0,0,1-1.08-3,4.44,4.44,0,0,1,1.22-3.25,4.11,4.11,0,0,1,3.07-1.25,4.91,4.91,0,0,1,2,.35v1.05a4,4,0,0,0-2-.51,3.09,3.09,0,0,0-2.35,1,3.65,3.65,0,0,0-.9,2.58,3.48,3.48,0,0,0,.85,2.45,2.84,2.84,0,0,0,2.2.91,4.15,4.15,0,0,0,2.19-.56Z" fill="#1e1e1e"/>
      <path d="M388.32,309.64v3.18h-1v-8.41h2.31a3,3,0,0,1,2.09.66,2.33,2.33,0,0,1,.74,1.85,2.54,2.54,0,0,1-.82,2,3.13,3.13,0,0,1-2.22.76Zm0-4.34v3.45h1a2.32,2.32,0,0,0,1.56-.46,1.69,1.69,0,0,0,.53-1.32c0-1.11-.65-1.67-2-1.67Z" fill="#1e1e1e"/>
      <path d="M400.2,309.42q0,3.54-3.19,3.54T394,309.55v-5.14h1v5.08c0,1.72.73,2.58,2.18,2.58s2.11-.83,2.11-2.49v-5.17h1Z" fill="#1e1e1e"/>
    </g>
    <g>
      <path d="M83.28,319.43a5.67,5.67,0,0,1-2.81.71A3.86,3.86,0,0,1,77.56,319a4.26,4.26,0,0,1-1.11-3.07,4.33,4.33,0,0,1,1.24-3.2,4.17,4.17,0,0,1,3.12-1.25,5.39,5.39,0,0,1,2.3.44V313a4.4,4.4,0,0,0-2.41-.64,3,3,0,0,0-2.31,1,4,4,0,0,0-.07,5,2.94,2.94,0,0,0,2.27.92,3.43,3.43,0,0,0,1.71-.4v-2.35H80.46v-.89h2.82Z" fill="#1e1e1e"/>
      <path d="M86.22,316.82V320h-1v-8.4h2.3a3.08,3.08,0,0,1,2.09.65,2.34,2.34,0,0,1,.74,1.86,2.54,2.54,0,0,1-.82,1.95,3.13,3.13,0,0,1-2.22.76Zm0-4.33v3.44h1a2.32,2.32,0,0,0,1.56-.46,1.67,1.67,0,0,0,.53-1.32c0-1.11-.65-1.66-2-1.66Z" fill="#1e1e1e"/>
      <path d="M98.1,316.6q0,3.54-3.19,3.54t-3.06-3.4V311.6h1v5.07c0,1.72.73,2.59,2.18,2.59s2.11-.84,2.11-2.5V311.6h1Z" fill="#1e1e1e"/>
    </g>
    <g>
      <path d="M180.94,312a3.7,3.7,0,0,1-2.86-1.17,4.38,4.38,0,0,1-1.08-3.07,4.62,4.62,0,0,1,1.1-3.23,3.8,3.8,0,0,1,3-1.21,3.62,3.62,0,0,1,2.81,1.17,4.42,4.42,0,0,1,1.06,3.07,4.63,4.63,0,0,1-1.09,3.25A3.75,3.75,0,0,1,180.94,312Zm.07-7.79a2.7,2.7,0,0,0-2.15,1,4.26,4.26,0,0,0,0,5,2.64,2.64,0,0,0,2.1.95,2.76,2.76,0,0,0,2.18-.9,3.73,3.73,0,0,0,.8-2.53,3.81,3.81,0,0,0-.78-2.57A2.62,2.62,0,0,0,181,304.23Z" fill="#1e1e1e"/>
      <path d="M189.26,311.82a1.82,1.82,0,0,1-.9.19c-1.05,0-1.58-.58-1.58-1.76V306.7h-1v-.82h1v-1.46l1-.31v1.77h1.52v.82h-1.52v3.38a1.41,1.41,0,0,0,.21.87.82.82,0,0,0,.68.25,1,1,0,0,0,.63-.2Z" fill="#1e1e1e"/>
      <path d="M195.52,311.88h-1v-3.45c0-1.25-.47-1.88-1.4-1.88a1.53,1.53,0,0,0-1.18.54,2,2,0,0,0-.48,1.39v3.4h-1V303h1v3.88h0a2.18,2.18,0,0,1,2-1.14c1.35,0,2,.82,2,2.45Z" fill="#1e1e1e"/>
      <path d="M202.15,309.12h-4.23a2.19,2.19,0,0,0,.54,1.55,1.85,1.85,0,0,0,1.41.54,3,3,0,0,0,1.87-.66v.9a3.53,3.53,0,0,1-2.1.57,2.53,2.53,0,0,1-2-.81,3.34,3.34,0,0,1-.73-2.3,3.29,3.29,0,0,1,.79-2.29,2.58,2.58,0,0,1,2-.88,2.28,2.28,0,0,1,1.82.76,3.19,3.19,0,0,1,.64,2.12Zm-1-.81a2,2,0,0,0-.4-1.3,1.4,1.4,0,0,0-1.1-.46,1.54,1.54,0,0,0-1.16.49,2.21,2.21,0,0,0-.58,1.27Z" fill="#1e1e1e"/>
      <path d="M206.73,306.86a1.14,1.14,0,0,0-.72-.2,1.24,1.24,0,0,0-1,.58,2.67,2.67,0,0,0-.41,1.58v3.06h-1v-6h1v1.24h0a2.17,2.17,0,0,1,.63-1,1.61,1.61,0,0,1,1.51-.27Z" fill="#1e1e1e"/>
      <path d="M211.19,311.88v-8.4h2.32c3,0,4.45,1.37,4.45,4.1a4.13,4.13,0,0,1-1.24,3.12,4.55,4.55,0,0,1-3.3,1.18Zm1-7.51V311h1.25a3.55,3.55,0,0,0,2.57-.88,3.3,3.3,0,0,0,.92-2.51q0-3.23-3.43-3.23Z" fill="#1e1e1e"/>
      <path d="M220,304.36a.6.6,0,0,1-.44-.18.57.57,0,0,1-.18-.44.61.61,0,0,1,.18-.45.6.6,0,0,1,.44-.18.62.62,0,0,1,.63.63.6.6,0,0,1-.18.44A.61.61,0,0,1,220,304.36Zm.47,7.52h-1v-6h1Z" fill="#1e1e1e"/>
      <path d="M225.51,306.86a1.14,1.14,0,0,0-.72-.2,1.24,1.24,0,0,0-1,.58,2.67,2.67,0,0,0-.41,1.58v3.06h-1v-6h1v1.24h0a2.09,2.09,0,0,1,.63-1,1.61,1.61,0,0,1,1.51-.27Z" fill="#1e1e1e"/>
      <path d="M231.38,309.12h-4.24a2.28,2.28,0,0,0,.54,1.55,1.88,1.88,0,0,0,1.42.54,2.94,2.94,0,0,0,1.86-.66v.9a3.47,3.47,0,0,1-2.09.57,2.56,2.56,0,0,1-2-.81,3.39,3.39,0,0,1-.72-2.3,3.29,3.29,0,0,1,.79-2.29,2.58,2.58,0,0,1,2-.88,2.27,2.27,0,0,1,1.82.76,3.2,3.2,0,0,1,.65,2.12Zm-1-.81a1.91,1.91,0,0,0-.4-1.3,1.39,1.39,0,0,0-1.1-.46,1.54,1.54,0,0,0-1.15.49,2.22,2.22,0,0,0-.59,1.27Z" fill="#1e1e1e"/>
      <path d="M236.92,311.61a3.19,3.19,0,0,1-1.64.41,2.71,2.71,0,0,1-2.07-.83,3,3,0,0,1-.79-2.17,3.36,3.36,0,0,1,.85-2.38,3,3,0,0,1,2.27-.9,3.06,3.06,0,0,1,1.39.3v1a2.45,2.45,0,0,0-1.43-.47,1.91,1.91,0,0,0-1.5.66,2.47,2.47,0,0,0-.59,1.73,2.4,2.4,0,0,0,.55,1.67,1.92,1.92,0,0,0,1.49.6,2.38,2.38,0,0,0,1.47-.52Z" fill="#1e1e1e"/>
      <path d="M241.16,311.82a1.82,1.82,0,0,1-.9.19c-1,0-1.57-.58-1.57-1.76V306.7h-1v-.82h1v-1.46l1-.31v1.77h1.51v.82h-1.51v3.38a1.41,1.41,0,0,0,.2.87.82.82,0,0,0,.68.25,1,1,0,0,0,.63-.2Z" fill="#1e1e1e"/>
      <path d="M248.37,311.88h-1.2l-1.93-3.21a2.81,2.81,0,0,1-.2-.42h0l-.2.42-2,3.21h-1.21l2.81-4.22-2.59-4.18h1.21l1.72,2.95c.11.2.21.39.3.59h0a4.56,4.56,0,0,1,.33-.61l1.79-2.93h1.13l-2.65,4.17Z" fill="#1e1e1e"/>
      <path d="M193.47,325.08v-8.4h2.32q4.46,0,4.45,4.1A4.09,4.09,0,0,1,199,323.9a4.55,4.55,0,0,1-3.3,1.18Zm1-7.51v6.62h1.25a3.59,3.59,0,0,0,2.58-.88,3.34,3.34,0,0,0,.92-2.51q0-3.23-3.44-3.23Z" fill="#1e1e1e"/>
      <path d="M206.58,322.32h-4.23a2.23,2.23,0,0,0,.53,1.55,1.89,1.89,0,0,0,1.42.55,3,3,0,0,0,1.87-.67v.9a3.53,3.53,0,0,1-2.1.57,2.53,2.53,0,0,1-2-.81,3.34,3.34,0,0,1-.73-2.3,3.29,3.29,0,0,1,.79-2.29,2.58,2.58,0,0,1,2-.88,2.28,2.28,0,0,1,1.82.76,3.19,3.19,0,0,1,.64,2.12Zm-1-.81a2,2,0,0,0-.4-1.3,1.4,1.4,0,0,0-1.1-.46,1.54,1.54,0,0,0-1.16.49,2.21,2.21,0,0,0-.58,1.27Z" fill="#1e1e1e"/>
      <path d="M212.75,319.08l-2.39,6h-.94l-2.28-6h1.06l1.52,4.36a3.21,3.21,0,0,1,.21.84h0a4.41,4.41,0,0,1,.18-.81l1.6-4.39Z" fill="#1e1e1e"/>
      <path d="M214.28,317.56a.59.59,0,0,1-.44-.18.55.55,0,0,1-.19-.44.63.63,0,0,1,.63-.63.6.6,0,0,1,.44.18.58.58,0,0,1,.19.45.58.58,0,0,1-.19.44A.6.6,0,0,1,214.28,317.56Zm.46,7.52h-1v-6h1Z" fill="#1e1e1e"/>
      <path d="M220.78,324.81a3.19,3.19,0,0,1-1.64.41,2.68,2.68,0,0,1-2.07-.83,3,3,0,0,1-.79-2.17,3.32,3.32,0,0,1,.85-2.38,3,3,0,0,1,2.27-.9,3.09,3.09,0,0,1,1.39.3v1a2.45,2.45,0,0,0-1.43-.47,2,2,0,0,0-1.51.66,2.52,2.52,0,0,0-.59,1.73,2.41,2.41,0,0,0,.56,1.67,1.92,1.92,0,0,0,1.48.61,2.4,2.4,0,0,0,1.48-.53Z" fill="#1e1e1e"/>
      <path d="M227.05,322.32h-4.23a2.19,2.19,0,0,0,.54,1.55,1.86,1.86,0,0,0,1.42.55,3,3,0,0,0,1.86-.67v.9a3.52,3.52,0,0,1-2.09.57,2.54,2.54,0,0,1-2-.81,3.34,3.34,0,0,1-.73-2.3,3.29,3.29,0,0,1,.8-2.29,2.56,2.56,0,0,1,2-.88,2.28,2.28,0,0,1,1.82.76,3.19,3.19,0,0,1,.64,2.12Zm-1-.81a2,2,0,0,0-.4-1.3,1.39,1.39,0,0,0-1.1-.46,1.52,1.52,0,0,0-1.15.49,2.16,2.16,0,0,0-.59,1.27Z" fill="#1e1e1e"/>
      <path d="M228.14,324.87v-1a2.85,2.85,0,0,0,1.73.59c.85,0,1.27-.29,1.27-.85a.78.78,0,0,0-.11-.41,1,1,0,0,0-.29-.29,2.27,2.27,0,0,0-.44-.23l-.53-.22a5.16,5.16,0,0,1-.7-.32,1.94,1.94,0,0,1-.51-.36,1.41,1.41,0,0,1-.3-.46,1.57,1.57,0,0,1-.1-.6,1.44,1.44,0,0,1,.19-.75,1.7,1.7,0,0,1,.52-.55,2.71,2.71,0,0,1,.73-.33,3.59,3.59,0,0,1,2.25.16v1a2.79,2.79,0,0,0-1.53-.43,1.75,1.75,0,0,0-.48.06,1,1,0,0,0-.37.18.66.66,0,0,0-.24.26.69.69,0,0,0-.09.34.82.82,0,0,0,.09.4.9.9,0,0,0,.24.28,2.48,2.48,0,0,0,.4.22l.54.22a6.85,6.85,0,0,1,.71.31,2.82,2.82,0,0,1,.54.36,1.41,1.41,0,0,1,.34.47,1.54,1.54,0,0,1,.12.63,1.49,1.49,0,0,1-.19.77,1.74,1.74,0,0,1-.53.55,2.54,2.54,0,0,1-.75.32,3.82,3.82,0,0,1-.9.1A3.54,3.54,0,0,1,228.14,324.87Z" fill="#1e1e1e"/>
    </g>
    <g>
      <path d="M205.25,186.6l-2.37,8.4h-1.16L200,188.86a3.78,3.78,0,0,1-.13-.86h0a4.09,4.09,0,0,1-.15.85L197.94,195H196.8l-2.46-8.4h1.08l1.79,6.44a4.57,4.57,0,0,1,.14.85h0a5.24,5.24,0,0,1,.18-.85l1.86-6.44h.94l1.78,6.49a3.88,3.88,0,0,1,.14.79h0a4.06,4.06,0,0,1,.16-.81l1.71-6.47Z" fill="#1e1e1e"/>
      <path d="M206.86,187.48a.6.6,0,0,1-.44-.18.59.59,0,0,1-.18-.44.61.61,0,0,1,.18-.45.6.6,0,0,1,.44-.18.62.62,0,0,1,.63.63.63.63,0,0,1-.63.62Zm.47,7.52h-1v-6h1Z" fill="#1e1e1e"/>
      <path d="M214.25,195h-1v-3.42c0-1.28-.46-1.91-1.39-1.91a1.5,1.5,0,0,0-1.19.54,2,2,0,0,0-.47,1.37V195h-1v-6h1v1h0a2.16,2.16,0,0,1,2-1.14,1.81,1.81,0,0,1,1.5.64,2.79,2.79,0,0,1,.52,1.83Z" fill="#1e1e1e"/>
      <path d="M224.76,195h-1v-5.64c0-.44,0-1,.08-1.63h0a5.05,5.05,0,0,1-.25.81L220.72,195h-.48l-2.87-6.41a5.64,5.64,0,0,1-.25-.86h0c0,.33,0,.88,0,1.65V195h-.95v-8.4h1.31l2.57,5.86a7.92,7.92,0,0,1,.39,1h0c.16-.46.3-.8.4-1l2.63-5.83h1.23Z" fill="#1e1e1e"/>
      <path d="M231.33,195H227v-8.4h1v7.51h3.38Z" fill="#1e1e1e"/>
      <path d="M241.93,195h-1.17l-1.41-2.36c-.13-.21-.25-.4-.37-.56a2.18,2.18,0,0,0-.38-.37,1.25,1.25,0,0,0-.41-.22,1.83,1.83,0,0,0-.49-.06h-.81V195h-1v-8.4h2.5a3.31,3.31,0,0,1,1,.14,2.38,2.38,0,0,1,.81.41,1.92,1.92,0,0,1,.53.7,2.33,2.33,0,0,1,.2,1,2.53,2.53,0,0,1-.13.8,2.23,2.23,0,0,1-1,1.14,3,3,0,0,1-.78.32v0a1.44,1.44,0,0,1,.37.21,4,4,0,0,1,.3.29,4,4,0,0,1,.27.37c.1.14.2.3.31.48Zm-5-7.51v3h1.34a1.91,1.91,0,0,0,.68-.12,1.46,1.46,0,0,0,.54-.32,1.38,1.38,0,0,0,.36-.51,1.78,1.78,0,0,0,.13-.67,1.32,1.32,0,0,0-.44-1,1.83,1.83,0,0,0-1.26-.38Z" fill="#1e1e1e"/>
      <path d="M247.81,195h-1v-.95h0a2,2,0,0,1-1.85,1.09c-1.43,0-2.14-.85-2.14-2.55V189h.95v3.43c0,1.27.48,1.9,1.45,1.9a1.46,1.46,0,0,0,1.16-.52,2,2,0,0,0,.45-1.35V189h1Z" fill="#1e1e1e"/>
      <path d="M254.73,195h-1v-3.42c0-1.28-.46-1.91-1.39-1.91a1.5,1.5,0,0,0-1.19.54,2,2,0,0,0-.47,1.37V195h-1v-6h1v1h0a2.16,2.16,0,0,1,2-1.14,1.81,1.81,0,0,1,1.5.64,2.79,2.79,0,0,1,.53,1.83Z" fill="#1e1e1e"/>
      <path d="M259.32,194.94a1.82,1.82,0,0,1-.9.19c-1.05,0-1.57-.59-1.57-1.76v-3.55h-1V189h1v-1.46l1-.32V189h1.51v.82h-1.51v3.38a1.45,1.45,0,0,0,.2.86.84.84,0,0,0,.68.26,1.05,1.05,0,0,0,.63-.2Z" fill="#1e1e1e"/>
      <path d="M261.09,187.48a.62.62,0,0,1-.44-.18.59.59,0,0,1-.18-.44.61.61,0,0,1,.18-.45.62.62,0,0,1,.44-.18.61.61,0,0,1,.45.18.58.58,0,0,1,.19.45.56.56,0,0,1-.19.43A.58.58,0,0,1,261.09,187.48Zm.47,7.52h-1v-6h1Z" fill="#1e1e1e"/>
      <path d="M272,195h-1v-3.45a2.65,2.65,0,0,0-.31-1.44,1.19,1.19,0,0,0-1-.44,1.28,1.28,0,0,0-1,.56,2.14,2.14,0,0,0-.43,1.35V195h-1v-3.56c0-1.18-.46-1.77-1.37-1.77a1.24,1.24,0,0,0-1,.53,2.2,2.2,0,0,0-.41,1.38V195h-1v-6h1V190h0a2,2,0,0,1,1.87-1.09,1.71,1.71,0,0,1,1.69,1.24,2.14,2.14,0,0,1,2-1.24c1.32,0,2,.81,2,2.44Z" fill="#1e1e1e"/>
      <path d="M278.67,192.24h-4.24a2.3,2.3,0,0,0,.54,1.55,1.87,1.87,0,0,0,1.42.54,2.93,2.93,0,0,0,1.86-.67v.91a3.5,3.5,0,0,1-2.09.57,2.52,2.52,0,0,1-2-.82,3.36,3.36,0,0,1-.73-2.3,3.29,3.29,0,0,1,.8-2.28,2.53,2.53,0,0,1,2-.88,2.25,2.25,0,0,1,1.82.76,3.18,3.18,0,0,1,.65,2.12Zm-1-.81a2,2,0,0,0-.4-1.3,1.36,1.36,0,0,0-1.1-.46,1.55,1.55,0,0,0-1.15.48,2.25,2.25,0,0,0-.59,1.28Z" fill="#1e1e1e"/>
    </g>
    <g>
      <path d="M158,227a3.7,3.7,0,0,1-2.86-1.17,4.42,4.42,0,0,1-1.07-3.07,4.61,4.61,0,0,1,1.09-3.23,3.82,3.82,0,0,1,3-1.21,3.6,3.6,0,0,1,2.8,1.17,4.38,4.38,0,0,1,1.06,3.07,4.63,4.63,0,0,1-1.09,3.25A3.73,3.73,0,0,1,158,227Zm.08-7.79a2.73,2.73,0,0,0-2.16,1,3.67,3.67,0,0,0-.82,2.5,3.75,3.75,0,0,0,.8,2.5,2.64,2.64,0,0,0,2.1.95,2.75,2.75,0,0,0,2.18-.9,3.68,3.68,0,0,0,.8-2.53,3.87,3.87,0,0,0-.77-2.57A2.65,2.65,0,0,0,158.08,219.23Z" fill="#1e1e1e"/>
      <path d="M170.44,226.88h-1.21l-4.32-6.69a2.94,2.94,0,0,1-.27-.53h0a8.6,8.6,0,0,1,.05,1.15v6.07h-1v-8.4h1.27l4.21,6.59c.18.28.29.46.34.56h0a8.58,8.58,0,0,1-.06-1.23v-5.92h1Z" fill="#1e1e1e"/>
      <path d="M179.42,226.88h-1.21l-4.33-6.69a2.94,2.94,0,0,1-.27-.53h0a8.6,8.6,0,0,1,0,1.15v6.07h-1v-8.4h1.28l4.21,6.59c.17.28.29.46.34.56h0a8.58,8.58,0,0,1-.06-1.23v-5.92h1Z" fill="#1e1e1e"/>
      <path d="M187.42,226.88h-1.2l-1.94-3.21c-.05-.1-.12-.24-.19-.42h0l-.2.42-2,3.21h-1.21l2.81-4.22-2.59-4.18h1.21l1.72,3a5.35,5.35,0,0,1,.29.59h0a4.56,4.56,0,0,1,.33-.61l1.78-2.93h1.13l-2.64,4.17Z" fill="#1e1e1e"/>
      <path d="M200.55,226.88h-1v-5.63c0-.45,0-1,.08-1.64h0a5.64,5.64,0,0,1-.25.82l-2.87,6.45H196l-2.87-6.41a5.3,5.3,0,0,1-.25-.86h0c0,.34,0,.89,0,1.65v5.62h-1v-8.4h1.3l2.58,5.86a7.92,7.92,0,0,1,.39,1h0c.17-.46.31-.81.41-1l2.63-5.84h1.23Z" fill="#1e1e1e"/>
      <path d="M205.14,227a2.79,2.79,0,0,1-2.13-.84,3.1,3.1,0,0,1-.79-2.23,3.26,3.26,0,0,1,.83-2.36,3,3,0,0,1,2.23-.85,2.69,2.69,0,0,1,2.09.83,3.23,3.23,0,0,1,.76,2.29,3.19,3.19,0,0,1-.82,2.3A2.81,2.81,0,0,1,205.14,227Zm.07-5.47a1.84,1.84,0,0,0-1.47.63,2.59,2.59,0,0,0-.54,1.74,2.46,2.46,0,0,0,.55,1.68,1.85,1.85,0,0,0,1.46.61,1.75,1.75,0,0,0,1.43-.6,2.63,2.63,0,0,0,.5-1.72,2.68,2.68,0,0,0-.5-1.73A1.73,1.73,0,0,0,205.21,221.55Z" fill="#1e1e1e"/>
      <path d="M214.78,226.88h-1v-1h0a2.21,2.21,0,0,1-2.06,1.16,2.25,2.25,0,0,1-1.81-.8,3.33,3.33,0,0,1-.68-2.2,3.59,3.59,0,0,1,.75-2.38,2.48,2.48,0,0,1,2-.9,2,2,0,0,1,1.8,1h0V218h1Zm-1-2.71v-.88a1.74,1.74,0,0,0-.48-1.24,1.64,1.64,0,0,0-1.22-.5,1.67,1.67,0,0,0-1.38.65,2.79,2.79,0,0,0-.5,1.78,2.53,2.53,0,0,0,.48,1.63,1.57,1.57,0,0,0,1.3.6,1.63,1.63,0,0,0,1.3-.58A2.16,2.16,0,0,0,213.82,224.17Z" fill="#1e1e1e"/>
      <path d="M221.55,224.12h-4.24a2.28,2.28,0,0,0,.54,1.55,1.88,1.88,0,0,0,1.42.54,2.94,2.94,0,0,0,1.86-.66v.9A3.47,3.47,0,0,1,219,227a2.56,2.56,0,0,1-2-.81,3.39,3.39,0,0,1-.72-2.3,3.29,3.29,0,0,1,.79-2.29,2.58,2.58,0,0,1,2-.88,2.29,2.29,0,0,1,1.83.76,3.25,3.25,0,0,1,.64,2.12Zm-1-.81a2,2,0,0,0-.41-1.3,1.38,1.38,0,0,0-1.09-.46,1.54,1.54,0,0,0-1.16.49,2.15,2.15,0,0,0-.58,1.27Z" fill="#1e1e1e"/>
      <path d="M224,226.88h-1V218h1Z" fill="#1e1e1e"/>
      <path d="M230.31,226.88h-1v-8.4h1Z" fill="#1e1e1e"/>
      <path d="M237.37,226.88h-1v-3.42c0-1.27-.47-1.91-1.4-1.91a1.52,1.52,0,0,0-1.19.54,2,2,0,0,0-.47,1.37v3.42h-1v-6h1v1h0a2.17,2.17,0,0,1,2-1.14,1.83,1.83,0,0,1,1.51.64,2.79,2.79,0,0,1,.52,1.83Z" fill="#1e1e1e"/>
      <path d="M242.15,218.84a1.34,1.34,0,0,0-.64-.15c-.68,0-1,.42-1,1.27v.92h1.41v.82H240.5v5.18h-1V221.7h-1v-.82h1v-1a2,2,0,0,1,.55-1.49,1.82,1.82,0,0,1,1.36-.55,1.94,1.94,0,0,1,.7.11Z" fill="#1e1e1e"/>
      <path d="M247.76,224.12h-4.24a2.28,2.28,0,0,0,.54,1.55,1.88,1.88,0,0,0,1.42.54,2.94,2.94,0,0,0,1.86-.66v.9a3.47,3.47,0,0,1-2.09.57,2.56,2.56,0,0,1-2-.81,3.39,3.39,0,0,1-.72-2.3,3.29,3.29,0,0,1,.79-2.29,2.58,2.58,0,0,1,2-.88,2.27,2.27,0,0,1,1.82.76,3.2,3.2,0,0,1,.65,2.12Zm-1-.81a1.91,1.91,0,0,0-.4-1.3,1.39,1.39,0,0,0-1.1-.46,1.54,1.54,0,0,0-1.15.49,2.22,2.22,0,0,0-.59,1.27Z" fill="#1e1e1e"/>
      <path d="M252.34,221.86a1.18,1.18,0,0,0-.73-.2,1.22,1.22,0,0,0-1,.58,2.67,2.67,0,0,0-.42,1.58v3.06h-1v-6h1v1.24h0a2.08,2.08,0,0,1,.62-1,1.47,1.47,0,0,1,1-.35,1.44,1.44,0,0,1,.57.08Z" fill="#1e1e1e"/>
      <path d="M258.21,224.12H254a2.28,2.28,0,0,0,.54,1.55,1.87,1.87,0,0,0,1.42.54,3,3,0,0,0,1.86-.66v.9a3.5,3.5,0,0,1-2.09.57,2.54,2.54,0,0,1-2-.81,3.39,3.39,0,0,1-.73-2.3,3.29,3.29,0,0,1,.8-2.29,2.56,2.56,0,0,1,2-.88,2.28,2.28,0,0,1,1.82.76,3.2,3.2,0,0,1,.65,2.12Zm-1-.81a2,2,0,0,0-.4-1.3,1.39,1.39,0,0,0-1.1-.46,1.52,1.52,0,0,0-1.15.49,2.22,2.22,0,0,0-.59,1.27Z" fill="#1e1e1e"/>
      <path d="M264.64,226.88h-1v-3.42c0-1.27-.47-1.91-1.4-1.91a1.52,1.52,0,0,0-1.19.54,2,2,0,0,0-.47,1.37v3.42h-1v-6h1v1h0a2.17,2.17,0,0,1,2-1.14,1.83,1.83,0,0,1,1.51.64,2.79,2.79,0,0,1,.52,1.83Z" fill="#1e1e1e"/>
      <path d="M270.54,226.61a3.19,3.19,0,0,1-1.64.41,2.68,2.68,0,0,1-2.07-.83A3,3,0,0,1,266,224a3.32,3.32,0,0,1,.85-2.38,3,3,0,0,1,2.27-.9,3.09,3.09,0,0,1,1.39.3v1a2.45,2.45,0,0,0-1.43-.47,2,2,0,0,0-1.51.66,2.52,2.52,0,0,0-.59,1.73,2.41,2.41,0,0,0,.56,1.67,1.91,1.91,0,0,0,1.48.6,2.39,2.39,0,0,0,1.48-.52Z" fill="#1e1e1e"/>
      <path d="M276.82,224.12h-4.24a2.19,2.19,0,0,0,.54,1.55,1.85,1.85,0,0,0,1.42.54,3,3,0,0,0,1.86-.66v.9a3.52,3.52,0,0,1-2.09.57,2.54,2.54,0,0,1-2-.81,3.39,3.39,0,0,1-.73-2.3,3.29,3.29,0,0,1,.8-2.29,2.56,2.56,0,0,1,2-.88,2.28,2.28,0,0,1,1.82.76,3.2,3.2,0,0,1,.65,2.12Zm-1-.81a2,2,0,0,0-.4-1.3,1.39,1.39,0,0,0-1.1-.46,1.52,1.52,0,0,0-1.15.49,2.22,2.22,0,0,0-.59,1.27Z" fill="#1e1e1e"/>
      <path d="M286.14,226.88h-4.46v-8.4H286v.89h-3.28v2.8h3v.88h-3V226h3.47Z" fill="#1e1e1e"/>
      <path d="M292.61,226.88h-1v-3.42c0-1.27-.47-1.91-1.4-1.91a1.5,1.5,0,0,0-1.19.54,2,2,0,0,0-.47,1.37v3.42h-1v-6h1v1h0a2.16,2.16,0,0,1,2-1.14,1.79,1.79,0,0,1,1.5.64,2.79,2.79,0,0,1,.53,1.83Z" fill="#1e1e1e"/>
      <path d="M299.54,226.4q0,3.32-3.17,3.31a4.23,4.23,0,0,1-1.94-.42v-1a3.94,3.94,0,0,0,1.93.57c1.48,0,2.22-.79,2.22-2.36v-.65h0a2.43,2.43,0,0,1-3.86.34,3.16,3.16,0,0,1-.68-2.14,3.77,3.77,0,0,1,.73-2.44,2.46,2.46,0,0,1,2-.9,2,2,0,0,1,1.8,1h0v-.83h1Zm-1-2.23v-.88a1.7,1.7,0,0,0-.49-1.23,1.58,1.58,0,0,0-1.2-.51,1.66,1.66,0,0,0-1.39.65A2.85,2.85,0,0,0,295,224a2.48,2.48,0,0,0,.48,1.6,1.57,1.57,0,0,0,1.28.6,1.69,1.69,0,0,0,1.32-.57A2.12,2.12,0,0,0,298.58,224.17Z" fill="#1e1e1e"/>
      <path d="M302,219.36a.59.59,0,0,1-.44-.18.58.58,0,0,1-.19-.44.62.62,0,0,1,.19-.45.59.59,0,0,1,.44-.18.6.6,0,0,1,.44.18.58.58,0,0,1,.19.45.58.58,0,0,1-.19.44A.6.6,0,0,1,302,219.36Zm.46,7.52h-1v-6h1Z" fill="#1e1e1e"/>
      <path d="M309.37,226.88h-1v-3.42c0-1.27-.47-1.91-1.4-1.91a1.52,1.52,0,0,0-1.19.54,2,2,0,0,0-.47,1.37v3.42h-1v-6h1v1h0a2.17,2.17,0,0,1,2-1.14,1.83,1.83,0,0,1,1.51.64,2.79,2.79,0,0,1,.52,1.83Z" fill="#1e1e1e"/>
      <path d="M316,224.12h-4.23a2.19,2.19,0,0,0,.54,1.55,1.85,1.85,0,0,0,1.41.54,3,3,0,0,0,1.87-.66v.9a3.52,3.52,0,0,1-2.09.57,2.54,2.54,0,0,1-2-.81,3.85,3.85,0,0,1,.06-4.59,2.58,2.58,0,0,1,2-.88,2.28,2.28,0,0,1,1.82.76,3.19,3.19,0,0,1,.64,2.12Zm-1-.81a2,2,0,0,0-.4-1.3,1.4,1.4,0,0,0-1.1-.46,1.56,1.56,0,0,0-1.16.49,2.21,2.21,0,0,0-.58,1.27Z" fill="#1e1e1e"/>
    </g>
    <g>
      <path d="M346.45,128.53a4.92,4.92,0,0,1-2.32.49,3.72,3.72,0,0,1-2.87-1.15,4.26,4.26,0,0,1-1.08-3,4.47,4.47,0,0,1,1.21-3.26,4.11,4.11,0,0,1,3.08-1.24,5,5,0,0,1,2,.35v1a4.08,4.08,0,0,0-2-.5,3,3,0,0,0-2.35,1,3.62,3.62,0,0,0-.9,2.58,3.49,3.49,0,0,0,.84,2.45,2.89,2.89,0,0,0,2.21.91,4.2,4.2,0,0,0,2.19-.56Z" fill="#1e1e1e"/>
      <path d="M352.88,128.88h-1v-.95h0A2,2,0,0,1,350,129c-1.42,0-2.14-.85-2.14-2.55v-3.59h1v3.44c0,1.26.48,1.89,1.45,1.89a1.5,1.5,0,0,0,1.16-.51,2,2,0,0,0,.45-1.36v-3.46h1Z" fill="#1e1e1e"/>
      <path d="M354.46,128.67v-1a2.82,2.82,0,0,0,1.73.58q1.26,0,1.26-.84a.7.7,0,0,0-.11-.41,1,1,0,0,0-.29-.29,1.76,1.76,0,0,0-.43-.23l-.54-.22a5.16,5.16,0,0,1-.7-.32,2,2,0,0,1-.5-.36,1.29,1.29,0,0,1-.31-.46,1.57,1.57,0,0,1-.1-.6,1.44,1.44,0,0,1,.19-.75,1.7,1.7,0,0,1,.52-.55,2.71,2.71,0,0,1,.73-.33,3.49,3.49,0,0,1,.86-.11,3.41,3.41,0,0,1,1.39.27v1a2.78,2.78,0,0,0-1.52-.43,1.83,1.83,0,0,0-.49.06,1.06,1.06,0,0,0-.37.18.66.66,0,0,0-.24.26.69.69,0,0,0-.09.34.78.78,0,0,0,.34.68,2.11,2.11,0,0,0,.4.22l.53.22a6.85,6.85,0,0,1,.71.31,2.82,2.82,0,0,1,.54.36,1.45,1.45,0,0,1,.35.47,1.54,1.54,0,0,1,.12.63,1.5,1.5,0,0,1-.2.77,1.74,1.74,0,0,1-.53.55,2.43,2.43,0,0,1-.75.32,3.76,3.76,0,0,1-.9.1A3.49,3.49,0,0,1,354.46,128.67Z" fill="#1e1e1e"/>
      <path d="M362.7,128.82a1.82,1.82,0,0,1-.9.19c-1.05,0-1.58-.58-1.58-1.76V123.7h-1v-.82h1v-1.46l1-.31v1.77h1.52v.82h-1.52v3.38a1.41,1.41,0,0,0,.21.87.82.82,0,0,0,.68.25,1,1,0,0,0,.63-.2Z" fill="#1e1e1e"/>
      <path d="M366.49,129a2.79,2.79,0,0,1-2.13-.84,3.1,3.1,0,0,1-.79-2.23,3.26,3.26,0,0,1,.82-2.36,3,3,0,0,1,2.24-.85,2.69,2.69,0,0,1,2.09.83,3.27,3.27,0,0,1,.75,2.29,3.23,3.23,0,0,1-.81,2.3A2.81,2.81,0,0,1,366.49,129Zm.07-5.47a1.84,1.84,0,0,0-1.47.63,2.59,2.59,0,0,0-.54,1.74,2.41,2.41,0,0,0,.55,1.68,1.85,1.85,0,0,0,1.46.61,1.75,1.75,0,0,0,1.43-.6,2.63,2.63,0,0,0,.5-1.72,2.68,2.68,0,0,0-.5-1.73A1.73,1.73,0,0,0,366.56,123.55Z" fill="#1e1e1e"/>
      <path d="M379.53,128.88h-1v-3.44a2.52,2.52,0,0,0-.31-1.44,1.15,1.15,0,0,0-1-.45,1.3,1.3,0,0,0-1.05.56,2.16,2.16,0,0,0-.43,1.35v3.42h-1v-3.56c0-1.18-.46-1.77-1.37-1.77a1.27,1.27,0,0,0-1,.53,2.2,2.2,0,0,0-.41,1.38v3.42h-1v-6h1v1h0a2.06,2.06,0,0,1,1.87-1.09,1.77,1.77,0,0,1,1.07.34,1.81,1.81,0,0,1,.63.9,2.15,2.15,0,0,1,2-1.24c1.32,0,2,.82,2,2.45Z" fill="#1e1e1e"/>
      <path d="M327.51,142.22a3.69,3.69,0,0,1-2.86-1.17,4.38,4.38,0,0,1-1.08-3.07,4.62,4.62,0,0,1,1.1-3.23,3.8,3.8,0,0,1,3-1.21,3.59,3.59,0,0,1,2.8,1.17,4.38,4.38,0,0,1,1.07,3.07,4.68,4.68,0,0,1-1.09,3.25A3.75,3.75,0,0,1,327.51,142.22Zm.07-7.79a2.7,2.7,0,0,0-2.15,1,4.22,4.22,0,0,0,0,5,2.64,2.64,0,0,0,2.1,1,2.76,2.76,0,0,0,2.18-.9,3.73,3.73,0,0,0,.8-2.53,3.81,3.81,0,0,0-.78-2.57A2.62,2.62,0,0,0,327.58,134.43Z" fill="#1e1e1e"/>
      <path d="M334,141.22h0v3.62h-1v-8.76h1v1.06h0a2.26,2.26,0,0,1,2.07-1.2,2.19,2.19,0,0,1,1.81.81,3.35,3.35,0,0,1,.65,2.16,3.72,3.72,0,0,1-.73,2.41,2.46,2.46,0,0,1-2,.9A2,2,0,0,1,334,141.22Zm0-2.42v.83a1.77,1.77,0,0,0,.49,1.27,1.71,1.71,0,0,0,2.59-.15,3.09,3.09,0,0,0,.5-1.86,2.41,2.41,0,0,0-.47-1.57,1.52,1.52,0,0,0-1.25-.57,1.73,1.73,0,0,0-1.35.58A2.16,2.16,0,0,0,334,138.8Z" fill="#1e1e1e"/>
      <path d="M344.92,139.32h-4.24a2.28,2.28,0,0,0,.54,1.55,1.87,1.87,0,0,0,1.42.55,3,3,0,0,0,1.86-.67v.9a3.5,3.5,0,0,1-2.09.57,2.56,2.56,0,0,1-2-.81,3.39,3.39,0,0,1-.72-2.3,3.29,3.29,0,0,1,.79-2.29,2.58,2.58,0,0,1,2-.88,2.27,2.27,0,0,1,1.82.76,3.2,3.2,0,0,1,.65,2.12Zm-1-.81a1.91,1.91,0,0,0-.4-1.3,1.39,1.39,0,0,0-1.1-.46,1.54,1.54,0,0,0-1.15.49,2.22,2.22,0,0,0-.59,1.27Z" fill="#1e1e1e"/>
      <path d="M349.5,137.06a1.18,1.18,0,0,0-.73-.2,1.22,1.22,0,0,0-1,.58,2.67,2.67,0,0,0-.42,1.58v3.06h-1v-6h1v1.24h0a2.08,2.08,0,0,1,.62-1,1.47,1.47,0,0,1,.95-.35,1.44,1.44,0,0,1,.57.08Z" fill="#1e1e1e"/>
      <path d="M354.84,142.08h-1v-.93h0a2,2,0,0,1-1.84,1.07,2,2,0,0,1-1.41-.47,1.68,1.68,0,0,1-.5-1.26c0-1.12.66-1.77,2-2l1.8-.25c0-1-.42-1.53-1.24-1.53a3,3,0,0,0-2,.74v-1a3.76,3.76,0,0,1,2-.56c1.41,0,2.12.75,2.12,2.24Zm-1-3-1.45.2a2.3,2.3,0,0,0-1,.33,1,1,0,0,0-.34.84.93.93,0,0,0,.32.72,1.21,1.21,0,0,0,.83.28,1.52,1.52,0,0,0,1.18-.51,1.77,1.77,0,0,0,.47-1.26Z" fill="#1e1e1e"/>
      <path d="M359.43,142a1.76,1.76,0,0,1-.89.19c-1.06,0-1.58-.58-1.58-1.76V136.9h-1v-.82h1v-1.46l1-.31v1.77h1.51v.82h-1.51v3.38a1.41,1.41,0,0,0,.21.87.8.8,0,0,0,.67.25,1,1,0,0,0,.63-.2Z" fill="#1e1e1e"/>
      <path d="M363.22,142.22a2.79,2.79,0,0,1-2.12-.84,3.11,3.11,0,0,1-.8-2.23,3.26,3.26,0,0,1,.83-2.36,3,3,0,0,1,2.23-.85,2.7,2.7,0,0,1,2.1.83,3.27,3.27,0,0,1,.75,2.29,3.23,3.23,0,0,1-.81,2.3A2.83,2.83,0,0,1,363.22,142.22Zm.07-5.47a1.83,1.83,0,0,0-1.46.63,2.59,2.59,0,0,0-.54,1.74,2.46,2.46,0,0,0,.54,1.68,1.87,1.87,0,0,0,1.46.62,1.79,1.79,0,0,0,1.44-.61,2.63,2.63,0,0,0,.5-1.72,2.68,2.68,0,0,0-.5-1.73A1.76,1.76,0,0,0,363.29,136.75Z" fill="#1e1e1e"/>
      <path d="M370.88,137.06a1.2,1.2,0,0,0-.73-.2,1.25,1.25,0,0,0-1,.58,2.67,2.67,0,0,0-.41,1.58v3.06h-1v-6h1v1.24h0a2.17,2.17,0,0,1,.63-1,1.44,1.44,0,0,1,.94-.35,1.52,1.52,0,0,1,.58.08Z" fill="#1e1e1e"/>
      <path d="M381.84,142.08h-1.09l-.89-2.35h-3.57l-.83,2.35h-1.1l3.22-8.4h1Zm-2.3-3.24-1.32-3.58a2.44,2.44,0,0,1-.13-.56h0a2.45,2.45,0,0,1-.13.56l-1.31,3.58Z" fill="#1e1e1e"/>
      <path d="M384.06,138.91v3.17h-1v-8.4h2.31a3,3,0,0,1,2.09.66,2.31,2.31,0,0,1,.74,1.85,2.54,2.54,0,0,1-.82,2,3.18,3.18,0,0,1-2.22.76Zm0-4.34V138h1a2.33,2.33,0,0,0,1.56-.47,1.67,1.67,0,0,0,.53-1.31c0-1.11-.65-1.67-2-1.67Z" fill="#1e1e1e"/>
      <path d="M390.78,142.08h-1v-8.4h1Z" fill="#1e1e1e"/>
      <path d="M392.5,141.87v-1a2.82,2.82,0,0,0,1.72.59c.85,0,1.27-.29,1.27-.85a.78.78,0,0,0-.11-.41,1,1,0,0,0-.29-.29,2.18,2.18,0,0,0-.43-.23l-.54-.22a5.16,5.16,0,0,1-.7-.32,1.74,1.74,0,0,1-.5-.36,1.29,1.29,0,0,1-.31-.46,1.57,1.57,0,0,1-.1-.6,1.44,1.44,0,0,1,.19-.75,1.7,1.7,0,0,1,.52-.55,2.71,2.71,0,0,1,.73-.33,3.59,3.59,0,0,1,2.25.16v1a2.78,2.78,0,0,0-1.52-.43,1.83,1.83,0,0,0-.49.06,1,1,0,0,0-.37.18.66.66,0,0,0-.24.26.69.69,0,0,0-.09.34.78.78,0,0,0,.34.68,2.36,2.36,0,0,0,.39.22l.54.22a6.85,6.85,0,0,1,.71.31,2.82,2.82,0,0,1,.54.36,1.41,1.41,0,0,1,.34.47,1.54,1.54,0,0,1,.12.63,1.49,1.49,0,0,1-.19.77,1.74,1.74,0,0,1-.53.55,2.43,2.43,0,0,1-.75.32,3.82,3.82,0,0,1-.9.1A3.47,3.47,0,0,1,392.5,141.87Z" fill="#1e1e1e"/>
    </g>
    <g>
      <path d="M305.67,32.53a1.08,1.08,0,0,1-.76-.28.92.92,0,0,1-.3-.69.85.85,0,0,1,.31-.69,1.16,1.16,0,0,1,.78-.27,1.12,1.12,0,0,1,.78.27.94.94,0,0,1,0,1.39A1.16,1.16,0,0,1,305.67,32.53Z" fill="#fff"/>
      <path d="M315.84,32.38h-1.91l-3.46-5.28a5.76,5.76,0,0,1-.42-.69h0c0,.29.05.75.05,1.36v4.61h-1.79V24h2l3.34,5.12c.15.23.29.45.42.68h0a8.94,8.94,0,0,1-.05-1.15V24h1.79Z" fill="#fff"/>
      <path d="M322.8,32.38h-5V24h4.85v1.54h-2.95v1.87h2.74v1.54h-2.74v1.92h3.14Z" fill="#fff"/>
      <path d="M330.16,25.52h-2.4v6.86h-1.9V25.52h-2.38V24h6.68Z" fill="#fff"/>
      <path d="M340.62,32.08a5.46,5.46,0,0,1-2.4.45,4,4,0,0,1-3-1.14,4.14,4.14,0,0,1-1.11-3,4.45,4.45,0,0,1,1.24-3.27,4.39,4.39,0,0,1,3.24-1.25,5.94,5.94,0,0,1,2.07.31V26a3.71,3.71,0,0,0-1.92-.5,2.56,2.56,0,0,0-1.91.74,2.75,2.75,0,0,0-.73,2,2.69,2.69,0,0,0,.69,1.94,2.41,2.41,0,0,0,1.84.72,4,4,0,0,0,2-.53Z" fill="#fff"/>
      <path d="M344.76,32.53a3.24,3.24,0,0,1-2.36-.84,3,3,0,0,1-.85-2.28,3,3,0,0,1,.89-2.33,3.34,3.34,0,0,1,2.4-.84,3.2,3.2,0,0,1,2.35.84A3,3,0,0,1,348,29.3a3.15,3.15,0,0,1-.88,2.36A3.24,3.24,0,0,1,344.76,32.53Zm.05-4.88a1.21,1.21,0,0,0-1,.46,2,2,0,0,0-.36,1.27c0,1.16.46,1.73,1.39,1.73s1.33-.59,1.33-1.77S345.7,27.65,344.81,27.65Z" fill="#fff"/>
      <path d="M353.15,28.05a1.61,1.61,0,0,0-.78-.18,1.14,1.14,0,0,0-.94.44,1.93,1.93,0,0,0-.34,1.21v2.86h-1.85v-6h1.85V27.5h0a1.6,1.6,0,0,1,1.59-1.22,1.12,1.12,0,0,1,.45.07Z" fill="#fff"/>
      <path d="M359.36,29.91h-3.92c.07.87.62,1.31,1.65,1.31a3.24,3.24,0,0,0,1.74-.47v1.33a4.5,4.5,0,0,1-2.16.45,2.79,2.79,0,0,1-3.06-3.05,3.2,3.2,0,0,1,.87-2.37,2.9,2.9,0,0,1,2.13-.87,2.62,2.62,0,0,1,2,.78,3,3,0,0,1,.72,2.11Zm-1.72-1.14c0-.86-.35-1.29-1-1.29a1,1,0,0,0-.77.37,1.72,1.72,0,0,0-.4.92Z" fill="#fff"/>
      <path d="M307.71,45.58h-2.06l-.6-1.87h-3l-.59,1.87h-2.05l3.06-8.4h2.24Zm-3.1-3.32-.9-2.82a4.51,4.51,0,0,1-.14-.76h-.05a3,3,0,0,1-.14.73l-.92,2.85Z" fill="#fff"/>
      <path d="M310.45,44.89h0v3.45h-1.85V39.58h1.85v.91h0a2.18,2.18,0,0,1,1.93-1.05,2.14,2.14,0,0,1,1.8.8,3.42,3.42,0,0,1,.64,2.17,3.66,3.66,0,0,1-.75,2.41,2.4,2.4,0,0,1-2,.91A1.87,1.87,0,0,1,310.45,44.89Zm-.05-2.47v.49a1.52,1.52,0,0,0,.33,1,1.05,1.05,0,0,0,.86.39,1.12,1.12,0,0,0,1-.49,2.36,2.36,0,0,0,.35-1.38q0-1.59-1.23-1.59a1.16,1.16,0,0,0-.93.44A1.68,1.68,0,0,0,310.4,42.42Z" fill="#fff"/>
      <path d="M317.89,44.89h0v3.45H316V39.58h1.85v.91h0a2.18,2.18,0,0,1,1.93-1.05,2.14,2.14,0,0,1,1.8.8,3.42,3.42,0,0,1,.64,2.17,3.71,3.71,0,0,1-.74,2.41,2.43,2.43,0,0,1-2,.91A1.87,1.87,0,0,1,317.89,44.89Zm-.05-2.47v.49a1.52,1.52,0,0,0,.33,1,1.06,1.06,0,0,0,.86.39,1.12,1.12,0,0,0,1-.49,2.36,2.36,0,0,0,.35-1.38q0-1.59-1.23-1.59a1.16,1.16,0,0,0-.93.44A1.68,1.68,0,0,0,317.84,42.42Z" fill="#fff"/>
      <path d="M325.31,45.58h-1.85V36.7h1.85Z" fill="#fff"/>
      <path d="M327.81,38.63a1.1,1.1,0,0,1-.77-.27.92.92,0,0,1-.3-.69A.88.88,0,0,1,327,37a1.14,1.14,0,0,1,.77-.26,1.16,1.16,0,0,1,.77.26,1,1,0,0,1,0,1.37A1.11,1.11,0,0,1,327.81,38.63Zm.91,6.95h-1.85v-6h1.85Z" fill="#fff"/>
      <path d="M334.83,45.37a3.73,3.73,0,0,1-1.82.36,3,3,0,0,1-2.23-.84,2.9,2.9,0,0,1-.86-2.16,3.19,3.19,0,0,1,.92-2.41,3.38,3.38,0,0,1,2.45-.88,3.14,3.14,0,0,1,1.54.28v1.57a2.13,2.13,0,0,0-1.3-.44,1.71,1.71,0,0,0-1.26.47,1.75,1.75,0,0,0-.47,1.29,1.71,1.71,0,0,0,.45,1.25,1.62,1.62,0,0,0,1.22.45,2.47,2.47,0,0,0,1.36-.43Z" fill="#fff"/>
      <path d="M341,45.58h-1.75v-.86h0a2,2,0,0,1-1.78,1,1.9,1.9,0,0,1-1.38-.5,1.79,1.79,0,0,1-.5-1.32q0-1.74,2.07-2l1.63-.22c0-.66-.36-1-1.07-1a3.7,3.7,0,0,0-2,.63V39.94a4.67,4.67,0,0,1,1.06-.35,5.7,5.7,0,0,1,1.22-.15A2.27,2.27,0,0,1,341,42Zm-1.74-2.43v-.41l-1.09.14c-.6.08-.9.35-.9.82a.64.64,0,0,0,.22.51.8.8,0,0,0,.59.21,1.1,1.1,0,0,0,.85-.36A1.31,1.31,0,0,0,339.29,43.15Z" fill="#fff"/>
      <path d="M346.12,45.51a2.62,2.62,0,0,1-1.23.22,1.76,1.76,0,0,1-2-2V41h-1V39.58h1V38.29l1.84-.53v1.82h1.35V41h-1.35v2.42c0,.63.25.94.75.94a1.27,1.27,0,0,0,.6-.17Z" fill="#fff"/>
      <path d="M348.1,38.63a1.11,1.11,0,0,1-.77-.27.94.94,0,0,1-.29-.69.91.91,0,0,1,.29-.68,1.16,1.16,0,0,1,.77-.26,1.12,1.12,0,0,1,.77.26.93.93,0,0,1,0,1.37A1.08,1.08,0,0,1,348.1,38.63Zm.92,6.95h-1.85v-6H349Z" fill="#fff"/>
      <path d="M353.43,45.73a3.2,3.2,0,0,1-2.35-.84,3.47,3.47,0,0,1,0-4.61,3.35,3.35,0,0,1,2.41-.84,3.19,3.19,0,0,1,2.34.84,3,3,0,0,1,.85,2.22,3.15,3.15,0,0,1-.88,2.36A3.24,3.24,0,0,1,353.43,45.73Zm.05-4.88a1.21,1.21,0,0,0-1,.46,2,2,0,0,0-.36,1.27c0,1.16.46,1.73,1.39,1.73s1.33-.59,1.33-1.77S354.38,40.85,353.48,40.85Z" fill="#fff"/>
      <path d="M363.71,45.58h-1.85V42.25c0-.93-.33-1.4-1-1.4a1,1,0,0,0-.79.37,1.46,1.46,0,0,0-.31.94v3.42h-1.85v-6h1.85v1h0a2.11,2.11,0,0,1,1.92-1.09c1.33,0,2,.82,2,2.47Z" fill="#fff"/>
    </g>
    <g>
      <path d="M410.18,29.49v2.89h-1.89V24h3c2.12,0,3.18.89,3.18,2.68a2.58,2.58,0,0,1-.91,2.05,3.63,3.63,0,0,1-2.44.78Zm0-4.06v2.62h.75c1,0,1.51-.44,1.51-1.32s-.51-1.3-1.51-1.3Z" fill="#fff"/>
      <path d="M421.19,26.38l-2.44,6.48q-.87,2.34-2.64,2.34a3.46,3.46,0,0,1-1.11-.15V33.57a1.51,1.51,0,0,0,.8.22,1,1,0,0,0,1-.67l.31-.75-2.43-6h2.05L417.85,30a5,5,0,0,1,.16.81h0a5.81,5.81,0,0,1,.2-.8l1.13-3.66Z" fill="#fff"/>
      <path d="M425.59,32.31a2.7,2.7,0,0,1-1.24.22,1.77,1.77,0,0,1-2-2V27.75h-1V26.38h1V25.09l1.85-.53v1.82h1.35v1.37h-1.35v2.42c0,.63.25.94.74.94a1.31,1.31,0,0,0,.61-.17Z" fill="#fff"/>
      <path d="M432.39,32.38h-1.85V29q0-1.32-1-1.32a1,1,0,0,0-.79.37,1.4,1.4,0,0,0-.31.94v3.42h-1.85V23.5h1.85v3.77h0a2.11,2.11,0,0,1,1.85-1q2,0,2,2.46Z" fill="#fff"/>
      <path d="M436.71,32.53a3.2,3.2,0,0,1-2.35-.84,3,3,0,0,1-.86-2.28,3,3,0,0,1,.89-2.33,3.35,3.35,0,0,1,2.41-.84,3.19,3.19,0,0,1,2.34.84A3,3,0,0,1,440,29.3a3.15,3.15,0,0,1-.88,2.36A3.24,3.24,0,0,1,436.71,32.53Zm.05-4.88a1.21,1.21,0,0,0-1,.46,2,2,0,0,0-.36,1.27c0,1.16.46,1.73,1.39,1.73s1.33-.59,1.33-1.77S437.66,27.65,436.76,27.65Z" fill="#fff"/>
      <path d="M447,32.38h-1.85V29.05c0-.93-.33-1.4-1-1.4a1,1,0,0,0-.79.37A1.46,1.46,0,0,0,443,29v3.42h-1.85v-6H443v.95h0A2.11,2.11,0,0,1,445,26.24c1.33,0,2,.82,2,2.47Z" fill="#fff"/>
      <path d="M403.33,45.58h-2.06l-.6-1.87h-3l-.59,1.87h-2l3.06-8.4h2.24Zm-3.09-3.32-.9-2.82a3.12,3.12,0,0,1-.14-.76h-.05a3.06,3.06,0,0,1-.15.73l-.91,2.85Z" fill="#fff"/>
      <path d="M406.08,44.89h0v3.45H404.2V39.58h1.85v.91h0a2.35,2.35,0,0,1,3.72-.25,3.36,3.36,0,0,1,.64,2.17,3.71,3.71,0,0,1-.74,2.41,2.4,2.4,0,0,1-2,.91A1.85,1.85,0,0,1,406.08,44.89ZM406,42.42v.49a1.52,1.52,0,0,0,.33,1,1.08,1.08,0,0,0,.86.39,1.12,1.12,0,0,0,1-.49,2.29,2.29,0,0,0,.35-1.38q0-1.59-1.23-1.59a1.16,1.16,0,0,0-.93.44A1.68,1.68,0,0,0,406,42.42Z" fill="#fff"/>
      <path d="M413.52,44.89h0v3.45h-1.85V39.58h1.85v.91h0a2.36,2.36,0,0,1,3.73-.25,3.42,3.42,0,0,1,.63,2.17,3.71,3.71,0,0,1-.74,2.41,2.4,2.4,0,0,1-2,.91A1.87,1.87,0,0,1,413.52,44.89Zm-.06-2.47v.49a1.52,1.52,0,0,0,.33,1,1.08,1.08,0,0,0,.86.39,1.11,1.11,0,0,0,1-.49,2.29,2.29,0,0,0,.35-1.38q0-1.59-1.23-1.59a1.16,1.16,0,0,0-.93.44A1.68,1.68,0,0,0,413.46,42.42Z" fill="#fff"/>
      <path d="M420.93,45.58h-1.85V36.7h1.85Z" fill="#fff"/>
      <path d="M423.43,38.63a1.11,1.11,0,0,1-.77-.27.92.92,0,0,1-.3-.69.88.88,0,0,1,.3-.68,1.16,1.16,0,0,1,.77-.26,1.14,1.14,0,0,1,.77.26.93.93,0,0,1,0,1.37A1.1,1.1,0,0,1,423.43,38.63Zm.91,6.95h-1.85v-6h1.85Z" fill="#fff"/>
      <path d="M430.45,45.37a3.69,3.69,0,0,1-1.81.36,3.06,3.06,0,0,1-2.24-.84,2.89,2.89,0,0,1-.85-2.16,3.19,3.19,0,0,1,.91-2.41,3.39,3.39,0,0,1,2.46-.88,3.12,3.12,0,0,1,1.53.28v1.57a2.12,2.12,0,0,0-1.29-.44,1.71,1.71,0,0,0-1.27.47,2,2,0,0,0,0,2.54,1.66,1.66,0,0,0,1.23.45,2.42,2.42,0,0,0,1.35-.43Z" fill="#fff"/>
      <path d="M436.66,45.58H434.9v-.86h0a2,2,0,0,1-1.79,1,1.86,1.86,0,0,1-1.37-.5,1.75,1.75,0,0,1-.5-1.32q0-1.74,2.07-2l1.63-.22c0-.66-.36-1-1.07-1a3.65,3.65,0,0,0-2,.63V39.94a4.67,4.67,0,0,1,1.06-.35,5.56,5.56,0,0,1,1.22-.15A2.27,2.27,0,0,1,436.66,42Zm-1.74-2.43v-.41l-1.09.14c-.61.08-.91.35-.91.82a.67.67,0,0,0,.22.51.84.84,0,0,0,.6.21,1.11,1.11,0,0,0,.85-.36A1.31,1.31,0,0,0,434.92,43.15Z" fill="#fff"/>
      <path d="M441.75,45.51a2.7,2.7,0,0,1-1.24.22,1.77,1.77,0,0,1-2-2V41h-1V39.58h1V38.29l1.85-.53v1.82h1.35V41H440.4v2.42c0,.63.25.94.74.94a1.31,1.31,0,0,0,.61-.17Z" fill="#fff"/>
      <path d="M443.73,38.63a1.11,1.11,0,0,1-.77-.27.92.92,0,0,1-.3-.69A.88.88,0,0,1,443,37a1.27,1.27,0,0,1,1.54,0,1,1,0,0,1,0,1.37A1.11,1.11,0,0,1,443.73,38.63Zm.91,6.95h-1.85v-6h1.85Z" fill="#fff"/>
      <path d="M449.06,45.73a3.23,3.23,0,0,1-2.36-.84,3.47,3.47,0,0,1,0-4.61,3.38,3.38,0,0,1,2.41-.84,3.2,3.2,0,0,1,2.35.84,3,3,0,0,1,.84,2.22,3.18,3.18,0,0,1-.87,2.36A3.24,3.24,0,0,1,449.06,45.73Zm.05-4.88a1.21,1.21,0,0,0-1,.46,1.92,1.92,0,0,0-.37,1.27c0,1.16.47,1.73,1.4,1.73s1.33-.59,1.33-1.77S450,40.85,449.11,40.85Z" fill="#fff"/>
      <path d="M459.33,45.58h-1.84V42.25c0-.93-.34-1.4-1-1.4a1,1,0,0,0-.79.37,1.4,1.4,0,0,0-.31.94v3.42h-1.85v-6h1.85v1h0a2.12,2.12,0,0,1,1.93-1.09c1.33,0,2,.82,2,2.47Z" fill="#fff"/>
    </g>
  </g>
</svg>
