<?xml version="1.0" encoding="UTF-8" standalone="no"?>
<svg
   xmlns:dc="http://purl.org/dc/elements/1.1/"
   xmlns:cc="http://creativecommons.org/ns#"
   xmlns:rdf="http://www.w3.org/1999/02/22-rdf-syntax-ns#"
   xmlns:svg="http://www.w3.org/2000/svg"
   xmlns="http://www.w3.org/2000/svg"
   xmlns:sodipodi="http://sodipodi.sourceforge.net/DTD/sodipodi-0.dtd"
   xmlns:inkscape="http://www.inkscape.org/namespaces/inkscape"
   inkscape:version="1.0 (4035a4fb49, 2020-05-01)"
   sodipodi:docname="Re-Layered.svg"
   id="svg169"
   version="1.1"
   overflow="hidden"
   height="492"
   width="625">
  <metadata
     id="metadata173">
    <rdf:RDF>
      <cc:Work
         rdf:about="">
        <dc:format>image/svg+xml</dc:format>
        <dc:type
           rdf:resource="http://purl.org/dc/dcmitype/StillImage" />
      </cc:Work>
    </rdf:RDF>
  </metadata>
  <sodipodi:namedview
     inkscape:current-layer="svg169"
     inkscape:window-maximized="1"
     inkscape:window-y="-11"
     inkscape:window-x="-11"
     inkscape:cy="246"
     inkscape:cx="312.5"
     inkscape:zoom="1.4939024"
     showgrid="false"
     id="namedview171"
     inkscape:window-height="1410"
     inkscape:window-width="2256"
     inkscape:pageshadow="2"
     inkscape:pageopacity="0"
     guidetolerance="10"
     gridtolerance="10"
     objecttolerance="10"
     borderopacity="1"
     bordercolor="#666666"
     pagecolor="#ffffff" />
  <defs
     id="defs71">
    <clipPath
       id="clip0">
      <path
         id="path2"
         clip-rule="evenodd"
         fill-rule="evenodd"
         d="M35 173 660 173 660 665 35 665Z" />
    </clipPath>
    <linearGradient
       gradientTransform="translate(-35,-173)"
       id="fill1"
       spreadMethod="reflect"
       gradientUnits="userSpaceOnUse"
       y2="655.998"
       x2="577.855"
       y1="630.398"
       x1="577.855">
      <stop
         id="stop5"
         stop-color="#FFFFFF"
         offset="0" />
      <stop
         id="stop7"
         stop-color="#FFFFFF"
         offset="1" />
    </linearGradient>
    <linearGradient
       gradientTransform="translate(-35,-173)"
       id="fill2"
       spreadMethod="reflect"
       gradientUnits="userSpaceOnUse"
       y2="384.931"
       x2="448.602"
       y1="352.931"
       x1="448.602">
      <stop
         id="stop10"
         stop-color="#FFFFFF"
         offset="0" />
      <stop
         id="stop12"
         stop-color="#FFFFFF"
         offset="1" />
    </linearGradient>
    <linearGradient
       gradientTransform="translate(-35,-173)"
       id="fill3"
       spreadMethod="reflect"
       gradientUnits="userSpaceOnUse"
       y2="410.084"
       x2="393.859"
       y1="398.884"
       x1="393.859">
      <stop
         id="stop15"
         stop-color="#FFFFFF"
         offset="0" />
      <stop
         id="stop17"
         stop-color="#FFFFFF"
         offset="1" />
    </linearGradient>
    <linearGradient
       gradientTransform="translate(-35,-173)"
       id="fill4"
       spreadMethod="reflect"
       gradientUnits="userSpaceOnUse"
       y2="600.04"
       x2="398.742"
       y1="572.84"
       x1="398.742">
      <stop
         id="stop20"
         stop-color="#FFFFFF"
         offset="0" />
      <stop
         id="stop22"
         stop-color="#FFFFFF"
         offset="1" />
    </linearGradient>
    <linearGradient
       gradientTransform="translate(-35,-173)"
       id="fill5"
       spreadMethod="reflect"
       gradientUnits="userSpaceOnUse"
       y2="484.872"
       x2="404.546"
       y1="452.872"
       x1="404.546">
      <stop
         id="stop25"
         stop-color="#FFFFFF"
         offset="0" />
      <stop
         id="stop27"
         stop-color="#FFFFFF"
         offset="1" />
    </linearGradient>
    <linearGradient
       gradientTransform="translate(-35,-173)"
       id="fill6"
       spreadMethod="reflect"
       gradientUnits="userSpaceOnUse"
       y2="292.949"
       x2="396.251"
       y1="260.949"
       x1="396.251">
      <stop
         id="stop30"
         stop-color="#FFFFFF"
         offset="0" />
      <stop
         id="stop32"
         stop-color="#FFFFFF"
         offset="1" />
    </linearGradient>
    <linearGradient
       gradientTransform="translate(-35,-173)"
       id="fill7"
       spreadMethod="reflect"
       gradientUnits="userSpaceOnUse"
       y2="199.602"
       x2="395.185"
       y1="174.002"
       x1="395.185">
      <stop
         id="stop35"
         stop-color="#1A1A1A"
         offset="0" />
      <stop
         id="stop37"
         stop-color="#1A1A1A"
         offset="0.02917" />
      <stop
         id="stop39"
         stop-color="#1A1A1A"
         offset="0.3" />
      <stop
         id="stop41"
         stop-color="#1A1A1A"
         offset="1" />
    </linearGradient>
    <linearGradient
       gradientTransform="translate(-35,-173)"
       id="fill8"
       spreadMethod="reflect"
       gradientUnits="userSpaceOnUse"
       y2="198.938"
       x2="576.734"
       y1="173.338"
       x1="576.734">
      <stop
         id="stop44"
         stop-color="#1A1A1A"
         offset="0" />
      <stop
         id="stop46"
         stop-color="#1A1A1A"
         offset="0.02917" />
      <stop
         id="stop48"
         stop-color="#1A1A1A"
         offset="0.3" />
      <stop
         id="stop50"
         stop-color="#1A1A1A"
         offset="1" />
    </linearGradient>
    <linearGradient
       gradientTransform="translate(-35,-173)"
       id="fill9"
       spreadMethod="reflect"
       gradientUnits="userSpaceOnUse"
       y2="198.938"
       x2="576.734"
       y1="173.338"
       x1="576.734">
      <stop
         id="stop53"
         stop-color="#1A1A1A"
         offset="0" />
      <stop
         id="stop55"
         stop-color="#1A1A1A"
         offset="0.02917" />
      <stop
         id="stop57"
         stop-color="#1A1A1A"
         offset="0.3" />
      <stop
         id="stop59"
         stop-color="#1A1A1A"
         offset="1" />
    </linearGradient>
    <linearGradient
       gradientTransform="translate(-35,-173)"
       id="fill10"
       spreadMethod="reflect"
       gradientUnits="userSpaceOnUse"
       y2="198.938"
       x2="576.734"
       y1="173.338"
       x1="576.734">
      <stop
         id="stop62"
         stop-color="#1A1A1A"
         offset="0" />
      <stop
         id="stop64"
         stop-color="#1A1A1A"
         offset="0.02917" />
      <stop
         id="stop66"
         stop-color="#1A1A1A"
         offset="0.3" />
      <stop
         id="stop68"
         stop-color="#1A1A1A"
         offset="1" />
    </linearGradient>
  </defs>
  <path
     d="m 496.5,456.5 c 0,-3.866 3.134,-7 7,-7 h 80 c 3.866,0 7,3.134 7,7 v 28 c 0,3.866 -3.134,7 -7,7 h -80 c -3.866,0 -7,-3.134 -7,-7 z"
     stroke="#38a9bc"
     stroke-width="1.13333"
     stroke-linejoin="round"
     stroke-miterlimit="10"
     fill="#50e6ff"
     fill-rule="evenodd"
     id="path73" />
  <path
     d="m 539.588,465.252 v 6.03 h 1.805 c 1.189,0 2.097,-0.272 2.722,-0.816 0.626,-0.543 0.939,-1.31 0.939,-2.302 0,-1.941 -1.149,-2.912 -3.446,-2.912 z m 10.093,-1.558 h 1.723 v 8.88 c 0,3.014 1.271,4.522 3.814,4.522 2.454,0 3.681,-1.457 3.681,-4.369 v -9.033 h 1.723 v 8.757 c 0,4.128 -1.863,6.193 -5.588,6.193 -3.569,0 -5.353,-1.986 -5.353,-5.958 z m -11.815,0 h 4.04 c 1.572,0 2.79,0.382 3.655,1.148 0.865,0.766 1.297,1.846 1.297,3.24 0,1.395 -0.48,2.536 -1.44,3.425 -0.961,0.889 -2.258,1.333 -3.892,1.333 h -1.938 v 5.558 h -1.722 z m -6.458,-0.246 c 1.394,0 2.549,0.201 3.465,0.605 v 1.835 c -1.052,-0.588 -2.214,-0.882 -3.486,-0.882 -1.688,0 -3.057,0.564 -4.107,1.692 -1.049,1.128 -1.574,2.635 -1.574,4.522 0,1.791 0.491,3.218 1.472,4.281 0.981,1.063 2.268,1.595 3.86,1.595 1.477,0 2.755,-0.329 3.835,-0.985 v 1.672 c -1.087,0.574 -2.44,0.861 -4.06,0.861 -2.092,0 -3.767,-0.673 -5.025,-2.02 -1.257,-1.347 -1.886,-3.114 -1.886,-5.301 0,-2.352 0.707,-4.252 2.122,-5.702 1.415,-1.449 3.21,-2.173 5.384,-2.173 z"
     fill="url(#fill1)"
     fill-rule="evenodd"
     id="path75"
     style="fill:url(#fill1)" />
  <text
     fill="#000000"
     fill-opacity="0"
     font-family="Arial, Arial_MSFontService, sans-serif"
     font-size="15.1963px"
     x="523.90198"
     y="476.74402"
     id="text77">CPU</text>
  <path
     d="m 237.5,167.916 c 0,-2.439 1.977,-4.416 4.416,-4.416 h 344.168 c 2.439,0 4.416,1.977 4.416,4.416 v 76.168 c 0,2.439 -1.977,4.416 -4.416,4.416 H 241.916 c -2.439,0 -4.416,-1.977 -4.416,-4.416 z"
     stroke="#005a9f"
     stroke-width="1.13333"
     stroke-linejoin="round"
     stroke-miterlimit="10"
     fill="#d2d2d2"
     fill-rule="evenodd"
     id="path79" />
  <path
     d="m 498.051,193.934 c -1.02,0 -1.885,0.364 -2.597,1.094 -0.712,0.729 -1.152,1.683 -1.319,2.861 h 7.291 c -0.009,-1.248 -0.31,-2.22 -0.903,-2.914 -0.593,-0.694 -1.417,-1.041 -2.472,-1.041 z m -34.26,-1.503 h 2.162 v 13.5 h -2.162 z m -40.29,0 h 2.149 v 7.725 c 0,2.848 1.089,4.272 3.269,4.272 1.055,0 1.923,-0.389 2.604,-1.167 0.681,-0.778 1.022,-1.795 1.022,-3.052 v -7.778 h 2.162 v 13.5 h -2.162 v -2.136 h -0.053 c -0.897,1.635 -2.285,2.452 -4.166,2.452 -3.217,0 -4.825,-1.916 -4.825,-5.748 z m 74.589,-0.317 c 1.767,0 3.134,0.571 4.101,1.714 0.966,1.143 1.45,2.729 1.45,4.759 v 1.134 h -9.532 c 0.035,1.503 0.439,2.663 1.213,3.481 0.773,0.817 1.837,1.226 3.19,1.226 1.521,0 2.918,-0.501 4.193,-1.503 v 2.03 c -1.187,0.861 -2.756,1.292 -4.707,1.292 -1.907,0 -3.406,-0.613 -4.495,-1.839 -1.09,-1.226 -1.635,-2.951 -1.635,-5.175 0,-2.1 0.595,-3.812 1.786,-5.135 1.191,-1.322 2.67,-1.984 4.436,-1.984 z m -21.892,0 c 0.923,0 1.727,0.257 2.412,0.771 0.686,0.515 1.156,1.189 1.411,2.024 1.002,-1.863 2.496,-2.795 4.483,-2.795 2.97,0 4.456,1.833 4.456,5.498 v 8.319 h -2.163 v -7.752 c 0,-1.494 -0.23,-2.576 -0.692,-3.244 -0.461,-0.667 -1.237,-1.001 -2.327,-1.001 -0.922,0 -1.707,0.421 -2.353,1.265 -0.646,0.844 -0.969,1.855 -0.969,3.032 v 7.7 h -2.162 v -8.016 c 0,-2.654 -1.024,-3.981 -3.072,-3.981 -0.949,0 -1.731,0.397 -2.346,1.193 -0.616,0.795 -0.923,1.83 -0.923,3.104 v 7.7 h -2.162 v -13.5 h 2.162 v 2.135 h 0.053 c 0.958,-1.634 2.355,-2.452 4.192,-2.452 z m -30.763,0 c 1.477,0 2.606,0.477 3.388,1.431 0.783,0.953 1.174,2.331 1.174,4.133 v 8.253 h -2.162 v -7.7 c 0,-2.865 -1.046,-4.297 -3.138,-4.297 -1.081,0 -1.975,0.406 -2.683,1.219 -0.707,0.813 -1.061,1.839 -1.061,3.078 v 7.7 h -2.162 v -13.5 h 2.162 v 2.241 h 0.053 c 1.019,-1.705 2.496,-2.558 4.429,-2.558 z m -35.139,-3.085 v 6.856 h 3.005 c 0.554,0 1.066,-0.084 1.536,-0.251 0.471,-0.167 0.877,-0.406 1.22,-0.718 0.343,-0.312 0.611,-0.695 0.804,-1.147 0.193,-0.453 0.29,-0.96 0.29,-1.523 0,-1.011 -0.327,-1.8 -0.982,-2.366 -0.655,-0.567 -1.602,-0.851 -2.841,-0.851 z m -77.437,-0.316 c -1.986,0 -3.599,0.716 -4.838,2.149 -1.24,1.432 -1.859,3.313 -1.859,5.642 0,2.329 0.604,4.204 1.813,5.623 1.208,1.42 2.783,2.129 4.726,2.129 2.074,0 3.709,-0.676 4.904,-2.03 1.195,-1.354 1.793,-3.248 1.793,-5.682 0,-2.496 -0.58,-4.425 -1.74,-5.788 -1.16,-1.362 -2.76,-2.043 -4.799,-2.043 z m 124.793,-0.277 v 3.995 h 3.401 v 1.845 h -3.401 v 7.607 c 0,0.906 0.153,1.552 0.461,1.938 0.308,0.387 0.817,0.58 1.529,0.58 0.545,0 1.015,-0.149 1.411,-0.448 v 1.846 c -0.51,0.281 -1.182,0.422 -2.017,0.422 -2.364,0 -3.547,-1.319 -3.547,-3.955 v -7.99 h -2.32 v -1.845 h 2.32 v -3.296 z m -49.571,-1.411 h 5.642 c 0.826,0 1.589,0.104 2.288,0.31 0.698,0.207 1.305,0.521 1.819,0.943 0.514,0.422 0.916,0.947 1.206,1.575 0.29,0.629 0.435,1.365 0.435,2.208 0,0.66 -0.099,1.264 -0.296,1.813 -0.198,0.55 -0.479,1.04 -0.844,1.47 -0.365,0.431 -0.804,0.798 -1.318,1.101 -0.515,0.303 -1.092,0.538 -1.734,0.705 v 0.053 c 0.316,0.141 0.591,0.301 0.824,0.481 0.233,0.18 0.455,0.394 0.666,0.64 0.211,0.246 0.419,0.525 0.626,0.837 0.206,0.312 0.437,0.674 0.692,1.087 l 3.546,5.683 h -2.636 l -3.164,-5.3 c -0.29,-0.492 -0.572,-0.912 -0.844,-1.259 -0.273,-0.347 -0.552,-0.631 -0.837,-0.851 -0.286,-0.219 -0.593,-0.38 -0.923,-0.481 -0.33,-0.101 -0.701,-0.151 -1.114,-0.151 h -1.819 v 8.042 h -2.215 z m -24.635,0 h 2.716 l 3.863,6.645 c 0.254,0.439 0.479,0.879 0.672,1.318 h 0.053 c 0.281,-0.58 0.527,-1.037 0.738,-1.371 l 4.021,-6.592 h 2.544 l -5.945,9.374 6.025,9.532 h -2.703 l -4.351,-7.238 c -0.132,-0.22 -0.277,-0.532 -0.435,-0.936 h -0.053 c -0.087,0.202 -0.237,0.514 -0.448,0.936 l -4.482,7.238 h -2.716 l 6.328,-9.506 z m -18.365,0 h 2.874 l 9.466,14.832 c 0.395,0.615 0.65,1.037 0.764,1.265 h 0.053 c -0.088,-0.544 -0.132,-1.472 -0.132,-2.781 v -13.316 h 2.215 v 18.906 h -2.716 l -9.729,-15.069 c -0.246,-0.378 -0.449,-0.774 -0.607,-1.187 h -0.079 c 0.07,0.405 0.106,1.27 0.106,2.597 v 13.659 h -2.215 z m -20,0 h 2.874 l 9.466,14.832 c 0.395,0.615 0.65,1.037 0.764,1.265 h 0.053 c -0.088,-0.544 -0.132,-1.472 -0.132,-2.781 v -13.316 h 2.215 v 18.906 h -2.716 l -9.729,-15.069 c -0.246,-0.378 -0.449,-0.774 -0.607,-1.187 h -0.079 c 0.07,0.405 0.106,1.27 0.106,2.597 v 13.659 h -2.215 z m -12.064,-0.316 c 2.611,0 4.713,0.879 6.309,2.637 1.595,1.757 2.392,4.056 2.392,6.895 0,3.085 -0.817,5.524 -2.452,7.317 -1.634,1.793 -3.823,2.689 -6.565,2.689 -2.681,0 -4.828,-0.883 -6.44,-2.65 -1.613,-1.766 -2.42,-4.065 -2.42,-6.895 0,-3.041 0.822,-5.467 2.466,-7.277 1.643,-1.811 3.88,-2.716 6.71,-2.716 z m 131.881,-0.514 c 0.396,0 0.732,0.134 1.009,0.402 0.277,0.268 0.415,0.604 0.415,1.008 0,0.387 -0.138,0.717 -0.415,0.989 -0.277,0.273 -0.613,0.409 -1.009,0.409 -0.387,0 -0.716,-0.132 -0.989,-0.396 -0.272,-0.263 -0.408,-0.597 -0.408,-1.002 0,-0.404 0.136,-0.74 0.408,-1.008 0.273,-0.268 0.602,-0.402 0.989,-0.402 z"
     fill="url(#fill2)"
     fill-rule="evenodd"
     id="path81"
     style="fill:url(#fill2)" />
  <text
     fill="#000000"
     fill-opacity="0"
     font-family="Arial, Arial_MSFontService, sans-serif"
     font-size="20.0522px"
     x="323.841"
     y="203.73999"
     id="text83">ONNX Runtime</text>
  <path
     d="m 314.5,218.111 c 0,-0.89 0.721,-1.611 1.611,-1.611 h 85.779 c 0.889,0 1.61,0.721 1.61,1.611 v 27.779 c 0,0.889 -0.721,1.61 -1.61,1.61 h -85.779 c -0.89,0 -1.611,-0.721 -1.611,-1.61 z"
     stroke="#535353"
     stroke-width="1.13333"
     stroke-linejoin="round"
     stroke-miterlimit="10"
     fill="#7f7f7f"
     fill-rule="evenodd"
     id="path85" />
  <path
     d="m 348.675,230.885 c -0.34,0 -0.628,0.121 -0.866,0.364 -0.237,0.244 -0.383,0.561 -0.439,0.954 h 2.43 c -0.003,-0.416 -0.103,-0.74 -0.301,-0.971 -0.198,-0.232 -0.472,-0.347 -0.824,-0.347 z m -6.753,-0.501 h 0.72 v 4.5 h -0.72 z m 3.916,-0.079 c 0.187,0 0.331,0.02 0.43,0.061 v 0.747 c -0.126,-0.097 -0.307,-0.145 -0.545,-0.145 -0.307,0 -0.564,0.145 -0.771,0.435 -0.206,0.29 -0.31,0.686 -0.31,1.187 v 2.294 h -0.72 v -4.5 h 0.72 v 0.927 h 0.018 c 0.103,-0.316 0.259,-0.563 0.47,-0.741 0.211,-0.177 0.447,-0.265 0.708,-0.265 z m 8.114,-0.027 c 0.396,0 0.744,0.073 1.046,0.22 v 0.738 c -0.334,-0.234 -0.692,-0.351 -1.072,-0.351 -0.46,0 -0.838,0.164 -1.132,0.494 -0.294,0.33 -0.442,0.762 -0.442,1.299 0,0.527 0.139,0.943 0.416,1.248 0.277,0.304 0.648,0.457 1.114,0.457 0.392,0 0.761,-0.131 1.107,-0.391 v 0.685 c -0.346,0.208 -0.756,0.312 -1.23,0.312 -0.642,0 -1.16,-0.209 -1.554,-0.626 -0.394,-0.418 -0.591,-0.959 -0.591,-1.624 0,-0.741 0.213,-1.337 0.637,-1.786 0.425,-0.45 0.992,-0.675 1.701,-0.675 z m -5.264,0 c 0.589,0 1.045,0.191 1.367,0.571 0.322,0.381 0.483,0.91 0.483,1.587 v 0.378 h -3.177 c 0.012,0.501 0.147,0.888 0.404,1.16 0.258,0.272 0.613,0.409 1.064,0.409 0.507,0 0.973,-0.167 1.397,-0.501 v 0.676 c -0.395,0.288 -0.918,0.431 -1.568,0.431 -0.636,0 -1.136,-0.204 -1.499,-0.613 -0.363,-0.409 -0.545,-0.984 -0.545,-1.725 0,-0.7 0.199,-1.271 0.596,-1.711 0.397,-0.441 0.889,-0.662 1.478,-0.662 z m 31.069,-1.028 v 2.584 h 0.773 c 0.51,0 0.899,-0.117 1.167,-0.35 0.268,-0.232 0.402,-0.561 0.402,-0.986 0,-0.832 -0.492,-1.248 -1.477,-1.248 z m -44,0 v 4.966 h 0.94 c 0.826,0 1.469,-0.221 1.929,-0.664 0.46,-0.442 0.69,-1.069 0.69,-1.881 0,-1.614 -0.858,-2.421 -2.575,-2.421 z m 21.118,-0.198 v 1.332 h 1.134 v 0.615 h -1.134 v 2.536 c 0,0.301 0.052,0.517 0.154,0.646 0.103,0.128 0.273,0.193 0.51,0.193 0.182,0 0.338,-0.05 0.47,-0.15 v 0.616 c -0.17,0.093 -0.394,0.14 -0.672,0.14 -0.788,0 -1.182,-0.439 -1.182,-1.318 v -2.663 h -0.774 v -0.615 h 0.774 v -1.099 z m 22.143,-0.47 h 1.732 c 0.674,0 1.196,0.164 1.566,0.492 0.371,0.328 0.556,0.791 0.556,1.389 0,0.597 -0.205,1.087 -0.617,1.468 -0.412,0.38 -0.968,0.571 -1.668,0.571 h -0.83 v 2.382 h -0.739 z m -4,0 h 3.2 v 0.668 h -2.461 v 2.096 h 2.276 v 0.664 h -2.276 v 2.206 h 2.601 v 0.668 h -3.34 z m -7,0 h 0.739 v 5.634 h 2.531 v 0.668 h -3.27 z m -9,0 h 0.976 l 1.934,4.394 c 0.149,0.337 0.246,0.589 0.29,0.756 h 0.026 c 0.126,-0.345 0.227,-0.603 0.303,-0.773 l 1.973,-4.377 h 0.923 v 6.302 h -0.734 v -4.228 c 0,-0.334 0.021,-0.743 0.062,-1.226 h -0.018 c -0.07,0.284 -0.133,0.488 -0.189,0.611 l -2.153,4.843 h -0.36 l -2.149,-4.808 c -0.062,-0.141 -0.125,-0.356 -0.189,-0.646 h -0.018 c 0.024,0.252 0.035,0.664 0.035,1.235 v 4.219 h -0.712 z m -24,0 h 1.741 c 2.22,0 3.331,1.024 3.331,3.072 0,0.972 -0.309,1.754 -0.925,2.344 -0.617,0.591 -1.442,0.886 -2.477,0.886 h -1.67 z m 7.273,-0.277 c 0.132,0 0.244,0.045 0.336,0.134 0.092,0.089 0.138,0.202 0.138,0.336 0,0.129 -0.046,0.239 -0.138,0.33 -0.092,0.091 -0.204,0.136 -0.336,0.136 -0.129,0 -0.239,-0.044 -0.33,-0.132 -0.091,-0.088 -0.136,-0.199 -0.136,-0.334 0,-0.134 0.045,-0.247 0.136,-0.336 0.091,-0.089 0.201,-0.134 0.33,-0.134 z"
     fill="url(#fill3)"
     fill-rule="evenodd"
     id="path87"
     style="fill:url(#fill3)" />
  <text
     fill="#000000"
     fill-opacity="0"
     font-family="Arial, Arial_MSFontService, sans-serif"
     font-size="6.68408px"
     x="335.01801"
     y="234.15399"
     id="text89">DirectML EP</text>
  <path
     d="m 237.5,392.903 c 0,-2.984 2.419,-5.403 5.403,-5.403 h 238.194 c 2.984,0 5.403,2.419 5.403,5.403 v 93.194 c 0,2.984 -2.419,5.403 -5.403,5.403 H 242.903 c -2.984,0 -5.403,-2.419 -5.403,-5.403 z"
     stroke="#38a9bc"
     stroke-width="1.13333"
     stroke-linejoin="round"
     stroke-miterlimit="10"
     fill="#50e6ff"
     fill-rule="evenodd"
     id="path91" />
  <path
     d="m 243.5,448.834 c 0,-4.051 3.283,-7.334 7.334,-7.334 h 60.333 c 4.05,0 7.333,3.283 7.333,7.334 v 29.333 c 0,4.05 -3.283,7.333 -7.333,7.333 h -60.333 c -4.051,0 -7.334,-3.283 -7.334,-7.333 z"
     stroke="#50e6ff"
     stroke-linejoin="round"
     stroke-miterlimit="10"
     fill="#aaefff"
     fill-rule="evenodd"
     id="path93" />
  <text
     y="470"
     x="265.396"
     font-family="'Segoe UI', 'Segoe UI_MSFontService', sans-serif"
     font-weight="400"
     font-size="16px"
     id="text95">GPU</text>
  <path
     d="m 323.5,448.834 c 0,-4.051 3.283,-7.334 7.334,-7.334 h 60.333 c 4.05,0 7.333,3.283 7.333,7.334 v 29.333 c 0,4.05 -3.283,7.333 -7.333,7.333 h -60.333 c -4.051,0 -7.334,-3.283 -7.334,-7.333 z"
     stroke="#50e6ff"
     stroke-linejoin="round"
     stroke-miterlimit="10"
     fill="#aaefff"
     fill-rule="evenodd"
     id="path97" />
  <text
     y="470"
     x="345.94101"
     font-family="'Segoe UI', 'Segoe UI_MSFontService', sans-serif"
     font-weight="400"
     font-size="16px"
     id="text99">VPU</text>
  <path
     d="m 404.5,449.834 c 0,-4.051 3.283,-7.334 7.334,-7.334 h 60.333 c 4.05,0 7.333,3.283 7.333,7.334 v 29.333 c 0,4.05 -3.283,7.333 -7.333,7.333 h -60.333 c -4.051,0 -7.334,-3.283 -7.334,-7.333 z"
     stroke="#50e6ff"
     stroke-linejoin="round"
     stroke-miterlimit="10"
     fill="#aaefff"
     fill-rule="evenodd"
     id="path101" />
  <text
     y="470"
     x="427.41501"
     font-family="'Segoe UI', 'Segoe UI_MSFontService', sans-serif"
     font-weight="400"
     font-size="16px"
     id="text103">xPU</text>
  <path
     d="m 466.827,411.62 c -0.869,0 -1.606,0.311 -2.212,0.932 -0.607,0.622 -0.981,1.434 -1.123,2.438 h 6.21 c -0.007,-1.064 -0.264,-1.891 -0.769,-2.482 -0.506,-0.592 -1.208,-0.888 -2.106,-0.888 z m -12.764,0 c -1.123,0 -2.007,0.412 -2.651,1.236 -0.643,0.823 -0.965,1.961 -0.965,3.414 0,1.325 0.308,2.371 0.926,3.139 0.618,0.767 1.447,1.151 2.488,1.151 1.025,0 1.858,-0.371 2.498,-1.112 0.641,-0.741 0.961,-1.677 0.961,-2.808 v -1.695 c 0,-0.929 -0.307,-1.715 -0.921,-2.359 -0.614,-0.644 -1.393,-0.966 -2.336,-0.966 z m -12.776,0 c -1.183,0 -2.118,0.403 -2.807,1.208 -0.689,0.805 -1.033,1.914 -1.033,3.329 0,1.363 0.348,2.437 1.044,3.224 0.696,0.786 1.628,1.179 2.796,1.179 1.191,0 2.106,-0.386 2.746,-1.157 0.64,-0.771 0.96,-1.868 0.96,-3.29 0,-1.438 -0.32,-2.546 -0.96,-3.325 -0.64,-0.778 -1.555,-1.168 -2.746,-1.168 z m -47.46,0 c -0.869,0 -1.606,0.311 -2.212,0.932 -0.607,0.622 -0.981,1.434 -1.123,2.438 h 6.21 c -0.008,-1.064 -0.264,-1.891 -0.769,-2.482 -0.506,-0.592 -1.208,-0.888 -2.106,-0.888 z m -58,0 c -0.869,0 -1.606,0.311 -2.212,0.932 -0.607,0.622 -0.981,1.434 -1.123,2.438 h 6.21 c -0.007,-1.064 -0.264,-1.891 -0.769,-2.482 -0.506,-0.592 -1.208,-0.888 -2.106,-0.888 z m -32.079,0 c -1.071,0 -1.932,0.373 -2.583,1.118 -0.651,0.745 -0.977,1.679 -0.977,2.802 v 1.606 c 0,0.951 0.309,1.757 0.926,2.42 0.618,0.663 1.402,0.994 2.353,0.994 1.116,0 1.99,-0.427 2.622,-1.28 0.633,-0.854 0.949,-2.041 0.949,-3.561 0,-1.28 -0.295,-2.283 -0.887,-3.009 -0.591,-0.727 -1.392,-1.09 -2.403,-1.09 z m -33.461,0 c -1.183,0 -2.118,0.403 -2.807,1.208 -0.689,0.805 -1.033,1.914 -1.033,3.329 0,1.363 0.348,2.437 1.044,3.224 0.696,0.786 1.628,1.179 2.796,1.179 1.191,0 2.106,-0.386 2.746,-1.157 0.64,-0.771 0.96,-1.868 0.96,-3.29 0,-1.438 -0.32,-2.546 -0.96,-3.325 -0.64,-0.778 -1.555,-1.168 -2.746,-1.168 z m 107.352,-1.28 h 2.021 l 2.92,8.356 c 0.218,0.614 0.352,1.149 0.405,1.606 h 0.045 c 0.074,-0.577 0.194,-1.097 0.359,-1.562 l 3.055,-8.4 h 1.943 l -4.582,11.5 h -1.809 z m -4.293,0 h 1.842 v 11.5 h -1.842 z m -62.247,0 h 1.831 v 6.581 c 0,2.426 0.928,3.639 2.785,3.639 0.898,0 1.637,-0.331 2.218,-0.994 0.58,-0.663 0.87,-1.529 0.87,-2.6 v -6.626 h 1.842 v 11.5 h -1.842 v -1.819 h -0.045 c -0.764,1.392 -1.946,2.089 -3.549,2.089 -2.74,0 -4.11,-1.633 -4.11,-4.897 z m 95.144,-0.202 c 0.479,0 0.846,0.052 1.1,0.157 v 1.909 c -0.322,-0.247 -0.786,-0.37 -1.392,-0.37 -0.787,0 -1.444,0.37 -1.971,1.112 -0.528,0.741 -0.792,1.752 -0.792,3.032 v 5.862 h -1.842 v -11.5 h 1.842 v 2.37 h 0.045 c 0.262,-0.809 0.662,-1.44 1.201,-1.893 0.539,-0.453 1.142,-0.679 1.809,-0.679 z m -36,0 c 0.479,0 0.846,0.052 1.1,0.157 v 1.909 c -0.322,-0.247 -0.786,-0.37 -1.392,-0.37 -0.787,0 -1.444,0.37 -1.971,1.112 -0.528,0.741 -0.792,1.752 -0.792,3.032 v 5.862 h -1.842 v -11.5 h 1.842 v 2.37 h 0.045 c 0.262,-0.809 0.662,-1.44 1.201,-1.893 0.539,-0.453 1.142,-0.679 1.809,-0.679 z m 96.618,-0.067 c 1.505,0 2.669,0.486 3.492,1.46 0.824,0.973 1.236,2.324 1.236,4.054 v 0.966 h -8.12 c 0.03,1.28 0.374,2.268 1.033,2.964 0.659,0.697 1.565,1.045 2.718,1.045 1.295,0 2.486,-0.427 3.571,-1.28 v 1.729 c -1.01,0.734 -2.347,1.101 -4.009,1.101 -1.625,0 -2.901,-0.523 -3.83,-1.567 -0.928,-1.044 -1.392,-2.514 -1.392,-4.408 0,-1.789 0.507,-3.247 1.522,-4.374 1.014,-1.127 2.274,-1.69 3.779,-1.69 z m -25.439,0 c 1.715,0 3.053,0.527 4.015,1.583 0.962,1.056 1.443,2.519 1.443,4.391 0,1.834 -0.518,3.304 -1.555,4.408 -1.037,1.104 -2.428,1.657 -4.172,1.657 -1.7,0 -3.057,-0.538 -4.071,-1.612 -1.015,-1.074 -1.522,-2.499 -1.522,-4.273 0,-1.932 0.528,-3.44 1.583,-4.526 1.056,-1.086 2.482,-1.628 4.279,-1.628 z m -47.561,0 c 1.505,0 2.669,0.486 3.492,1.46 0.824,0.973 1.236,2.324 1.236,4.054 v 0.966 h -8.12 c 0.03,1.28 0.374,2.268 1.033,2.964 0.659,0.697 1.565,1.045 2.718,1.045 1.295,0 2.486,-0.427 3.571,-1.28 v 1.729 c -1.01,0.734 -2.347,1.101 -4.009,1.101 -1.625,0 -2.901,-0.523 -3.83,-1.567 -0.928,-1.044 -1.392,-2.514 -1.392,-4.408 0,-1.789 0.507,-3.247 1.522,-4.374 1.014,-1.127 2.274,-1.69 3.779,-1.69 z m -58,0 c 1.505,0 2.669,0.486 3.492,1.46 0.824,0.973 1.236,2.324 1.236,4.054 v 0.966 h -8.12 c 0.03,1.28 0.374,2.268 1.033,2.964 0.659,0.697 1.565,1.045 2.718,1.045 1.295,0 2.486,-0.427 3.571,-1.28 v 1.729 c -1.01,0.734 -2.347,1.101 -4.009,1.101 -1.625,0 -2.901,-0.523 -3.83,-1.567 -0.928,-1.044 -1.392,-2.514 -1.392,-4.408 0,-1.789 0.507,-3.247 1.522,-4.374 1.014,-1.127 2.274,-1.69 3.779,-1.69 z m -31.653,0 c 1.483,0 2.64,0.514 3.471,1.544 0.831,1.029 1.246,2.409 1.246,4.138 0,1.924 -0.468,3.465 -1.404,4.622 -0.936,1.156 -2.216,1.735 -3.84,1.735 -1.49,0 -2.64,-0.644 -3.448,-1.932 h -0.045 v 6.952 h -1.842 v -16.79 h 1.842 v 2.022 h 0.045 c 0.906,-1.528 2.231,-2.291 3.975,-2.291 z m -20.404,0 c 0.786,0 1.471,0.219 2.055,0.657 0.584,0.438 0.985,1.012 1.202,1.723 0.853,-1.587 2.126,-2.38 3.818,-2.38 2.531,0 3.796,1.561 3.796,4.683 v 7.086 h -1.842 v -6.603 c 0,-1.273 -0.196,-2.194 -0.589,-2.763 -0.393,-0.569 -1.054,-0.854 -1.982,-0.854 -0.787,0 -1.455,0.36 -2.005,1.078 -0.55,0.719 -0.826,1.58 -0.826,2.583 v 6.559 h -1.841 v -6.828 c 0,-2.261 -0.873,-3.392 -2.617,-3.392 -0.809,0 -1.475,0.339 -1.999,1.017 -0.524,0.677 -0.786,1.559 -0.786,2.644 v 6.559 h -1.842 v -11.5 h 1.842 v 1.819 h 0.045 c 0.816,-1.392 2.006,-2.088 3.571,-2.088 z m -13.382,0 c 1.715,0 3.053,0.527 4.015,1.583 0.962,1.056 1.443,2.519 1.443,4.391 0,1.834 -0.518,3.304 -1.555,4.408 -1.037,1.104 -2.428,1.657 -4.172,1.657 -1.7,0 -3.057,-0.538 -4.071,-1.612 -1.015,-1.074 -1.522,-2.499 -1.522,-4.273 0,-1.932 0.528,-3.44 1.583,-4.526 1.056,-1.086 2.482,-1.628 4.279,-1.628 z m 81.058,-2.628 v 12.69 h 2.403 c 2.111,0 3.755,-0.565 4.93,-1.696 1.176,-1.13 1.764,-2.732 1.764,-4.806 0,-4.126 -2.194,-6.188 -6.582,-6.188 z m -24.697,-0.506 v 3.403 h 2.898 v 1.572 h -2.898 v 6.48 c 0,0.772 0.131,1.322 0.393,1.651 0.262,0.33 0.696,0.494 1.303,0.494 0.464,0 0.865,-0.127 1.202,-0.381 v 1.572 c -0.435,0.239 -1.007,0.359 -1.719,0.359 -2.014,0 -3.021,-1.123 -3.021,-3.369 v -6.806 h -1.976 v -1.572 h 1.976 v -2.808 z m 88.81,-1.201 h 2.493 l 4.942,11.23 c 0.381,0.861 0.629,1.505 0.741,1.932 h 0.067 c 0.322,-0.884 0.581,-1.543 0.775,-1.977 l 5.043,-11.185 h 2.358 v 16.104 h -1.875 v -10.804 c 0,-0.853 0.052,-1.898 0.157,-3.133 h -0.045 c -0.18,0.726 -0.341,1.247 -0.483,1.561 l -5.503,12.376 h -0.921 l -5.492,-12.286 c -0.157,-0.359 -0.318,-0.91 -0.482,-1.651 h -0.045 c 0.059,0.644 0.089,1.696 0.089,3.156 v 10.781 h -1.819 z m -66,0 h 4.447 c 5.676,0 8.513,2.616 8.513,7.85 0,2.485 -0.788,4.483 -2.364,5.991 -1.576,1.509 -3.685,2.263 -6.328,2.263 h -4.268 z m -90.835,-0.27 c 1.527,0 2.793,0.221 3.796,0.663 v 2.01 c -1.153,-0.644 -2.426,-0.966 -3.818,-0.966 -1.85,0 -3.349,0.618 -4.498,1.853 -1.149,1.235 -1.724,2.886 -1.724,4.953 0,1.961 0.537,3.524 1.612,4.688 1.074,1.165 2.483,1.747 4.228,1.747 1.617,0 3.017,-0.36 4.2,-1.078 v 1.83 c -1.19,0.629 -2.673,0.944 -4.447,0.944 -2.291,0 -4.126,-0.738 -5.503,-2.213 -1.378,-1.475 -2.067,-3.41 -2.067,-5.806 0,-2.575 0.775,-4.657 2.325,-6.244 1.55,-1.587 3.515,-2.381 5.896,-2.381 z m 115.531,-0.438 c 0.337,0 0.624,0.114 0.86,0.343 0.235,0.228 0.353,0.514 0.353,0.859 0,0.329 -0.118,0.61 -0.353,0.842 -0.236,0.232 -0.523,0.348 -0.86,0.348 -0.329,0 -0.61,-0.112 -0.842,-0.337 -0.232,-0.224 -0.348,-0.509 -0.348,-0.853 0,-0.345 0.116,-0.631 0.348,-0.859 0.232,-0.229 0.513,-0.343 0.842,-0.343 z m 100.057,-0.213 h 1.842 v 17.025 h -1.842 z m -17.026,0 h 1.841 v 17.025 h -1.841 v -1.954 h -0.045 c -0.854,1.482 -2.171,2.224 -3.953,2.224 -1.445,0 -2.6,-0.515 -3.465,-1.545 -0.865,-1.029 -1.297,-2.431 -1.297,-4.205 0,-1.902 0.479,-3.426 1.437,-4.571 0.959,-1.146 2.235,-1.718 3.83,-1.718 1.58,0 2.729,0.621 3.448,1.864 h 0.045 z"
     fill="url(#fill4)"
     fill-rule="evenodd"
     id="path105"
     style="fill:url(#fill4)" />
  <text
     fill="#000000"
     fill-opacity="0"
     font-family="Arial, Arial_MSFontService, sans-serif"
     font-size="22.3149px"
     x="250.53699"
     y="424.34003"
     id="text107">Compute Driver Model</text>
  <path
     d="m 237.5,279.864 c 0,-2.41 1.954,-4.364 4.364,-4.364 h 240.272 c 2.41,0 4.364,1.954 4.364,4.364 v 75.272 c 0,2.41 -1.954,4.364 -4.364,4.364 H 241.864 c -2.41,0 -4.364,-1.954 -4.364,-4.364 z"
     stroke="#535353"
     stroke-width="1.13333"
     stroke-linejoin="round"
     stroke-miterlimit="10"
     fill="#7f7f7f"
     fill-rule="evenodd"
     id="path109" />
  <path
     d="m 243.5,323.5 c 0,-3.314 2.686,-6 6,-6 h 224 c 3.314,0 6,2.686 6,6 v 24 c 0,3.314 -2.686,6 -6,6 h -224 c -3.314,0 -6,-2.686 -6,-6 z"
     stroke="#535353"
     stroke-linejoin="round"
     stroke-miterlimit="10"
     fill="#a6a6a6"
     fill-rule="evenodd"
     id="path111" />
  <text
     y="343"
     x="315.379"
     font-family="'Segoe UI', 'Segoe UI_MSFontService', sans-serif"
     font-weight="400"
     font-size="21px"
     id="text113">DirectX12</text>
  <path
     d="m 358.005,293.875 c -1.02,0 -1.885,0.365 -2.597,1.095 -0.712,0.729 -1.152,1.683 -1.319,2.86 h 7.291 c -0.009,-1.248 -0.31,-2.219 -0.903,-2.913 -0.593,-0.694 -1.417,-1.042 -2.472,-1.042 z m -20.26,-1.503 h 2.162 v 13.5 h -2.162 z m 11.748,-0.237 c 0.562,0 0.993,0.062 1.292,0.185 v 2.241 c -0.378,-0.29 -0.923,-0.435 -1.635,-0.435 -0.923,0 -1.694,0.435 -2.314,1.305 -0.619,0.87 -0.929,2.057 -0.929,3.56 v 6.881 h -2.162 v -13.5 h 2.162 v 2.782 h 0.053 c 0.307,-0.949 0.777,-1.69 1.41,-2.221 0.633,-0.532 1.341,-0.798 2.123,-0.798 z m 23.343,-0.079 c 1.186,0 2.232,0.22 3.137,0.659 v 2.215 c -1.002,-0.703 -2.074,-1.055 -3.217,-1.055 -1.379,0 -2.511,0.495 -3.394,1.484 -0.884,0.988 -1.325,2.287 -1.325,3.895 0,1.582 0.415,2.83 1.246,3.744 0.83,0.914 1.944,1.372 3.342,1.372 1.177,0 2.285,-0.392 3.322,-1.174 v 2.057 c -1.037,0.624 -2.268,0.936 -3.692,0.936 -1.924,0 -3.478,-0.626 -4.66,-1.879 -1.182,-1.252 -1.773,-2.876 -1.773,-4.871 0,-2.224 0.637,-4.01 1.911,-5.359 1.275,-1.349 2.976,-2.024 5.103,-2.024 z m -14.792,0 c 1.767,0 3.134,0.571 4.101,1.714 0.966,1.142 1.45,2.729 1.45,4.759 v 1.134 h -9.532 c 0.035,1.503 0.44,2.663 1.213,3.48 0.773,0.818 1.837,1.227 3.19,1.227 1.521,0 2.918,-0.501 4.193,-1.503 v 2.03 c -1.187,0.861 -2.756,1.292 -4.707,1.292 -1.907,0 -3.406,-0.613 -4.495,-1.839 -1.09,-1.226 -1.635,-2.951 -1.635,-5.175 0,-2.1 0.595,-3.812 1.786,-5.135 1.191,-1.323 2.67,-1.984 4.436,-1.984 z m -36.794,-3.085 v 14.898 h 2.821 c 2.478,0 4.408,-0.664 5.787,-1.991 1.38,-1.327 2.07,-3.208 2.07,-5.643 0,-4.843 -2.575,-7.264 -7.725,-7.264 z m 60.356,-0.593 v 3.994 h 3.401 v 1.846 h -3.401 v 7.607 c 0,0.905 0.153,1.551 0.461,1.938 0.308,0.387 0.817,0.58 1.529,0.58 0.545,0 1.015,-0.149 1.411,-0.448 v 1.846 c -0.51,0.281 -1.182,0.421 -2.017,0.421 -2.364,0 -3.547,-1.318 -3.547,-3.955 v -7.989 h -2.32 v -1.846 h 2.32 v -3.295 z m 30.429,-1.411 h 2.215 v 16.902 h 7.593 v 2.003 h -9.808 z m -24,0 h 2.926 l 5.801,13.184 c 0.449,1.01 0.739,1.766 0.87,2.267 h 0.079 c 0.378,-1.037 0.682,-1.81 0.91,-2.32 l 5.92,-13.131 h 2.768 v 18.905 h -2.202 V 293.19 c 0,-1.002 0.062,-2.228 0.185,-3.678 h -0.053 c -0.211,0.852 -0.4,1.463 -0.567,1.832 l -6.46,14.528 h -1.081 l -6.446,-14.422 c -0.185,-0.422 -0.374,-1.068 -0.567,-1.938 h -0.053 c 0.07,0.755 0.105,1.99 0.105,3.704 v 12.656 h -2.135 z m -69,0 h 5.22 c 6.663,0 9.994,3.072 9.994,9.215 0,2.918 -0.925,5.263 -2.776,7.034 -1.85,1.771 -4.326,2.656 -7.429,2.656 h -5.009 z m 19.817,-0.83 c 0.396,0 0.732,0.134 1.009,0.402 0.277,0.268 0.415,0.604 0.415,1.008 0,0.387 -0.138,0.717 -0.415,0.989 -0.277,0.272 -0.613,0.409 -1.009,0.409 -0.387,0 -0.716,-0.132 -0.989,-0.396 -0.272,-0.263 -0.408,-0.597 -0.408,-1.002 0,-0.404 0.136,-0.74 0.408,-1.008 0.273,-0.268 0.602,-0.402 0.989,-0.402 z"
     fill="url(#fill5)"
     fill-rule="evenodd"
     id="path115"
     style="fill:url(#fill5)" />
  <text
     fill="#000000"
     fill-opacity="0"
     font-family="Arial, Arial_MSFontService, sans-serif"
     font-size="20.0522px"
     x="319.035"
     y="303.68201"
     id="text117">DirectML</text>
  <path
     d="m 347.5,378.5 h 7 v -18 h 14 v 18 h 7 l -14,14 z"
     stroke="#3a3a3a"
     stroke-width="1.13333"
     stroke-miterlimit="8"
     fill="#7f7f7f"
     fill-rule="evenodd"
     id="path119" />
  <path
     d="m 347.5,264.5 h 7 v -18 h 14 v 18 h 7 l -14,14 z"
     stroke="#3a3a3a"
     stroke-width="1.13333"
     stroke-miterlimit="8"
     fill="#7f7f7f"
     fill-rule="evenodd"
     id="path121" />
  <path
     d="m 237.5,75.825 c 0,-1.836 1.489,-3.325 3.325,-3.325 h 242.35 c 1.836,0 3.325,1.489 3.325,3.325 v 57.35 c 0,1.836 -1.489,3.325 -3.325,3.325 h -242.35 c -1.836,0 -3.325,-1.489 -3.325,-3.325 z"
     stroke="#003c6a"
     stroke-width="1.13333"
     stroke-linejoin="round"
     stroke-miterlimit="10"
     fill="#0078d4"
     fill-rule="evenodd"
     id="path123" />
  <path
     d="m 355.074,101.952 c -1.389,0 -2.487,0.473 -3.296,1.418 -0.808,0.944 -1.213,2.247 -1.213,3.909 0,1.599 0.409,2.86 1.226,3.783 0.818,0.923 1.912,1.384 3.283,1.384 1.397,0 2.472,-0.452 3.223,-1.357 0.752,-0.906 1.128,-2.193 1.128,-3.863 0,-1.688 -0.376,-2.989 -1.128,-3.903 -0.751,-0.914 -1.826,-1.371 -3.223,-1.371 z m -15.264,0 c -1.318,0 -2.355,0.484 -3.111,1.451 -0.756,0.966 -1.134,2.302 -1.134,4.007 0,1.556 0.363,2.784 1.088,3.685 0.725,0.901 1.698,1.351 2.92,1.351 1.204,0 2.182,-0.435 2.933,-1.305 0.752,-0.87 1.128,-1.968 1.128,-3.296 v -1.99 c 0,-1.09 -0.361,-2.013 -1.081,-2.769 -0.721,-0.756 -1.635,-1.134 -2.743,-1.134 z m 23.591,-1.503 h 2.268 l 2.795,10.152 c 0.088,0.307 0.149,0.712 0.184,1.213 h 0.106 c 0.026,-0.387 0.105,-0.8 0.237,-1.24 l 3.111,-10.125 h 1.978 l 2.795,10.178 c 0.088,0.325 0.154,0.73 0.198,1.213 h 0.105 c 0.018,-0.343 0.092,-0.747 0.224,-1.213 l 2.742,-10.178 h 2.136 l -4.047,13.5 h -2.241 l -2.782,-9.663 c -0.106,-0.369 -0.176,-0.787 -0.211,-1.253 h -0.053 c -0.026,0.317 -0.119,0.725 -0.277,1.226 l -3.019,9.69 h -2.162 z m -51.128,0 h 2.162 v 13.5 h -2.162 z m 76.377,-0.316 c 1.169,0 2.215,0.202 3.138,0.606 v 2.189 c -0.993,-0.65 -2.136,-0.976 -3.428,-0.976 -0.404,0 -0.769,0.046 -1.094,0.139 -0.325,0.092 -0.604,0.222 -0.837,0.389 -0.233,0.167 -0.413,0.367 -0.541,0.6 -0.127,0.232 -0.191,0.49 -0.191,0.771 0,0.351 0.064,0.646 0.191,0.883 0.128,0.237 0.314,0.448 0.561,0.633 0.246,0.184 0.544,0.351 0.896,0.501 0.352,0.149 0.751,0.312 1.2,0.488 0.597,0.228 1.134,0.463 1.608,0.705 0.475,0.242 0.879,0.514 1.213,0.817 0.334,0.304 0.591,0.653 0.771,1.048 0.18,0.396 0.271,0.866 0.271,1.411 0,0.668 -0.148,1.248 -0.442,1.74 -0.295,0.493 -0.688,0.901 -1.18,1.226 -0.492,0.326 -1.059,0.567 -1.701,0.726 -0.641,0.158 -1.314,0.237 -2.017,0.237 -1.388,0 -2.593,-0.268 -3.612,-0.804 v -2.321 c 1.178,0.87 2.474,1.305 3.889,1.305 1.898,0 2.848,-0.632 2.848,-1.898 0,-0.36 -0.082,-0.666 -0.244,-0.916 -0.163,-0.251 -0.383,-0.473 -0.659,-0.666 -0.277,-0.193 -0.602,-0.367 -0.976,-0.521 -0.374,-0.154 -0.776,-0.314 -1.206,-0.481 -0.598,-0.237 -1.123,-0.477 -1.576,-0.718 -0.452,-0.242 -0.83,-0.515 -1.134,-0.818 -0.303,-0.303 -0.531,-0.648 -0.685,-1.035 -0.154,-0.386 -0.231,-0.839 -0.231,-1.358 0,-0.632 0.145,-1.193 0.435,-1.681 0.29,-0.487 0.677,-0.896 1.16,-1.226 0.484,-0.329 1.035,-0.578 1.655,-0.745 0.62,-0.167 1.259,-0.25 1.918,-0.25 z m -33.418,0 c 2.013,0 3.584,0.62 4.713,1.859 1.13,1.239 1.694,2.957 1.694,5.155 0,2.153 -0.608,3.878 -1.825,5.174 -1.218,1.297 -2.85,1.945 -4.898,1.945 -1.995,0 -3.588,-0.631 -4.779,-1.892 -1.191,-1.261 -1.787,-2.933 -1.787,-5.016 0,-2.268 0.62,-4.039 1.859,-5.313 1.24,-1.275 2.914,-1.912 5.023,-1.912 z m -30.314,0 c 1.476,0 2.606,0.477 3.388,1.43 0.782,0.954 1.173,2.332 1.173,4.133 v 8.253 h -2.162 v -7.699 c 0,-2.865 -1.046,-4.298 -3.138,-4.298 -1.081,0 -1.975,0.407 -2.682,1.22 -0.708,0.813 -1.062,1.839 -1.062,3.078 v 7.699 h -2.162 v -13.5 h 2.162 v 2.242 h 0.053 c 1.02,-1.705 2.496,-2.558 4.43,-2.558 z m 102.645,-5.089 h 2.215 v 16.901 h 7.594 v 2.004 h -9.809 z m -24,0 h 2.927 l 5.801,13.184 c 0.448,1.01 0.738,1.766 0.87,2.267 h 0.079 c 0.378,-1.037 0.681,-1.81 0.91,-2.32 l 5.919,-13.131 h 2.769 v 18.905 h -2.202 v -12.682 c 0,-1.002 0.062,-2.228 0.185,-3.678 h -0.053 c -0.211,0.852 -0.4,1.463 -0.567,1.832 l -6.46,14.528 h -1.081 l -6.447,-14.422 c -0.184,-0.422 -0.373,-1.068 -0.567,-1.938 h -0.052 c 0.07,0.755 0.105,1.99 0.105,3.704 v 12.656 h -2.136 z m -118.135,0 h 2.439 l 4.021,14.502 c 0.167,0.607 0.272,1.239 0.316,1.899 h 0.066 c 0.044,-0.466 0.18,-1.099 0.409,-1.899 l 4.179,-14.502 h 2.122 l 4.008,14.608 c 0.141,0.501 0.246,1.089 0.317,1.766 h 0.052 c 0.035,-0.457 0.154,-1.063 0.356,-1.819 l 3.863,-14.555 h 2.399 l -5.339,18.905 h -2.597 l -3.889,-13.816 c -0.167,-0.589 -0.268,-1.23 -0.304,-1.925 h -0.052 c -0.053,0.651 -0.167,1.283 -0.343,1.899 l -3.916,13.842 h -2.57 z m 27.953,-0.83 c 0.395,0 0.731,0.134 1.008,0.402 0.277,0.268 0.416,0.604 0.416,1.008 0,0.387 -0.139,0.717 -0.416,0.989 -0.277,0.272 -0.613,0.409 -1.008,0.409 -0.387,0 -0.717,-0.132 -0.989,-0.396 -0.273,-0.264 -0.409,-0.597 -0.409,-1.002 0,-0.404 0.136,-0.74 0.409,-1.008 0.272,-0.268 0.602,-0.402 0.989,-0.402 z m 30.253,-0.251 h 2.162 v 19.986 h -2.162 v -2.294 h -0.053 c -1.002,1.741 -2.549,2.611 -4.641,2.611 -1.696,0 -3.052,-0.604 -4.067,-1.813 -1.015,-1.208 -1.523,-2.854 -1.523,-4.937 0,-2.233 0.563,-4.021 1.688,-5.366 1.125,-1.345 2.623,-2.017 4.496,-2.017 1.854,0 3.203,0.729 4.047,2.188 h 0.053 z"
     fill="url(#fill6)"
     fill-rule="evenodd"
     id="path125"
     style="fill:url(#fill6)" />
  <text
     fill="#000000"
     fill-opacity="0"
     font-family="Arial, Arial_MSFontService, sans-serif"
     font-size="20.3027px"
     x="285.42801"
     y="111.728"
     id="text127">Windows ML</text>
  <path
     d="m 347.5,154.5 h 7 v -18 h 14 v 18 h 7 l -14,14 z"
     stroke="#00569b"
     stroke-width="1.13333"
     stroke-miterlimit="8"
     fill="#0078d4"
     fill-rule="evenodd"
     id="path129" />
  <path
     d="m 359.323,11.502 h 1.702 l -1.538,7.311 c -0.062,0.287 -0.105,0.509 -0.129,0.666 -0.024,0.157 -0.035,0.291 -0.035,0.4 0,0.28 0.076,0.494 0.23,0.641 0.154,0.147 0.398,0.22 0.733,0.22 0.178,0 0.334,-0.01 0.467,-0.03 0.133,-0.021 0.258,-0.052 0.374,-0.093 l -0.266,1.344 c -0.171,0.054 -0.364,0.099 -0.58,0.133 -0.215,0.034 -0.429,0.051 -0.641,0.051 -0.69,0 -1.206,-0.172 -1.548,-0.518 -0.342,-0.345 -0.513,-0.808 -0.513,-1.389 0,-0.171 0.017,-0.373 0.052,-0.605 0.034,-0.233 0.088,-0.52 0.164,-0.861 z m 11.311,-0.257 c 0.465,0 0.865,0.07 1.2,0.21 0.335,0.141 0.613,0.337 0.835,0.59 0.223,0.253 0.387,0.557 0.493,0.913 0.106,0.355 0.159,0.745 0.159,1.169 0,0.102 -0.012,0.242 -0.036,0.42 -0.024,0.178 -0.055,0.369 -0.093,0.574 -0.037,0.205 -0.075,0.409 -0.112,0.61 -0.038,0.202 -0.074,0.375 -0.108,0.518 l -1.22,5.753 h -1.702 l 1.281,-6.153 c 0.028,-0.109 0.055,-0.236 0.082,-0.379 0.028,-0.144 0.052,-0.287 0.072,-0.431 0.021,-0.143 0.038,-0.275 0.051,-0.395 0.014,-0.119 0.021,-0.213 0.021,-0.282 0,-0.519 -0.125,-0.929 -0.374,-1.23 -0.25,-0.301 -0.621,-0.451 -1.113,-0.451 -0.451,0 -0.899,0.133 -1.343,0.4 -0.445,0.266 -0.855,0.605 -1.231,1.015 -0.376,0.41 -0.699,0.861 -0.969,1.353 -0.27,0.493 -0.453,0.968 -0.548,1.426 l -1.097,5.127 h -1.703 l 1.621,-7.496 c 0.054,-0.267 0.109,-0.545 0.164,-0.836 0.054,-0.29 0.106,-0.571 0.153,-0.841 0.048,-0.27 0.089,-0.521 0.123,-0.753 0.035,-0.233 0.062,-0.424 0.083,-0.574 h 1.64 c -0.034,0.266 -0.075,0.545 -0.123,0.835 -0.048,0.291 -0.089,0.559 -0.123,0.805 -0.041,0.287 -0.085,0.568 -0.133,0.841 h 0.041 c 0.239,-0.376 0.504,-0.73 0.794,-1.061 0.291,-0.332 0.605,-0.622 0.944,-0.872 0.338,-0.249 0.697,-0.446 1.076,-0.589 0.38,-0.144 0.778,-0.216 1.195,-0.216 z m -50.251,-0.184 h 1.343 v 4.132 h 4.133 v 1.374 h -4.133 v 4.132 h -1.343 v -4.132 h -4.163 v -1.374 h 4.163 z m -14,0 h 1.343 v 4.132 h 4.133 v 1.374 h -4.133 v 4.132 h -1.343 v -4.132 h -4.163 v -1.374 h 4.163 z M 411.89,9.082 c -0.02,0.061 -0.047,0.135 -0.082,0.22 -0.034,0.086 -0.071,0.174 -0.112,0.267 -0.041,0.092 -0.084,0.183 -0.129,0.271 -0.044,0.089 -0.083,0.168 -0.118,0.236 l -3.629,6.255 h 5.075 l -0.943,-6.255 c -0.007,-0.068 -0.012,-0.147 -0.015,-0.236 -0.004,-0.088 -0.006,-0.177 -0.006,-0.266 0,-0.096 0,-0.185 0,-0.267 0,-0.089 0,-0.164 0,-0.225 z m 10.016,-0.226 -1.281,6.029 h 2.061 c 0.724,0 1.348,-0.09 1.871,-0.271 0.523,-0.182 0.954,-0.431 1.292,-0.749 0.339,-0.318 0.588,-0.694 0.749,-1.128 0.16,-0.434 0.241,-0.907 0.241,-1.42 0,-0.369 -0.064,-0.706 -0.19,-1.01 -0.127,-0.304 -0.313,-0.564 -0.559,-0.779 -0.246,-0.216 -0.552,-0.381 -0.918,-0.498 -0.365,-0.116 -0.787,-0.174 -1.266,-0.174 z m -42,0 -1.127,5.332 h 2.03 c 0.718,0 1.328,-0.085 1.83,-0.256 0.503,-0.171 0.913,-0.397 1.231,-0.677 0.318,-0.28 0.548,-0.607 0.692,-0.979 0.143,-0.373 0.215,-0.757 0.215,-1.154 0,-0.328 -0.051,-0.63 -0.154,-0.907 -0.102,-0.277 -0.259,-0.516 -0.471,-0.718 -0.212,-0.202 -0.482,-0.359 -0.81,-0.472 -0.329,-0.113 -0.718,-0.169 -1.169,-0.169 z m 53.555,-1.559 h 1.784 l -3.128,14.705 h -1.763 z m -13,0 h 3.804 c 0.786,0 1.458,0.108 2.015,0.323 0.557,0.216 1.012,0.503 1.364,0.862 0.352,0.359 0.608,0.771 0.769,1.235 0.16,0.465 0.241,0.947 0.241,1.446 0,0.725 -0.123,1.407 -0.37,2.046 -0.246,0.639 -0.62,1.198 -1.122,1.676 -0.503,0.479 -1.14,0.857 -1.913,1.133 -0.772,0.277 -1.681,0.416 -2.727,0.416 h -2.236 l -1.169,5.568 h -1.763 z m -9.176,0 h 1.805 l 2.564,14.705 h -1.815 l -0.667,-4.112 h -6.234 l -2.379,4.112 h -2.03 z m -22.362,0 h 10.212 l -0.338,1.559 h -4.183 l -2.769,13.146 h -1.764 L 392.87,8.856 h -4.276 z m -10.462,0 h 4.05 c 0.718,0 1.333,0.096 1.846,0.288 0.512,0.191 0.933,0.452 1.261,0.784 0.328,0.332 0.571,0.718 0.728,1.159 0.157,0.441 0.236,0.911 0.236,1.41 0,0.635 -0.111,1.21 -0.333,1.722 -0.223,0.513 -0.529,0.954 -0.918,1.323 -0.39,0.369 -0.855,0.665 -1.395,0.887 -0.54,0.222 -1.128,0.361 -1.763,0.415 v 0.041 c 0.321,0.103 0.603,0.318 0.846,0.646 0.242,0.328 0.439,0.769 0.589,1.323 l 1.231,4.707 h -1.887 l -1.087,-4.389 c -0.157,-0.643 -0.408,-1.114 -0.754,-1.415 -0.345,-0.301 -0.801,-0.451 -1.369,-0.451 h -1.281 l -1.344,6.255 h -1.763 z m -38.846,0 h 1.825 l 0.759,11.198 c 0.014,0.232 0.014,0.482 0,0.748 -0.014,0.267 -0.038,0.506 -0.072,0.718 h 0.041 c 0.034,-0.096 0.075,-0.205 0.123,-0.328 0.048,-0.123 0.099,-0.251 0.154,-0.385 0.055,-0.133 0.111,-0.264 0.169,-0.394 0.058,-0.13 0.115,-0.25 0.169,-0.359 l 5.712,-11.198 h 1.579 l 0.923,11.28 c 0.02,0.191 0.027,0.417 0.02,0.677 -0.007,0.259 -0.02,0.495 -0.041,0.707 h 0.041 c 0.035,-0.109 0.074,-0.227 0.118,-0.354 0.045,-0.126 0.093,-0.253 0.144,-0.379 0.051,-0.127 0.102,-0.25 0.154,-0.369 0.051,-0.12 0.1,-0.228 0.148,-0.323 l 5.394,-11.239 h 1.917 l -7.331,14.705 h -1.825 l -0.944,-10.9 c -0.013,-0.212 -0.012,-0.452 0.005,-0.718 0.017,-0.267 0.036,-0.516 0.057,-0.749 h -0.041 c -0.069,0.219 -0.154,0.465 -0.257,0.739 -0.102,0.273 -0.208,0.509 -0.317,0.707 l -5.579,10.921 h -1.876 z m -2.027,0 h 1.712 l -10.664,17.145 h -1.723 z M 295.531,7.051 c 0.875,0 1.649,0.094 2.323,0.282 0.673,0.188 1.242,0.402 1.707,0.641 l -0.38,1.764 c -0.198,-0.13 -0.425,-0.263 -0.681,-0.4 -0.257,-0.137 -0.539,-0.26 -0.846,-0.369 -0.308,-0.11 -0.645,-0.198 -1.01,-0.267 -0.366,-0.068 -0.758,-0.102 -1.175,-0.102 -1.025,0 -1.949,0.181 -2.773,0.543 -0.824,0.362 -1.523,0.862 -2.097,1.497 -0.574,0.636 -1.017,1.383 -1.328,2.241 -0.311,0.858 -0.467,1.786 -0.467,2.784 0,0.813 0.113,1.533 0.339,2.158 0.225,0.626 0.547,1.152 0.964,1.579 0.417,0.427 0.916,0.75 1.497,0.969 0.581,0.219 1.223,0.328 1.927,0.328 0.452,0 0.862,-0.025 1.231,-0.077 0.369,-0.051 0.711,-0.123 1.025,-0.215 0.315,-0.092 0.61,-0.202 0.887,-0.328 0.277,-0.127 0.545,-0.262 0.805,-0.405 l -0.4,1.805 c -0.553,0.253 -1.146,0.446 -1.779,0.579 -0.632,0.133 -1.341,0.2 -2.127,0.2 -0.93,0 -1.776,-0.154 -2.538,-0.462 -0.762,-0.307 -1.412,-0.743 -1.948,-1.307 -0.537,-0.564 -0.952,-1.242 -1.246,-2.035 C 287.147,17.661 287,16.779 287,15.808 c 0,-1.285 0.203,-2.464 0.61,-3.537 0.407,-1.074 0.984,-1.996 1.733,-2.769 0.748,-0.772 1.647,-1.374 2.697,-1.805 1.049,-0.43 2.213,-0.646 3.491,-0.646 z m 65.442,-0.359 c 0.301,0 0.558,0.101 0.769,0.303 0.212,0.202 0.318,0.456 0.318,0.764 0,0.308 -0.104,0.571 -0.312,0.789 -0.209,0.219 -0.467,0.329 -0.775,0.329 -0.3,0 -0.562,-0.108 -0.784,-0.323 -0.222,-0.216 -0.333,-0.481 -0.333,-0.795 0,-0.315 0.111,-0.571 0.333,-0.769 0.222,-0.198 0.484,-0.298 0.784,-0.298 z"
     fill="url(#fill7)"
     fill-rule="evenodd"
     id="path131"
     style="fill:url(#fill7)" />
  <text
     fill="#000000"
     fill-opacity="0"
     font-family="Arial, Arial_MSFontService, sans-serif"
     font-size="17.7495px"
     x="287"
     y="22.223007"
     id="text133">C++/WinRT API</text>
  <path
     d="m 347.5,59.5 h 7 v -18 h 14 v 18 h 7 l -14,14 z"
     stroke="#00569b"
     stroke-width="1.13333"
     stroke-miterlimit="8"
     fill="#0078d4"
     fill-rule="evenodd"
     id="path135" />
  <path
     d="m 493.599,12.017 c -0.601,0 -1.145,0.154 -1.63,0.462 -0.485,0.307 -0.895,0.712 -1.23,1.215 -0.335,0.502 -0.593,1.073 -0.775,1.712 -0.181,0.639 -0.271,1.294 -0.271,1.964 0,0.424 0.053,0.808 0.159,1.153 0.106,0.345 0.256,0.639 0.451,0.882 0.195,0.243 0.434,0.429 0.718,0.559 0.283,0.13 0.603,0.195 0.958,0.195 0.609,0 1.156,-0.152 1.641,-0.457 0.485,-0.304 0.896,-0.707 1.23,-1.21 0.335,-0.502 0.592,-1.074 0.77,-1.717 0.177,-0.643 0.266,-1.299 0.266,-1.969 0,-0.444 -0.055,-0.839 -0.164,-1.184 -0.109,-0.345 -0.263,-0.636 -0.461,-0.872 -0.199,-0.236 -0.438,-0.417 -0.718,-0.543 -0.28,-0.127 -0.595,-0.19 -0.944,-0.19 z m 18.842,-1.435 c 0.492,0 0.959,0.047 1.399,0.143 0.441,0.096 0.816,0.219 1.123,0.369 l -0.359,1.59 c -0.307,-0.199 -0.652,-0.359 -1.035,-0.482 -0.383,-0.123 -0.766,-0.185 -1.149,-0.185 -0.642,0 -1.14,0.147 -1.492,0.441 -0.352,0.294 -0.528,0.684 -0.528,1.169 0,0.198 0.033,0.379 0.098,0.543 0.065,0.165 0.16,0.32 0.287,0.467 0.126,0.147 0.287,0.289 0.482,0.426 0.195,0.136 0.418,0.283 0.671,0.44 0.766,0.445 1.318,0.901 1.656,1.369 0.339,0.469 0.508,0.997 0.508,1.585 0,0.396 -0.074,0.784 -0.221,1.163 -0.147,0.38 -0.381,0.715 -0.702,1.005 -0.321,0.291 -0.736,0.525 -1.246,0.703 -0.509,0.177 -1.129,0.266 -1.861,0.266 -0.205,0 -0.431,-0.013 -0.677,-0.041 -0.246,-0.027 -0.494,-0.068 -0.743,-0.123 -0.25,-0.054 -0.489,-0.121 -0.718,-0.2 -0.229,-0.078 -0.429,-0.169 -0.6,-0.271 l 0.339,-1.6 c 0.136,0.096 0.306,0.191 0.507,0.287 0.202,0.096 0.421,0.181 0.657,0.256 0.235,0.076 0.481,0.137 0.738,0.185 0.256,0.048 0.511,0.072 0.764,0.072 0.683,0 1.194,-0.137 1.533,-0.41 0.338,-0.274 0.507,-0.653 0.507,-1.139 0,-0.177 -0.025,-0.341 -0.077,-0.492 -0.051,-0.15 -0.141,-0.301 -0.271,-0.451 -0.13,-0.15 -0.301,-0.302 -0.513,-0.456 -0.212,-0.154 -0.479,-0.327 -0.8,-0.518 -0.697,-0.424 -1.212,-0.867 -1.543,-1.328 -0.332,-0.461 -0.497,-0.983 -0.497,-1.564 0,-0.423 0.078,-0.829 0.235,-1.215 0.158,-0.386 0.392,-0.728 0.703,-1.025 0.311,-0.298 0.702,-0.535 1.174,-0.713 0.472,-0.178 1.022,-0.266 1.651,-0.266 z m -8,0 c 0.492,0 0.959,0.047 1.399,0.143 0.441,0.096 0.816,0.219 1.123,0.369 l -0.359,1.59 c -0.307,-0.199 -0.652,-0.359 -1.035,-0.482 -0.383,-0.123 -0.766,-0.185 -1.149,-0.185 -0.642,0 -1.14,0.147 -1.492,0.441 -0.352,0.294 -0.528,0.684 -0.528,1.169 0,0.198 0.033,0.379 0.098,0.543 0.065,0.165 0.16,0.32 0.287,0.467 0.126,0.147 0.287,0.289 0.482,0.426 0.195,0.136 0.418,0.283 0.671,0.44 0.766,0.445 1.318,0.901 1.656,1.369 0.339,0.469 0.508,0.997 0.508,1.585 0,0.396 -0.074,0.784 -0.221,1.163 -0.147,0.38 -0.381,0.715 -0.702,1.005 -0.321,0.291 -0.736,0.525 -1.246,0.703 -0.509,0.177 -1.129,0.266 -1.861,0.266 -0.205,0 -0.431,-0.013 -0.677,-0.041 -0.246,-0.027 -0.494,-0.068 -0.743,-0.123 -0.25,-0.054 -0.489,-0.121 -0.718,-0.2 -0.229,-0.078 -0.429,-0.169 -0.6,-0.271 l 0.339,-1.6 c 0.136,0.096 0.306,0.191 0.507,0.287 0.202,0.096 0.421,0.181 0.657,0.256 0.235,0.076 0.481,0.137 0.738,0.185 0.256,0.048 0.511,0.072 0.764,0.072 0.683,0 1.194,-0.137 1.533,-0.41 0.338,-0.274 0.507,-0.653 0.507,-1.139 0,-0.177 -0.025,-0.341 -0.077,-0.492 -0.051,-0.15 -0.141,-0.301 -0.271,-0.451 -0.13,-0.15 -0.301,-0.302 -0.513,-0.456 -0.212,-0.154 -0.479,-0.327 -0.8,-0.518 -0.697,-0.424 -1.212,-0.867 -1.543,-1.328 -0.332,-0.461 -0.497,-0.983 -0.497,-1.564 0,-0.423 0.078,-0.829 0.235,-1.215 0.158,-0.386 0.392,-0.728 0.703,-1.025 0.311,-0.298 0.702,-0.535 1.174,-0.713 0.472,-0.178 1.022,-0.266 1.651,-0.266 z m -10.759,0 c 0.594,0 1.133,0.095 1.615,0.287 0.481,0.191 0.893,0.466 1.235,0.825 0.342,0.359 0.607,0.793 0.795,1.302 0.188,0.51 0.282,1.086 0.282,1.728 0,0.93 -0.132,1.812 -0.395,2.646 -0.263,0.834 -0.643,1.563 -1.138,2.189 -0.496,0.625 -1.097,1.121 -1.805,1.487 -0.707,0.365 -1.505,0.548 -2.394,0.548 -0.602,0 -1.143,-0.095 -1.625,-0.287 -0.482,-0.191 -0.893,-0.466 -1.231,-0.825 -0.338,-0.359 -0.598,-0.793 -0.779,-1.302 -0.181,-0.51 -0.272,-1.086 -0.272,-1.728 0,-0.964 0.139,-1.865 0.415,-2.702 0.277,-0.838 0.667,-1.566 1.169,-2.184 0.503,-0.619 1.104,-1.104 1.805,-1.456 0.701,-0.352 1.475,-0.528 2.323,-0.528 z m -6.437,0 c 0.192,0 0.382,0.018 0.57,0.056 0.188,0.038 0.357,0.077 0.507,0.118 l -0.297,1.866 h -0.041 c -0.137,-0.082 -0.316,-0.162 -0.539,-0.241 -0.222,-0.078 -0.442,-0.118 -0.661,-0.118 -0.396,0 -0.776,0.128 -1.138,0.385 -0.362,0.256 -0.692,0.594 -0.99,1.015 -0.297,0.42 -0.557,0.901 -0.779,1.441 -0.222,0.54 -0.395,1.093 -0.518,1.661 l -0.984,4.573 h -1.682 l 1.477,-6.973 c 0.061,-0.287 0.123,-0.588 0.184,-0.902 0.062,-0.315 0.118,-0.629 0.17,-0.943 0.051,-0.315 0.097,-0.616 0.138,-0.903 0.041,-0.287 0.072,-0.547 0.092,-0.779 h 1.661 c -0.02,0.205 -0.044,0.422 -0.071,0.651 -0.028,0.229 -0.055,0.451 -0.082,0.667 -0.028,0.215 -0.055,0.41 -0.082,0.584 -0.028,0.174 -0.048,0.309 -0.062,0.405 h 0.041 c 0.219,-0.39 0.441,-0.742 0.667,-1.056 0.225,-0.315 0.463,-0.583 0.712,-0.805 0.25,-0.222 0.515,-0.395 0.795,-0.518 0.28,-0.123 0.584,-0.184 0.912,-0.184 z M 476.106,6.388 c 0.875,0 1.649,0.094 2.323,0.282 0.673,0.188 1.242,0.401 1.707,0.641 l -0.379,1.763 c -0.199,-0.13 -0.426,-0.263 -0.682,-0.4 -0.257,-0.136 -0.539,-0.259 -0.846,-0.369 -0.308,-0.109 -0.644,-0.198 -1.01,-0.266 -0.366,-0.069 -0.757,-0.103 -1.174,-0.103 -1.026,0 -1.95,0.181 -2.774,0.544 -0.824,0.362 -1.523,0.861 -2.097,1.497 -0.574,0.635 -1.017,1.382 -1.328,2.24 -0.311,0.858 -0.466,1.786 -0.466,2.784 0,0.814 0.113,1.533 0.338,2.158 0.226,0.626 0.547,1.152 0.964,1.58 0.417,0.427 0.916,0.75 1.497,0.969 0.581,0.218 1.224,0.328 1.928,0.328 0.451,0 0.861,-0.026 1.23,-0.077 0.369,-0.051 0.711,-0.123 1.026,-0.216 0.314,-0.092 0.61,-0.201 0.887,-0.328 0.276,-0.126 0.545,-0.261 0.805,-0.405 l -0.4,1.805 c -0.554,0.253 -1.147,0.446 -1.779,0.579 -0.633,0.134 -1.342,0.2 -2.128,0.2 -0.93,0 -1.776,-0.154 -2.538,-0.461 -0.762,-0.308 -1.412,-0.744 -1.948,-1.307 -0.537,-0.564 -0.952,-1.243 -1.246,-2.036 -0.294,-0.793 -0.441,-1.675 -0.441,-2.645 0,-1.286 0.203,-2.465 0.61,-3.538 0.407,-1.073 0.985,-1.996 1.733,-2.769 0.749,-0.772 1.648,-1.374 2.697,-1.804 1.049,-0.431 2.213,-0.646 3.491,-0.646 z"
     fill="url(#fill8)"
     fill-rule="evenodd"
     id="path137"
     style="fill:url(#fill8)" />
  <text
     fill="#000000"
     fill-opacity="0"
     font-family="Arial, Arial_MSFontService, sans-serif"
     font-size="15.2065px"
     x="467.57501"
     y="19.692993"
     id="text139">Cross</text>
  <path
     d="m 517.438,14.827 h 5.608 l -0.297,1.322 h -5.609 z"
     fill="url(#fill9)"
     fill-rule="evenodd"
     id="path141"
     style="fill:url(#fill9)" />
  <text
     fill="#000000"
     fill-opacity="0"
     font-family="Arial, Arial_MSFontService, sans-serif"
     font-size="1.32275px"
     x="517.14001"
     y="15.983994"
     id="text143">-</text>
  <path
     d="m 549.352,12.017 c -0.595,0 -1.12,0.094 -1.574,0.282 -0.455,0.188 -0.85,0.434 -1.185,0.738 -0.335,0.305 -0.617,0.655 -0.846,1.051 -0.229,0.397 -0.411,0.802 -0.548,1.216 -0.137,0.413 -0.234,0.822 -0.292,1.225 -0.059,0.403 -0.088,0.769 -0.088,1.097 0,0.39 0.035,0.74 0.103,1.051 0.068,0.311 0.176,0.576 0.323,0.795 0.147,0.218 0.335,0.388 0.564,0.507 0.229,0.12 0.501,0.18 0.815,0.18 0.342,0 0.661,-0.07 0.959,-0.21 0.297,-0.141 0.576,-0.33 0.836,-0.57 0.259,-0.239 0.495,-0.516 0.707,-0.83 0.212,-0.315 0.403,-0.648 0.574,-1 0.171,-0.352 0.316,-0.711 0.436,-1.077 0.12,-0.365 0.217,-0.719 0.292,-1.061 l 0.667,-3.189 c -0.239,-0.054 -0.52,-0.102 -0.841,-0.143 -0.321,-0.041 -0.622,-0.062 -0.902,-0.062 z m 0.256,-1.435 c 0.547,0 1.111,0.041 1.692,0.123 0.581,0.082 1.159,0.181 1.733,0.297 l -1.456,6.973 c -0.055,0.259 -0.108,0.552 -0.159,0.876 -0.051,0.325 -0.096,0.646 -0.134,0.964 -0.037,0.318 -0.068,0.614 -0.092,0.887 -0.024,0.274 -0.036,0.486 -0.036,0.636 h -1.743 c 0.007,-0.137 0.017,-0.301 0.031,-0.492 0.014,-0.192 0.032,-0.39 0.056,-0.595 0.024,-0.205 0.048,-0.407 0.072,-0.605 0.024,-0.198 0.05,-0.369 0.077,-0.513 h -0.041 c -0.212,0.335 -0.427,0.651 -0.646,0.949 -0.219,0.297 -0.461,0.559 -0.728,0.784 -0.267,0.226 -0.564,0.404 -0.892,0.533 -0.328,0.13 -0.714,0.195 -1.159,0.195 -0.458,0 -0.877,-0.082 -1.256,-0.246 -0.379,-0.164 -0.706,-0.408 -0.979,-0.733 -0.274,-0.325 -0.484,-0.731 -0.631,-1.22 -0.147,-0.489 -0.22,-1.058 -0.22,-1.707 0,-0.397 0.041,-0.848 0.123,-1.354 0.082,-0.506 0.22,-1.022 0.415,-1.548 0.195,-0.527 0.455,-1.041 0.779,-1.544 0.325,-0.502 0.728,-0.951 1.21,-1.348 0.482,-0.396 1.051,-0.714 1.708,-0.954 0.656,-0.239 1.415,-0.358 2.276,-0.358 z m 44.984,-2.164 c -0.02,0.062 -0.048,0.135 -0.082,0.22 -0.034,0.086 -0.071,0.175 -0.112,0.267 -0.041,0.092 -0.084,0.183 -0.129,0.272 -0.044,0.089 -0.083,0.167 -0.118,0.236 l -3.629,6.255 h 5.075 l -0.943,-6.255 c -0.007,-0.069 -0.012,-0.147 -0.016,-0.236 -0.003,-0.089 -0.005,-0.178 -0.005,-0.267 0,-0.095 0,-0.184 0,-0.266 0,-0.089 0,-0.164 0,-0.226 z m 10.016,-0.226 -1.281,6.03 h 2.061 c 0.724,0 1.348,-0.091 1.871,-0.272 0.523,-0.181 0.954,-0.431 1.292,-0.749 0.338,-0.317 0.588,-0.693 0.749,-1.127 0.16,-0.435 0.241,-0.908 0.241,-1.421 0,-0.369 -0.064,-0.705 -0.19,-1.01 -0.127,-0.304 -0.313,-0.564 -0.559,-0.779 -0.246,-0.215 -0.552,-0.381 -0.918,-0.497 -0.365,-0.116 -0.788,-0.175 -1.266,-0.175 z m -75,0 -1.281,6.03 h 2.061 c 0.724,0 1.348,-0.091 1.871,-0.272 0.523,-0.181 0.954,-0.431 1.292,-0.749 0.338,-0.317 0.588,-0.693 0.749,-1.127 0.16,-0.435 0.241,-0.908 0.241,-1.421 0,-0.369 -0.064,-0.705 -0.19,-1.01 -0.127,-0.304 -0.313,-0.564 -0.559,-0.779 -0.246,-0.215 -0.552,-0.381 -0.918,-0.497 -0.365,-0.116 -0.788,-0.175 -1.266,-0.175 z m 29.082,-0.461 -0.646,3.107 h 2.646 l -0.318,1.425 h -2.645 l -1.18,5.568 c -0.041,0.212 -0.082,0.441 -0.123,0.687 -0.041,0.246 -0.061,0.444 -0.061,0.595 0,0.348 0.077,0.6 0.231,0.754 0.153,0.153 0.398,0.23 0.733,0.23 0.082,0 0.188,-0.013 0.318,-0.041 0.129,-0.027 0.263,-0.061 0.399,-0.102 0.137,-0.041 0.272,-0.087 0.406,-0.139 0.133,-0.051 0.251,-0.097 0.353,-0.138 l -0.318,1.476 c -0.239,0.103 -0.511,0.19 -0.815,0.262 -0.304,0.072 -0.593,0.108 -0.866,0.108 -0.39,0 -0.721,-0.05 -0.995,-0.149 -0.273,-0.099 -0.497,-0.241 -0.671,-0.426 -0.175,-0.184 -0.301,-0.408 -0.38,-0.671 -0.078,-0.264 -0.118,-0.559 -0.118,-0.887 0,-0.199 0.019,-0.429 0.057,-0.692 0.037,-0.264 0.083,-0.505 0.138,-0.723 l 1.21,-5.712 h -1.743 l 0.318,-1.425 h 1.722 l 0.544,-2.564 c 0.027,-0.013 0.131,-0.046 0.313,-0.097 0.181,-0.051 0.379,-0.109 0.594,-0.174 0.216,-0.065 0.414,-0.125 0.595,-0.18 0.181,-0.054 0.282,-0.085 0.302,-0.092 z m 56.473,-1.097 h 1.784 l -3.128,14.704 h -1.763 z m -12,0 h 3.804 c 0.786,0 1.458,0.108 2.015,0.323 0.557,0.215 1.011,0.502 1.364,0.861 0.352,0.359 0.608,0.771 0.769,1.236 0.16,0.465 0.241,0.947 0.241,1.446 0,0.724 -0.124,1.406 -0.37,2.045 -0.246,0.639 -0.62,1.198 -1.122,1.677 -0.503,0.478 -1.14,0.856 -1.913,1.133 -0.772,0.277 -1.681,0.415 -2.727,0.415 h -2.236 l -1.169,5.568 h -1.763 z m -9.176,0 h 1.805 l 2.564,14.704 h -1.815 l -0.667,-4.112 h -6.234 l -2.379,4.112 h -2.03 z m -65.824,0 h 3.804 c 0.786,0 1.458,0.108 2.015,0.323 0.557,0.215 1.011,0.502 1.364,0.861 0.352,0.359 0.608,0.771 0.769,1.236 0.16,0.465 0.241,0.947 0.241,1.446 0,0.724 -0.124,1.406 -0.37,2.045 -0.246,0.639 -0.62,1.198 -1.122,1.677 -0.503,0.478 -1.14,0.856 -1.913,1.133 -0.772,0.277 -1.681,0.415 -2.727,0.415 h -2.236 l -1.169,5.568 h -1.763 z m 48.07,-0.246 c 0.875,0 1.649,0.094 2.322,0.282 0.674,0.188 1.243,0.401 1.708,0.641 l -0.38,1.763 c -0.198,-0.13 -0.425,-0.263 -0.682,-0.4 -0.256,-0.136 -0.538,-0.259 -0.845,-0.369 -0.308,-0.109 -0.645,-0.198 -1.01,-0.266 -0.366,-0.069 -0.758,-0.103 -1.175,-0.103 -1.025,0 -1.95,0.181 -2.773,0.544 -0.824,0.362 -1.523,0.861 -2.097,1.497 -0.574,0.635 -1.017,1.382 -1.328,2.24 -0.311,0.858 -0.467,1.786 -0.467,2.784 0,0.814 0.113,1.533 0.339,2.158 0.225,0.626 0.547,1.152 0.964,1.58 0.417,0.427 0.916,0.75 1.497,0.969 0.581,0.218 1.223,0.328 1.927,0.328 0.452,0 0.862,-0.026 1.231,-0.077 0.369,-0.051 0.711,-0.123 1.025,-0.216 0.315,-0.092 0.61,-0.201 0.887,-0.328 0.277,-0.126 0.545,-0.261 0.805,-0.405 l -0.4,1.805 c -0.553,0.253 -1.146,0.446 -1.779,0.579 -0.632,0.134 -1.341,0.2 -2.127,0.2 -0.93,0 -1.776,-0.154 -2.538,-0.461 -0.762,-0.308 -1.412,-0.744 -1.949,-1.307 -0.536,-0.564 -0.951,-1.243 -1.245,-2.036 -0.294,-0.793 -0.441,-1.675 -0.441,-2.645 0,-1.286 0.203,-2.465 0.61,-3.538 0.407,-1.073 0.984,-1.996 1.733,-2.769 0.748,-0.772 1.647,-1.374 2.697,-1.804 1.049,-0.431 2.213,-0.646 3.491,-0.646 z M 540.122,5.783 h 1.702 l -2.635,12.366 c -0.062,0.287 -0.105,0.509 -0.129,0.666 -0.024,0.158 -0.036,0.291 -0.036,0.4 0,0.281 0.077,0.494 0.231,0.641 0.154,0.147 0.398,0.221 0.733,0.221 0.178,0 0.334,-0.011 0.467,-0.031 0.133,-0.021 0.258,-0.051 0.374,-0.092 l -0.266,1.343 c -0.171,0.055 -0.364,0.099 -0.58,0.133 -0.215,0.034 -0.429,0.052 -0.641,0.052 -0.69,0 -1.206,-0.173 -1.548,-0.518 -0.342,-0.346 -0.513,-0.809 -0.513,-1.39 0,-0.171 0.017,-0.372 0.052,-0.605 0.034,-0.232 0.088,-0.519 0.164,-0.861 z"
     fill="url(#fill10)"
     fill-rule="evenodd"
     id="path145"
     style="fill:url(#fill10)" />
  <text
     fill="#000000"
     fill-opacity="0"
     font-family="Arial, Arial_MSFontService, sans-serif"
     font-size="15.8115px"
     x="525.05603"
     y="19.617996"
     id="text147">Plat C API</text>
  <path
     d="m 527.5,154.5 h 7 v -113 h 14 v 113 h 7 l -14,14 z"
     stroke="#005a9f"
     stroke-width="1.13333"
     stroke-miterlimit="8"
     fill="#a0b7e4"
     fill-rule="evenodd"
     id="path149" />
  <path
     d="m 527.5,439.5 h 7 v -192 h 14 v 192 h 7 l -14,14 z"
     stroke="#005a9f"
     stroke-width="1.13333"
     stroke-miterlimit="8"
     fill="#a0b7e4"
     fill-rule="evenodd"
     id="path151" />
  <path
     d="M 224,74.167 C 224,66.343 230.343,60 238.167,60 H 485.833 C 493.657,60 500,66.343 500,74.167 v 56.666 C 500,138.657 493.657,145 485.833,145 H 238.167 C 230.343,145 224,138.657 224,130.833 Z"
     stroke="#ff0000"
     stroke-width="4"
     stroke-linejoin="round"
     stroke-miterlimit="10"
     stroke-dasharray="16, 12"
     fill="none"
     fill-rule="evenodd"
     id="path153" />
  <text
     y="108"
     x="9.0079002"
     fill="#ff0000"
     font-family="'Segoe UI', 'Segoe UI_MSFontService', sans-serif"
     font-style="italic"
     font-weight="400"
     font-size="15px"
     id="text157">microsoft.<tspan
   x="70.507896"
   y="108"
   id="tspan155">ai.machinelearning.dll</tspan></text>
  <path
     d="m 224,173 c 0,-8.836 7.163,-16 16,-16 h 346 c 8.836,0 16,7.164 16,16 v 64 c 0,8.836 -7.164,16 -16,16 H 240 c -8.837,0 -16,-7.164 -16,-16 z"
     stroke="#ff0000"
     stroke-width="4"
     stroke-linejoin="round"
     stroke-miterlimit="10"
     stroke-dasharray="16, 12"
     fill="none"
     fill-rule="evenodd"
     id="path159" />
  <text
     y="208"
     x="108.589"
     fill="#ff0000"
     font-family="'Segoe UI', 'Segoe UI_MSFontService', sans-serif"
     font-style="italic"
     font-weight="400"
     font-size="15px"
     id="text161">onnxruntime.dll</text>
  <path
     d="M 225,284.167 C 225,275.238 232.238,268 241.167,268 h 238.666 c 8.929,0 16.167,7.238 16.167,16.167 v 64.666 C 496,357.762 488.762,365 479.833,365 H 241.167 C 232.238,365 225,357.762 225,348.833 Z"
     stroke="#ff0000"
     stroke-width="4"
     stroke-linejoin="round"
     stroke-miterlimit="10"
     stroke-dasharray="16, 12"
     fill="none"
     fill-rule="evenodd"
     id="path163" />
  <text
     y="317"
     x="138.177"
     fill="#ff0000"
     font-family="'Segoe UI', 'Segoe UI_MSFontService', sans-serif"
     font-style="italic"
     font-weight="400"
     font-size="15px"
     id="text165">directml.dll</text>
</svg>
