<?xml version="1.0" encoding="utf-8"?>
<!-- Generator: Adobe Illustrator 22.0.1, SVG Export Plug-In . SVG Version: 6.00 Build 0)  -->
<svg version="1.1" xmlns="http://www.w3.org/2000/svg" xmlns:xlink="http://www.w3.org/1999/xlink" x="0px" y="0px"
	 viewBox="0 0 1920 1080" style="enable-background:new 0 0 1920 1080;" xml:space="preserve">
<style type="text/css">
	.st0{fill:#ADC909;}
	.st1{fill:#BAD80A;}
	.st2{opacity:0.13;fill:#FFFFFF;}
	.st3{fill:#007A63;}
	.st4{opacity:7.000000e-02;}
	.st5{fill:#007365;}
	.st6{fill:#008272;}
	.st7{opacity:8.000000e-02;fill:#FFFFFF;}
	.st8{fill:#D1D1D1;}
	.st9{fill:#B2B2B2;}
	.st10{fill:#005850;}
	.st11{fill:#00B294;}
	.st12{fill:#008770;}
	.st13{fill:#FFF880;}
	.st14{fill:#CCCCCC;}
	.st15{fill:#E0E0E0;}
	.st16{fill:#FFFFFF;}
	.st17{fill:#40A195;}
	.st18{opacity:0.19;fill:#FFFFFF;}
	.st19{fill:#001129;}
	.st20{fill:#686868;}
	.st21{fill:#9E9E9E;}
	.st22{fill:#006B5E;}
	.st23{fill:#D6D6D6;}
	.st24{fill:#EDEDED;}
	.st25{fill:#DBDBDB;}
	.st26{fill:#F4F4F4;}
	.st27{fill:#F9F9F9;}
	.st28{fill:#FFA940;}
	.st29{fill:#FFCB40;}
	.st30{fill:#A996F0;}
	.st31{opacity:0.1;}
	.st32{fill:#E2E2E2;}
	.st33{fill:#939393;}
	.st34{fill:#CECECE;}
	.st35{fill:#C1C1C1;}
	.st36{fill:#C40018;}
	.st37{fill:#D91021;}
	.st38{fill:#750000;}
	.st39{fill:#002050;}
	.st40{fill:none;stroke:#66C8FF;stroke-width:3;stroke-miterlimit:10;}
	.st41{opacity:0.41;}
	.st42{fill:#C5EDFF;}
	.st43{fill:#EBFCFA;}
	.st44{fill:none;stroke:#00D8D8;stroke-width:3;stroke-miterlimit:10;}
	.st45{fill:#00D8D8;}
	.st46{fill:url(#SVGID_1_);}
</style>
<g id="Layer_1">
</g>
<g id="Layer_2">
	<g>
		<g>
			<g>
				<path class="st43" d="M612.8,365.5l3.8,1.7l-1.5-5.6c-0.1-0.4-0.2-0.8-0.3-1.2l-4.1,4.1C611.4,364.9,612.1,365.2,612.8,365.5z"
					/>
			</g>
			<g>
				<g>
					<path class="st43" d="M1080.2,550.2c0-2.5-1.8-4.6-4.3-4.9l-27.9-3.5c-1.1-7.4-2.6-14.7-4.4-21.9l24.3-14.1
						c2.1-1.2,3-3.9,2.1-6.2l-24.3-57.6c-1-2.3-3.5-3.5-5.8-2.8l-27.1,7.6c-3.3-5.3-6.9-10.6-10.6-15.7l17.3-22.2
						c1.5-2,1.3-4.7-0.4-6.5l-44.2-44.2c-1.7-1.7-4.5-1.9-6.5-0.4l-22.2,17.3c-6-4.4-12.2-8.6-18.6-12.4l7.3-27.1
						c0.6-2.4-0.6-4.9-2.9-5.8l-58-23.5c-2.3-0.9-4.9,0-6.1,2.1L854,333c-6.1-1.4-12.3-2.6-18.6-3.6l-3.5-27.9
						c-0.3-2.5-2.4-4.3-4.9-4.3l-58.2,0c8.3,5.2,14.5,12.5,15.3,22c0.8,9.7-9,11.6-12,12l-4.3,0.5l3.1,2.9
						c5.2,4.9,9.8,10.3,13.5,16.1c7.9,12.3,11.3,22,10.4,28.7c-0.4,2.4-1.5,4.5-3.4,6.3l-1.3,1.2l1,1.4c6.4,8.9,8.1,21.9,4.9,38.5
						l-0.3,1.6c-0.9,5.1-1.8,9.9-5.9,13c-1,0.7-2,1.2-3.2,1.5l-2.4,0.5l1,2.2c2.8,6.2,4.8,12.6,6.1,19c1.8,9.4,3.5,21.3-0.1,29.9
						c-0.8,1.9-2.6,5.2-6.1,6.2l-2.5,0.7l1.4,2.2c3.5,5.6,5.3,12,6.4,18.6c1.7-0.2,3.5-0.2,5.3-0.2c32.7,0,59.4,26.6,59.4,59.3
						c0,32.7-26.6,59.4-59.3,59.4c-2.6,0-5.1-0.2-7.6-0.5l-0.3,1.7c-1.2,7.1-2.6,15.1-8.8,18.4c-1.8,1-3.9,1.6-6.2,1.8l-1.9,0.2
						l0.1,1.9c0.4,6.1,2.9,11.5,5.4,16.7c0.9,2,1.9,4,2.7,6c2.5,6.3,4.1,13.1,4.6,20.4c0.5,7.1,0.1,14.6-1.3,22.9
						c-1.1,6.5-2.3,13.8-5.1,19.8c-0.7,1.4-1.5,2.7-2.4,3.8l-1,1.1l0.8,1.2c8.6,12.8,13.7,28.4,16.1,49.2c0.9,7.8,1.6,16.1,2.1,25.4
						c0.4,7.5,0.3,15.4-3,22c-2.9,5.8-8.3,9.7-16.2,11.7c-1.5,0.4-2.9,0.7-4.4,1l57.7,0c2.5,0,4.6-1.8,4.9-4.3l3.5-27.9
						c7.4-1.1,14.7-2.6,21.9-4.4l14.1,24.3c1.2,2.1,3.9,3,6.2,2.1l57.6-24.3c2.3-1,3.5-3.5,2.8-5.8l-7.6-27.1
						c5.3-3.3,10.6-6.9,15.7-10.6l22.2,17.3c2,1.5,4.7,1.3,6.5-0.4l44.2-44.2c1.7-1.7,1.9-4.5,0.4-6.5l-17.3-22.2
						c4.4-6,8.6-12.2,12.4-18.6l27.1,7.3c2.4,0.6,4.9-0.6,5.8-2.9l23.5-58c0.9-2.3,0-4.9-2.1-6.1l-24.5-13.7
						c1.4-6.1,2.6-12.3,3.6-18.6l27.9-3.5c2.5-0.3,4.3-2.4,4.3-4.9L1080.2,550.2z M963.8,446.5c25.2,31.3,41.9,69.8,46.4,111.8
						l-105.5,0c-2.9-13.5-8.2-26-15.5-37.2L963.8,446.5z M856.3,488.2c-11.2-7.3-23.8-12.6-37.2-15.5l0-105.5
						c42.1,4.5,80.5,21.2,111.8,46.4L856.3,488.2z M819.1,795.9l0-105.5c13.5-2.9,26-8.2,37.2-15.5l74.6,74.6
						C899.7,774.7,861.2,791.4,819.1,795.9z M963.8,716.6L889.2,642c7.3-11.2,12.6-23.8,15.5-37.2l105.5,0
						C1005.7,646.8,989.1,685.3,963.8,716.6z"/>
				</g>
			</g>
		</g>
	</g>
	<path class="st43" d="M1466.8,436.4l-8.8-1.7c-0.5-3.6-1.2-7.1-2.2-10.5l7.4-5c1.4-0.9,1.7-2.8,0.8-4.2l-22.8-33.5
		c-0.9-1.4-2.8-1.7-4.2-0.8l-7.4,5c-2.8-2.2-5.8-4.1-8.9-5.9l1.7-8.8c0.3-1.6-0.8-3.2-2.4-3.5l-39.8-7.6c-1.6-0.3-3.2,0.8-3.5,2.4
		l-1.7,8.8c-3.6,0.5-7.1,1.2-10.5,2.2l-5-7.4c-0.9-1.4-2.8-1.7-4.2-0.8l-33.5,22.8c-1.4,0.9-1.7,2.8-0.8,4.2l5,7.4
		c-2.2,2.8-4.1,5.8-5.9,8.9l-8.8-1.7c-1.6-0.3-3.2,0.8-3.5,2.4l-7.6,39.8c-0.3,1.6,0.8,3.2,2.4,3.5l8.8,1.7
		c0.5,3.6,1.2,7.1,2.2,10.5l-7.4,5c-1.4,0.9-1.7,2.8-0.8,4.2l22.8,33.5c0.9,1.4,2.8,1.7,4.2,0.8l7.4-5c2.8,2.2,5.8,4.1,8.9,5.9
		l-1.7,8.8c-0.3,1.6,0.8,3.2,2.4,3.5l39.8,7.6c1.6,0.3,3.2-0.8,3.5-2.4l1.7-8.8c3.6-0.5,7.1-1.2,10.5-2.2l5,7.4
		c0.9,1.4,2.8,1.7,4.2,0.8l33.5-22.8c1.4-0.9,1.7-2.8,0.8-4.2l-5-7.4c2.2-2.8,4.1-5.8,5.9-8.9l8.8,1.7c1.6,0.3,3.2-0.8,3.5-2.4
		l7.6-39.8C1469.5,438.3,1468.4,436.8,1466.8,436.4z M1374.9,496.5c-28.7-5.5-47.5-33.2-42.1-61.9c5.5-28.7,33.2-47.5,61.9-42.1
		c28.7,5.5,47.5,33.2,42.1,61.9C1431.3,483.1,1403.6,501.9,1374.9,496.5z"/>
	<path class="st43" d="M1009,301.8l15,4.8c-0.1,4.2-0.1,8.4,0.1,12.5l-14.9,5.2c-1.3,0.5-2.1,1.8-1.8,3.2l7.3,34.2
		c0.3,1.4,1.5,2.3,2.9,2.2l15.7-1.4c1.3,3.3,2.7,6.5,4.2,9.7l-11.8,10.4c-1,0.9-1.2,2.5-0.5,3.6l19.7,29c0.8,1.1,2.3,1.5,3.5,0.9
		l14-7.2c2.9,3.1,5.8,6,8.9,8.8l-6.8,14.2c-0.6,1.2-0.2,2.7,1,3.5l29.4,19c1.2,0.8,2.7,0.5,3.6-0.5l10.1-12.1
		c3.2,1.4,6.5,2.7,9.8,3.9l-1,15.7c-0.1,1.4,0.9,2.6,2.2,2.9l34.4,6.5c1.4,0.3,2.7-0.5,3.1-1.9l4.8-15c4.2,0.1,8.4,0.1,12.5-0.1
		l5.2,14.9c0.5,1.3,1.8,2.1,3.2,1.8l34.2-7.3c1.4-0.3,2.3-1.5,2.2-2.9l-1.4-15.7c3.3-1.3,6.5-2.7,9.7-4.2l10.4,11.8
		c0.9,1,2.5,1.2,3.6,0.5l29-19.7c1.1-0.8,1.5-2.3,0.9-3.5l-7.2-14c3.1-2.9,6-5.8,8.8-8.9l14.2,6.8c1.2,0.6,2.7,0.2,3.5-1l19-29.4
		c0.8-1.2,0.5-2.7-0.5-3.6l-12.1-10.1c1.4-3.2,2.7-6.5,3.9-9.8l15.7,1c1.4,0.1,2.6-0.9,2.9-2.2l6.5-34.4c0.3-1.4-0.5-2.7-1.9-3.1
		l-15-4.8c0.1-4.2,0.1-8.4-0.1-12.5l14.9-5.2c1.3-0.5,2.1-1.8,1.8-3.2l-7.3-34.2c-0.3-1.4-1.5-2.3-2.9-2.2l-15.7,1.4
		c-1.3-3.3-2.7-6.5-4.2-9.7l11.8-10.4c1-0.9,1.2-2.5,0.5-3.6l-19.7-29c-0.8-1.1-2.3-1.5-3.5-0.9l-14,7.2c-2.9-3.1-5.8-6-8.9-8.8
		l6.8-14.2c0.6-1.2,0.2-2.7-1-3.5l-29.4-19c-1.2-0.8-2.7-0.5-3.6,0.5l-10.1,12.1c-3.2-1.4-6.5-2.7-9.8-3.9l1-15.7
		c0.1-1.4-0.9-2.6-2.2-2.9l-34.4-6.5c-1.4-0.3-2.7,0.5-3.1,1.9l-4.8,15c-4.2-0.1-8.4-0.1-12.5,0.1l-5.2-14.9
		c-0.5-1.3-1.8-2.1-3.2-1.8l-34.2,7.3c-1.4,0.3-2.3,1.5-2.2,2.9l1.4,15.7c-3.3,1.3-6.5,2.7-9.7,4.2l-10.4-11.8
		c-0.9-1-2.5-1.2-3.6-0.5l-29,19.7c-1.1,0.8-1.5,2.3-0.9,3.5l7.2,14c-3.1,2.9-6,5.8-8.8,8.9l-14.2-6.8c-1.2-0.6-2.7-0.2-3.5,1
		l-19,29.4c-0.8,1.2-0.5,2.7,0.5,3.6l12.1,10.1c-1.4,3.2-2.7,6.5-3.9,9.8l-15.7-1c-1.4-0.1-2.6,0.9-2.9,2.2l-6.5,34.4
		C1006.9,300,1007.7,301.4,1009,301.8z M1102.9,233.5c-15.3,12.6-27,29.8-32.8,49.9l-13.9-2.7c6.6-24,20.5-44.3,38.8-59
		L1102.9,233.5z M1182,231.3c44.1,8.4,73.1,51.1,64.7,95.2c-8.4,44.1-51.1,73.1-95.2,64.7c-44.1-8.4-73.1-51.1-64.7-95.2
		S1137.9,222.9,1182,231.3z M1266.6,254.5c11.6,20.4,17.1,44.4,14.4,69.1l-13.9-2.7c2-20.9-2.5-41.1-12.2-58.5L1266.6,254.5z
		 M1230.8,388.9c15.3-12.6,27-29.8,32.8-49.9l13.9,2.7c-6.6,24-20.5,44.3-38.8,59L1230.8,388.9z M1066.6,301.5
		c-2,20.9,2.5,41.1,12.2,58.5l-11.7,8c-11.6-20.4-17.1-44.4-14.4-69.1L1066.6,301.5z M1077.4,383.1l11.7-8
		c12.6,15.3,29.8,27,49.9,32.8l-2.7,13.9C1112.5,415.4,1092.1,401.4,1077.4,383.1z M1154.5,425.3l2.7-13.9
		c20.9,2,41.1-2.5,58.5-12.2l8,11.7C1203.2,422.6,1179.2,428,1154.5,425.3z M1256.2,239.3l-11.7,8c-12.6-15.3-29.8-27-49.9-32.8
		l2.7-13.9C1221.2,207.1,1241.5,221,1256.2,239.3z M1179.2,197.1l-2.7,13.9c-20.9-2-41.1,2.5-58.5,12.2l-8-11.7
		C1130.5,199.9,1154.5,194.4,1179.2,197.1z"/>
	<polyline class="st44" points="788.7,486.1 1135.7,486.1 1168.6,518.9 1240.7,518.9 	"/>
	<line class="st44" x1="789.7" y1="527.4" x2="947.7" y2="527.4"/>
	<polyline class="st44" points="788.7,609.9 1064.7,609.9 1095.8,578.9 	"/>
	<polyline class="st44" points="780.7,692.5 1024.7,692.5 1083.7,692.5 1148.6,627.7 1339.7,627.7 	"/>
	<polyline class="st44" points="785.7,568.7 1009.7,568.7 1050.7,527.7 	"/>
	<line class="st44" x1="784.7" y1="651.2" x2="947.7" y2="651.2"/>
	<polyline class="st44" points="781.7,444.8 1013.7,444.8 1116.7,341.8 	"/>
	<polyline class="st44" points="779.7,733.8 974.7,733.8 1032.7,791.8 	"/>
	<circle class="st44" cx="1123.6" cy="335.5" r="10"/>
	<circle class="st44" cx="1249.6" cy="519" r="10"/>
	<circle class="st44" cx="957.7" cy="528" r="10"/>
	<circle class="st44" cx="1057.7" cy="520" r="10"/>
	<circle class="st44" cx="1103.7" cy="572.5" r="10"/>
	<circle class="st44" cx="1350.1" cy="628" r="10"/>
	<circle class="st44" cx="957.7" cy="652" r="10"/>
	<circle class="st44" cx="1039.7" cy="799" r="10"/>
	<g>
		<path class="st45" d="M719,281.6c5.7,0,11.5,0.5,17.1,1.4c17.4,2.8,42,12.9,43.7,33.6c0.7,8.9-6.1,13.3-13.9,14.2
			c5.3,4.9,10,10.5,13.9,16.6c5.1,7.9,12.2,20.6,10.8,30.3c-0.5,3.2-1.9,5.6-4,7.6c8.2,11.4,7.9,26.9,5.4,40.3c-1.1,5.9-1.8,12-7,16
			c-1.2,0.9-2.6,1.5-4,1.8c2.8,6.3,4.9,12.8,6.3,19.6c1.9,9.6,3.7,22-0.1,31.3c-1.4,3.3-3.8,6.4-7.4,7.4c6.7,10.5,7.3,23.5,8.6,35.9
			c1.6,14.2,2.3,29.1-11.4,37.4c-2.1,1.3-4.5,2.3-7,3.1c3.7,3.2,8.3,5.5,11.7,9c5.8,6.2,6,14.3,5.8,22.3
			c-0.2,10.5-1.3,20.9-3.2,31.2c-1.4,7.7-2.5,17.8-10.2,22c-2.2,1.2-4.6,1.8-7,2c0.5,8,5.1,15,8,22.3c2.7,6.8,4.3,13.9,4.8,21.2
			c0.6,8.3,0.1,15.4-1.3,23.6c-1.1,6.8-2.4,14.2-5.3,20.5c-0.8,1.6-1.7,3-2.7,4.3c10.1,15,14.5,32.5,16.6,50.4
			c1,8.6,1.7,17.2,2.1,25.8c0.4,7.8,0.3,16.1-3.2,23.2c-3.6,7.1-10.1,10.9-17.6,12.9c-9.9,2.6-20.3,3.8-30.4,5.2
			c-19.7,2.6-39.6,4.2-59.4,4.2c-1.7,0-3.4,0-5.1,0c-13.7-0.2-31.5-5-34.8-19.4c-3.9,4.2-9.1,7.1-14.7,8.5c-2.8,0.7-5.6,1-8.3,1
			c-13.5,0-25.7-8.1-35.7-17.1c-12.2-10.9-24.1-23.1-30.8-38.1c-2.3,1.6-5,2.5-8.4,2.5c-0.2,0-0.4,0-0.6,0
			c-11.5-0.4-17.2-13.4-20.5-22.6c-3.6-9.9-5.1-20.4-8.3-30.3c-0.8,0.1-1.6,0.2-2.4,0.2c-3.3,0-6.6-1-9.6-3.2
			c-6.3-4.7-9.5-12.3-12.4-19.3c-4.3-10.5-8.7-20.9-13-31.4c-3.6-8.7-8.9-18.2-8.4-27.9c0.2-4.8,1.7-9.3,4-13.4
			c-2.5-0.3-4.8-1.5-6.9-3.7c-6.2-7-3.6-18.5-3.6-27c0-9.6,0-19.9,3.9-28.9c1.9-4.3,4.4-7.4,7.5-9.6c-6.1-6.4-6.1-18.1-3.7-26.8
			c4.1-14.8,14.3-26.8,24.4-38.1c-0.8-1.7-1.3-3.5-1.7-5.4c-2.4-11.5,1.6-23.4,6.1-34c5.6-13.2,11.6-26.2,17.4-39.3
			c4.5-10.3,8.4-23.6,18-30.4c2.5-1.8,5.1-2.6,7.5-2.6c0.6,0,1.3,0.1,1.9,0.2c-0.9-7.7,2.1-15.8,7.2-22.2c3.5-4.4,10.1-9.2,16.1-9.7
			c-2.5-10.5,1.9-21.6,11.2-27.6c5-3.2,10.1-4.6,15.2-4.6c5.4,0,10.7,1.5,15.9,3.8c-1.8-6.5-3.9-13.5-3.9-20.2c0-6.5,3.1-12,7.1-17
			c7.8-9.7,17.2-19.9,29.4-24c2.9-1,5.6-1.4,8.2-1.4c6,0,11.5,2.2,16.5,5.6c0.6-3.3,2.3-6.5,5.6-9.5c8-7.1,20.3-10,30.6-11.9
			C705.9,282.2,712.4,281.6,719,281.6 M734.5,357.2c5.6,0,11.2-0.7,15.7-3.6c0.7-0.5,1.4-0.7,2-0.7c3.3,0,5.4,5.4,1.8,7.8
			c-5.4,3.5-11.5,4.3-17.7,4.4c-1.4,0-2.7,0-4.1,0c-5.5,0-11.1-0.2-16.5-1c-12.1-1.7-22.6-6.9-30.9-15.9c-2.4-2.6-4.6-5.4-6.7-8.4
			c-7.6,1.4-15.4,3.1-21.6,7.8c-2,1.6-4.5,3.6-4.5,6.4c0,2.1,1.6,3.4,3.1,4.8c1.5,1.5,3,2.9,4.6,4.3c20.6,17.7,47.8,27.4,75,27.4
			c4.5,0,9-0.3,13.4-0.8c7.1-0.9,14.1-2.4,20.9-4.6c3.6-1.2,7.4-2.3,10.6-4.5c4.4-3,2.7-7.8,1.3-12.1c-3.6-10.8-9.7-20.7-17.6-28.9
			c-5.2-5.4-7.9-9.1-19.1-10.8l0,0c-6-0.7-12-1.4-18-2c-5.3-0.2-5.4-8.1-0.7-8.1c0.2,0,0.4,0,0.6,0c11.1,1.4,22.2,3.1,33.4,4.1
			c1.2,0.1,2.7,0.2,4.2,0.2c2.8,0,5.7-0.5,7.2-2.4c2.7-3.5-1.1-9.8-3.3-12.8c-9.8-13.7-29.6-17.5-45.3-18.1c-1.1,0-2.2-0.1-3.4-0.1
			c-8.8,0-17.6,1.2-26.2,3.5c-6.7,1.8-20.9,5.2-22,13.8c-0.3,2.1,0.6,4,1.4,5.9c0.8,2,1.8,3.9,2.7,5.9c1.9,3.7,4.1,7.4,6.3,11
			l3.1,4.8c3.7,5.4,8,10.5,13.3,14.3c7.7,5.6,16.7,7.4,26.1,7.9C727.1,356.9,730.8,357.2,734.5,357.2 M776.6,492.6
			c0.7,0,1.3-0.2,1.8-0.5c2.6-1.8,2.5-6.7,2.5-9.4c0.4-17.6-4.9-34.7-14.6-49.3c-2-3,0.8-5.7,3.6-5.7c1.3,0,2.6,0.6,3.5,1.9
			c1,1.5,2,3.1,2.9,4.7c0.5,0.7,1.3,1.2,2.2,1.2c0,0,0,0,0.1,0c0.8,0,1.7-0.6,2.3-1.1c1.8-2.2,2.3-4.4,2.9-7.2
			c0.7-3.3,1.2-6.7,1.5-10.1c0.9-9.3,0.9-19.5-5.1-27.3c-0.1-0.1-0.1-0.2-0.2-0.2c-2.4,1.1-5,2-7.3,2.8c-8.6,2.9-17.6,4.7-26.7,5.6
			c-3.7,0.3-7.4,0.5-11.1,0.5c-15,0-30-2.7-44-8c-8.5-3.2-16.7-7.3-24.3-12.3c-7-4.6-15.4-10.4-20.3-17.4
			c-5.3-7.5-0.2-15.3,6.2-19.9c6.3-4.6,13.7-6.7,21.1-8.3c-2.2-3.7-4.2-7.4-6.1-11.1c-0.1-0.2-0.2-0.4-0.3-0.6c-2-4-4.9-7.5-8.7-9.9
			c-3.3-2.1-7-3.6-11.1-3.6c-0.1,0-0.3,0-0.4,0c-7.5,0.2-14.2,4.9-19.6,9.8c-5.3,4.8-11.1,10.5-14.7,16.7c-4.4,7.6-1,16.6,1,24.5
			c0.7,3,1.5,6,2.5,8.9l1.9,5.5c0.9,2.4,1.9,4.7,3,7c15.4,31.2,52,31.5,82,35.6c14,1.9,28.6,4.6,39.8,13.9c9,7.5,13.5,18.9,8,29.9
			c-1.4,2.8-3.4,6.2-5.8,9.2c0.6,0.9,3.5,4.3,4.1,5.1c4,4.8,10.8,9.2,17.6,14C768.6,488.8,773.3,492.6,776.6,492.6 M586.9,487.8
			c-1.7,0-3.4-0.9-4.2-2.8c-6.2-16.5-7.8-34.5-4.5-51.8c1.2-6.4,7.2-18.2,2.3-24.1c-1.5-1.8-3.5-3.4-5.3-4.9c-2-1.6-4-3.1-6.2-4.3
			c-1.4-0.8-3.2-1.6-4.9-1.6c-0.4,0-0.7,0-1.1,0.1c-1.7,0.4-3.2,1.2-4.6,2.2c-2.5,1.8-4.8,4.3-6.5,6.9c-2.6,4.2-3.9,9-3.8,13.9
			c0.1,4.6,1.9,9,2.7,13.5c0.7,4.6,0.7,9.2,1,13.8c0.5,6.9,1.3,13.8,2.5,20.6c1.2,7.2,2.8,14.3,4.8,21.4c1.5,5.4,2.7,13.4,6.5,17.8
			c3.6,4.1,11,4.3,16.8,4.3c0.7,0,1.3,0,1.9,0c0.4,0,0.7,0,1.1,0c0.3,0,0.5,0,0.8,0c6,0,12.2-0.7,17.7-3.2c9.5-4.3,17-16.1,10.8-26
			c-1.9-3,0.9-5.8,3.7-5.8c1.3,0,2.6,0.6,3.4,1.9c3.7,5.9,4,12.9,1.9,19.2c2.3-0.7,4.7-1.1,7.2-1.1c0.7,0,1.4,0,2.2,0.1
			c5,0.4,4.9,8.1,0.1,8.1c-0.1,0-0.3,0-0.4,0c-0.7-0.1-1.5-0.1-2.2-0.1c-5.4,0-10.9,1.8-15,5.4c-6.9,6.2-16.1,8.8-25.1,9.3
			c-2.5,0.2-5.3,0.3-8.3,0.3c-8.3,0-17.4-1.2-22.4-7c-3.3-3.8-4.7-9.1-6.2-13.8c-1.9-6-3.5-12.1-4.9-18.2
			c-2.8-12.3-4.4-24.9-5.1-37.5c-0.2-3.7,0.5-11.7-3.1-14.2c-0.6-0.5-1.3-0.7-2-0.7c-4.1,0-8.6,7.8-9.9,10.4
			c-6.2,11.6-10.9,24.2-16.2,36.2c-5.1,11.5-11.3,23.1-14.2,35.4c-2.4,10.1-1.5,22.3,8.8,27.7c3.1,1.6,6.6,2.5,10,2.5
			c3.4,0,6.7-0.8,9.6-2.3c-0.7-2.4-1.3-5-1.8-7.4c-1.5-7.1-2.4-14.4-2.9-21.6c-0.2-2.6,1.6-4,3.5-4c2.1,0,4.4,1.7,4.5,5.3
			c0.2,4.6,0.7,9.3,1.6,13.8c0.8,4.4,1.5,8.9,3.2,13c1.3,3.2,3.5,6,7,6.9c3.3,0.9,6.5,1,9.8,1.4c3.1,0.4,6.5,0.6,9.6,1
			c1.7-4.5,6.6-6.3,11.6-6.3c0,0,0,0,0.1,0c14.7,0.1,29,6,43.7,6c2.1,0,4.2-0.1,6.3-0.4c9.5-1.2,19.2-4.7,28.6-4.7
			c4.8,0,9.6,0.9,14.3,3.5c11.1,6.2,15.8,19.2,19.6,30.6c1,2.9-1.4,4.8-3.8,4.8c-1.7,0-3.4-0.9-4-2.9c-4.7-14.1-11.3-28-27.2-28
			c-1.1,0-2.3,0.1-3.6,0.2c-8.4,1-16.5,3.9-24.9,4.7c-1.7,0.2-3.4,0.2-5.1,0.2c-6.6,0-13.1-1.1-19.6-2.3c-4.9-0.9-9.7-2-14.7-2.7
			c-1.8-0.3-5.3-1.1-8.3-1.1c-1.4,0-2.7,0.2-3.7,0.7c-1.7,0.8-2.9,2.2-0.5,6c1.4,2.4,3.8,4.9,5.1,6.4c2.5,2.9,5.3,5.6,8.4,7.8
			c4.9,3.4,9.5,4.5,14.5,4.5c3.1,0,6.3-0.5,9.7-1.1c3.2-0.6,6.4-1,9.6-1c3.5,0,7,0.5,10.5,1.7c11.9,4.2,20.8,14,28,24
			c2.2,3.1,4.2,7.7,7.6,9.8c1.7,1,3.7,1.4,5.8,1.4c2.5,0,5.1-0.5,7.3-0.7c7.1-0.8,14.2-2.2,21.1-4.1c6.8-1.9,18.9-4,21.9-11.3
			c2.4-5.8,0.6-14.3-0.8-20.1c-3.6-14.9-12-28.2-21.1-40.2c-9-11.8-18.9-22.9-27.3-35.2c-7-10.3-15-23.8-9.1-36.5
			c4.6-9.8,15.9-14.6,26.3-14.7c0.1,0,0.1,0,0.2,0c13.6,0,25.4,8.4,36,16c2.7,2,5.5,4.4,8.3,4.4c1.4,0,2.8-0.6,4.2-2
			c2.5-2.5,4.9-5.7,6.6-8.8c3.1-5.8,2.5-11.8-1.5-16.9c-8.7-11.3-24.8-14.1-38-16c-27.1-3.8-58-3.8-78.8-24.4
			c-7.5-7.4-12.1-16.8-15.5-26.6c-6-3.5-12.9-6.5-19.5-6.5c-5.2,0-10.2,1.8-14.5,6.7c-4.1,4.6-5.2,11.3-3.2,17.1
			c2.4,6.9,8.4,8.1,13.3,12.6c10.2,9.4,2,24.6,0.3,35.8c-2.2,15.2-0.4,30.6,5.1,44.9C591.7,486,589.4,487.8,586.9,487.8
			 M764.4,656.8c3,0,5.7-0.7,7.6-2.9c2.5-2.9,3.1-7.8,3.8-11.5c0.8-3.8,1.5-7.7,2-11.6c1.2-8.7,2-17.7,1.7-26.6
			c-0.2-8.2-3.5-12-9.9-16.6c-3.5-2.4-6.8-4.9-9.2-8.3c-6.2-0.2-12.2-2.5-16-7.8c-9-12.7,1.4-30.4-14.7-39.3
			c-3.9-2.1-1.3-7.4,2.3-7.4c0.6,0,1.3,0.2,2,0.5c11.4,6.3,13.8,16.8,14.3,28.8c0.2,5.5,0.4,12.1,5.7,15.3c1.7,1,3.7,1.6,5.7,1.7
			c0.6,0,1.1,0,1.5,0c0.9,0,1.8-0.1,3.5-0.3c1.7-0.3,3.4-0.8,5-1.4c14.3-5.8,11.9-20.5,10.6-33.2c-0.3-3.1-0.6-6.2-0.9-9.4
			c-0.5-4.6-1.3-9.3-2.8-13.7c-0.7-2.2-1.7-4.3-2.8-6.3c-2.3-4-5.2-7.6-8.7-10.7c-2.5-2.3-5.5-3.9-8.3-5.7
			c-6.7-4.4-13.9-9.4-17.3-16.8c-0.1-0.1-0.1-0.3-0.1-0.4c-0.5,0.4-1.1,0.7-1.7,1c-1.6,0.8-3.2,1.2-4.8,1.2c-4.5,0-8.8-2.9-12.5-5.6
			c-9.6-6.8-20.7-15.2-32.8-15.2c-2.4,0-4.9,0.3-7.4,1.1c-6.1,1.9-11.5,6.1-12.5,12.6c-1.3,8.3,4,16.5,8.4,23.1
			c9,13.7,20.2,25.7,29.9,38.9c8.9,12.1,16.9,25.2,20.6,39.9c3.1,12.1,4.8,28-7.7,35.1c-5.8,3.3-12.4,5.7-19.2,7.4
			c4.2,14.3,14.1,24.1,27.2,31.1c7.2,3.8,14.8,6.9,22.7,9.2C753.1,654.5,759.1,656.8,764.4,656.8 M483.3,595c4.4,0,9-1.8,13.1-3.2
			c4.5-1.6,9-3.4,13.6-4.3c4.6-0.9,9.9-1.8,15-1.8c2.5,0,4.9,0.2,7.2,0.8c5.8,1.4,8.1,6.1,9.5,11.4c4,15,9,32.9,19.4,44.9
			c8,9.2,21.8,9.7,33.2,13.4c-0.2-1.4-0.4-2.8-0.5-4.2c-1.1-14.7,3.6-29.5,16-38.1c0.7-0.5,1.4-0.7,2.1-0.7c3.2,0,5.3,5.4,1.8,7.8
			c-14.3,10-13.8,30.9-8.7,45.7c5.9,16.8,16.3,31.5,22.1,48.3c1.3,3.7,2.6,8.6,6.1,10.9c1.6,1,3.3,1.4,5.1,1.4
			c3.1,0,6.4-1.2,9.1-2.5c8-3.7,14.9-9.2,21.7-14.7c12.8-10.2,26-20.7,42.9-22.4c1.4-0.1,2.7-0.2,4.1-0.2c14.7,0,25.8,8.7,32.7,21.9
			c1.7,3.1-1.1,5.9-3.8,5.9c-1.3,0-2.5-0.6-3.3-2.1c-5.4-10.2-13.4-17.7-25.4-17.7c0,0-0.1,0-0.1,0c-10.7,0-20.8,5-29.3,11.1
			c-13.9,9.8-27.9,26.2-45.7,28.6c-0.9,0.1-1.8,0.2-2.7,0.2c-6.6,0-12.2-3.5-15.5-9.5c-4.2-7.7-6.3-16.7-10.2-24.6
			c-5.8-11.7-12.7-23.3-16.3-35.8c-0.4-0.1-0.8-0.2-1.2-0.4c-8.3-3.9-17.7-4.4-26.3-7.6c-8-3-13.7-8.1-18.2-15.3
			c-4.5-7.2-8-15.1-11-23c-1.6-4.3-3.1-8.6-4.3-13.1c-0.8-2.8-1.2-9.3-3.8-11.2c-1.2-0.9-3.2-1.2-5.4-1.2c-3.2,0-6.7,0.6-8.7,0.8
			c-4.4,0.5-8.8,1.5-13,2.8c-7,2.2-14,5.9-21.5,5.9c-0.6,0-1.3,0-1.9-0.1c-0.4,0-0.8-0.1-1.2-0.1c-4.7,1.5-8,4.2-10,10
			c-2.2,6.2-2.4,12.8-2.5,19.3c-0.1,6.5-0.6,13.1-0.4,19.5c0.1,3.7,1.3,7.8,5.2,7.8c0.3,0,0.7,0,1.1-0.1c0.9-0.1,1.7-0.4,2.5-0.8
			c1.2-0.5,2.4-1.3,3.4-2.2c5.4-4.4,11.8-7.6,18.3-8.9c2.5-0.5,4.9-0.8,7.4-0.8c11.9,0,23.2,6.2,27.3,18.4
			c4.8,14.3-1.5,30.4-11.4,41c-0.8,0.9-1.7,1.2-2.6,1.2c-3,0-5.7-4.2-2.9-7.1c9.4-10,16.1-29.8,4.1-40.5c-4-3.6-8.8-5.1-13.8-5.1
			c-6.8,0-13.8,2.8-19.4,6.9l-2.6,2.1c-1.6,1.4-3,2.9-4.2,4.4c-5.6,7.4-6.4,15.2-3.3,23.8c3.8,10.5,8.7,20.7,12.8,31.1
			c2.4,6.3,5,12.6,7.9,18.7c2.3,5.1,6.3,13.2,13,13.2c0.3,0,0.7,0,1.1-0.1c4.5-0.6,8.7-4.5,12.2-7.1c3.1-2.4,6.2-4.9,9.2-7.5
			c7.7-6.6,14.8-13.9,21.4-21.6c3.9-4.6,7.4-9.4,10.9-14.3c2.3-3.2,5.4-6.2,9-6.2c1.3,0,2.7,0.4,4.2,1.3c3.1,2,5.1,5.9,7.1,8.8
			c2.4,3.5,4.8,7.1,7.3,10.6c5.2,7.7,10.5,15.4,15.7,23s10.5,15.4,15.7,23c2.5,3.6,5,7.6,8.8,9.9c3.4,2,7.4,2.4,11.3,2.8
			c7,0.7,14.1,1.1,21.2,1.1c10.8,0,21.6-0.9,32-3.1c7.2-1.5,15.3-4.2,19.5-10.7c1.6-2.4,2.7-5.6,2.6-8.5c-0.1-2.8-1.7-5.2-3.2-7.3
			c-0.9-1.2-1.8-2.4-2.6-3.6c-1.7-2.4-3.2-4.9-4.8-7.4c-1.9-3,0.9-5.8,3.7-5.8c1.3,0,2.6,0.6,3.4,2c1.4,2.3,3,4.8,4.7,7.3l5.3,6.9
			c4.9,5.5,10.9,9.7,18.4,9.7c0.1,0,0.3,0,0.4,0c5.6-0.1,11.7-1.4,16.8-3.9c3.3-1.6,5.3-4,6.6-7.4c1.2-3.3,1.7-6.7,2.4-10.1
			c2.9-13.1,4-26.9,0.5-40c-3-11.3-10.4-20.8-11-32.7c-2.9-0.5-5.7-1.2-8.4-2c-9.8-2.6-19.3-6.4-28.3-11.2
			c-8.8-4.7-16.3-10.7-22-18.2c-1,6.7-4.3,12.9-8.8,18.4c-6.2,7.4-13.4,14.5-20.9,20.5c-4.1,3.2-11.4,9.2-17.7,9.2
			c-1.7,0-3.3-0.4-4.7-1.5c-3.2-2.3-4.3-6.8-5.4-10.3c-1.5-4.8-2.2-9.8-2.7-14.8c-0.2-2.5,1.5-3.7,3.5-3.7c2.1,0,4.3,1.4,4.6,4
			c0.4,4,1.2,7.9,2.2,11.7c0.7,2.6,1.1,5.9,3.4,5.9c0.5,0,1-0.1,1.7-0.4c5.8-2.7,10.9-6.9,15.6-11.2c8.8-8.2,22.6-19.6,22.5-33.7
			c0-1.4-0.2-2.8-0.5-4.1l-1.6-7.8c-6.1,1.2-12.2,1.9-18,2.4c-1.3,0.1-2.6,0.2-3.9,0.2c-5.7,0-10.6-1.4-14.7-6.3
			c-4.4-5.3-7.7-11.4-12.4-16.5c-4.7-5.2-10.3-10.1-17.1-12.5c-2.6-0.9-5.2-1.3-7.7-1.3c-5,0-9.9,1.4-15.2,2.1
			c-1.4,0.2-2.8,0.3-4.2,0.3c-12.1,0-22.6-7.1-30.2-16.5c-2.5-3.1-5.4-6.8-6.7-10.8c-5.6-0.7-11.2-1.4-16.8-2.1
			c-5.4-0.7-10.1-1.7-13.7-6c-0.3-0.3-0.5-0.7-0.8-1c-3.9,2-8.2,2.9-12.5,2.9c-8.1,0-16.2-3.4-21.7-9.4
			c-10.5,11.8-22.2,25.8-22.6,42c-0.1,5.3,1.6,9.5,5.1,11.5c0.1,0.1,0.2,0.1,0.3,0.2c1.2,0.6,2.4,0.9,3.7,1
			C482.7,595,483,595,483.3,595 M570.1,709.6C570.1,709.6,570.1,709.6,570.1,709.6c-2.6,3.7-5.3,7.4-8.2,10.9
			c-11.7,14.5-25.6,28.3-41.3,38.5c-0.5,0.3-1,0.6-1.5,0.9c3.8,11.6,5.2,23.9,10.2,35.2c1.8,4.1,4.5,10,9.1,11.8
			c0.9,0.4,1.7,0.5,2.5,0.5c4.4,0,7.3-4.9,8.7-8.9c3.7-10.7,1.6-31,16-33.7c0.9-0.2,1.7-0.2,2.6-0.2c10,0,18.3,10.9,23.5,18.1
			c6.4,8.9,11.4,18.5,16.7,28c1.7,3.1-1,5.9-3.8,5.9c-1.3,0-2.5-0.6-3.3-2c-6.2-11.1-11.9-22.7-20.3-32.5c-2.9-3.5-7.3-8.8-12.3-9.3
			c-0.2,0-0.5,0-0.7,0c-6.2,0-6.7,9.2-7.5,13.9c-1,5.8-2.3,13.4-5.4,19.3c6.3,17.8,22.2,33.5,37,44.7c6.7,5.1,16.1,9.5,25,9.5
			c6,0,11.7-2,16.2-7.4c7.3-8.7,2.2-24.9,14.3-30.2c2-0.9,4.1-1.2,6.3-1.2c5.7,0,11.9,2.2,17,3.1c8.9,1.6,17.9,2.8,26.9,2.8
			c1.4,0,2.8,0,4.2-0.1c15.8-0.7,32.3-6.5,42-19.7c0.9-1.2,2.1-1.7,3.3-1.7c2.9,0,5.7,3,3.6,6c-11.4,15.6-30.2,22.6-49.1,23.5
			c-1.4,0.1-2.7,0.1-4.1,0.1c-9.4,0-18.8-1.4-28.1-3c-4.9-0.9-10.5-2.9-15.5-2.9c-0.2,0-0.5,0-0.7,0c-2.4,0.1-4,1.4-5.1,3.4
			c-0.5,0.9-0.9,1.8-1.1,2.8c-0.3,1.5-0.5,3-0.6,4.4c-0.4,3.4-0.5,6.8-0.6,10.2c0,3.7,0.1,7.3,2.2,10.5c2.8,4.3,8,6.5,12.8,7.7
			c5.8,1.4,11.8,1.7,17.8,1.8c0,0,0,0,0,0c5,0,10-0.3,14.9-0.5c18.1-0.7,36.2-2.4,54.2-5.2c7.8-1.2,16.9-1.8,24.2-5.3
			c6.9-3.3,9.1-10.2,9.6-17.3c0.9-14.2-1.1-29.3-3.5-43.3c-2.3-13.1-6.2-26.1-13.6-37.2c-1.3,0.7-2.8,1.2-4.3,1.7
			c-5.4,1.6-11.1,3.3-16.8,3.3c-1.7,0-3.4-0.1-5.1-0.5c-4.6-0.9-8.6-2.9-12.2-5.4c-0.2,1.2-0.5,2.5-0.9,3.6
			c-2.9,8.5-10.1,14-18.3,17c-9.9,3.7-21,4.6-31.6,5.2c-4.6,0.3-9.2,0.5-13.9,0.5c-7.4,0-14.8-0.4-22.1-1.4
			c-9-1.2-15.2-5.1-20.5-12.5c-6.4-8.9-12.4-18.1-18.6-27.1c-6.4-9.4-12.9-18.9-19.3-28.3c-1.8-2.7-3.6-5.3-5.4-8
			c-0.7-1-1.4-2.7-2.8-2.7c-0.1,0-0.2,0-0.2,0C571.9,706.7,570.1,709.6,570.1,709.6 M570.1,709.6L570.1,709.6 M719,278.6
			c-6.7,0-13.4,0.6-20.1,1.8c-10.4,1.9-23.4,5-32,12.6c-2.4,2.1-4.2,4.5-5.4,7.2c-5-2.7-9.9-4-14.8-4c-3,0-6.1,0.5-9.2,1.5
			c-12.7,4.2-22.3,14.5-30.8,24.9c-3.3,4.1-7.8,10.6-7.7,18.9c0,5.1,1.1,10.2,2.4,15.2c-4-1.3-7.8-1.9-11.4-1.9
			c-5.9,0-11.6,1.7-16.8,5c-9.4,6-14.4,16.9-13,27.7c-6,1.6-11.7,6.2-15,10.2c-5.1,6.4-7.9,13.9-8,20.9c-2.7,0.3-5.4,1.3-7.9,3.1
			c-8.5,6-12.7,16.4-16.5,25.6c-0.9,2.1-1.7,4.1-2.5,6c-1.9,4.2-3.7,8.4-5.6,12.6c-3.9,8.7-8,17.8-11.8,26.8
			c-4.5,10.7-8.8,23.3-6.2,35.7c0.3,1.4,0.7,2.8,1.2,4.2c-10.3,11.6-19.7,23.3-23.8,37.9c-2.2,8-2.7,19.3,2.4,27.1
			c-2.5,2.3-4.5,5.2-6.1,8.8c-4.2,9.5-4.2,19.8-4.2,29.8l0,0.3c0,1.8-0.1,3.7-0.3,5.8c-0.5,7.9-1.1,16.8,4.6,23.2
			c1.4,1.6,3,2.8,4.8,3.6c-1.6,3.7-2.6,7.5-2.7,11.4c-0.4,8.7,3.3,17,6.5,24.4c0.7,1.7,1.4,3.2,2.1,4.8l6.2,15l6.8,16.4
			c3,7.2,6.4,15.4,13.4,20.6c3.4,2.5,7.3,3.8,11.4,3.8c0.1,0,0.2,0,0.2,0c1.1,3.6,2,7.4,2.8,11c1.4,5.7,2.8,11.5,4.8,17.1
			c2.6,7.2,8.7,24.1,23.2,24.5c0.2,0,0.5,0,0.7,0c2.5,0,4.9-0.5,7-1.4c7.4,14.7,19.3,26.5,30.2,36.2c13.4,12,25.8,17.8,37.7,17.8
			c3,0,6.1-0.4,9-1.1c4.8-1.2,9-3.3,12.6-6.1c5.8,12.2,21.9,16.9,36,17.1c1.7,0,3.4,0,5.2,0c18.9,0,38.5-1.4,59.8-4.2l2.5-0.3
			c9.4-1.2,19.1-2.5,28.3-4.9c9.4-2.4,16-7.3,19.6-14.5c3.8-7.7,4-16.4,3.5-24.7c-0.5-9.5-1.2-18-2.2-26c-2.5-20.8-7.6-36.8-16-50
			c0.7-1,1.2-2,1.8-3.1c3.1-6.7,4.4-14.4,5.5-21.3c1.5-9.2,1.9-16.5,1.3-24.3c-0.6-7.9-2.3-15.3-5-22.1c-0.9-2.2-1.9-4.3-2.8-6.3
			c-2-4.2-3.9-8.1-4.6-12.3c1.8-0.4,3.6-1.1,5.1-1.9c8.3-4.5,10-14.3,11.4-22.1c0.1-0.7,0.2-1.3,0.3-2c1.9-10.7,3-21.3,3.3-31.6
			c0.2-8.6-0.2-17.5-6.6-24.4c-2.1-2.3-4.7-4-7.2-5.7c-0.2-0.1-0.4-0.3-0.6-0.4c0.8-0.4,1.7-0.9,2.5-1.3c15-9.1,14.6-24.9,12.9-40.3
			c-0.2-1.5-0.3-2.9-0.5-4.4c-1-10.2-2.1-20.6-7-29.9c2.5-1.7,4.6-4.3,5.9-7.6c4.1-9.8,2.4-22.2,0.3-33c-1.1-5.8-2.9-11.6-5.2-17.3
			c0.6-0.3,1.2-0.7,1.8-1.1c5.7-4.3,6.8-10.6,7.9-16.2c0.1-0.5,0.2-1.1,0.3-1.6c3.2-17,1.7-30.6-4.5-40.6c1.7-2.2,2.8-4.7,3.2-7.4
			c1.2-8.1-2.5-18.7-11.2-32.4c-3-4.7-6.5-9.2-10.5-13.3c7.3-2.6,11.5-8.6,10.9-16.2c-1.8-21.5-26-33-46.2-36.3
			C730.8,279.1,724.9,278.6,719,278.6L719,278.6z M683.8,328.1c-2.1-3.4-4.2-7-6.2-10.7c-1-2-1.9-3.8-2.6-5.6l-0.1-0.3
			c-0.6-1.5-1.2-2.9-1.1-4c0.8-6.2,13-9.5,18.8-11l1-0.3c8.3-2.2,16.8-3.4,25.4-3.4c1.1,0,2.2,0,3.3,0.1c14.5,0.5,33.7,3.8,43,16.8
			c3.3,4.5,4.1,8.1,3.3,9.2c-0.4,0.5-1.4,1.2-4.8,1.2c-1.3,0-2.6-0.1-3.7-0.2l-0.2,0c-7.4-0.6-15-1.7-22.3-2.6
			c-3.6-0.5-7.3-1-11-1.4c-0.3,0-0.6-0.1-0.9-0.1c-3.6,0-6.3,2.8-6.4,6.6c-0.1,3.5,2.3,7.3,6.9,7.6l17.8,2c9.2,1.4,11.8,4.1,16,8.5
			c0.4,0.4,0.8,0.9,1.3,1.3c7.7,8,13.5,17.5,16.9,27.7l0,0.1c1.7,5.2,1.9,7.1-0.2,8.6c-2.5,1.7-5.8,2.8-9,3.8l-0.8,0.2
			c-6.6,2.1-13.4,3.6-20.4,4.5c-4.3,0.5-8.7,0.8-13,0.8c-26.6,0-53.2-9.7-73-26.7c-1.4-1.2-2.7-2.5-4.1-3.8l-0.4-0.3l-0.4-0.4
			c-1.2-1.1-1.7-1.7-1.7-2.3c0-1.4,2.1-3,3.3-3.9c5.1-4,11.8-5.7,18.4-6.9c1.9,2.7,3.8,5,5.8,7.1c8.7,9.4,19.7,15.1,32.7,16.9
			c5,0.7,10.3,1,16.9,1c1.3,0,2.6,0,4.1,0c6-0.1,13-0.8,19.3-4.8c2.7-1.8,3.9-5,3-8.1c-0.9-3.1-3.5-5.1-6.4-5.1
			c-1.3,0-2.5,0.4-3.7,1.1c-3.3,2.2-7.8,3.2-14.1,3.2c-2.6,0-5.3-0.2-7.9-0.3c-1-0.1-1.9-0.1-2.8-0.2c-10.7-0.6-18.2-2.8-24.5-7.3
			c-4.4-3.2-8.5-7.6-12.5-13.5L683.8,328.1L683.8,328.1z M618.7,366.2c-0.8-2.6-1.6-5.4-2.4-8.7c-0.3-1.1-0.6-2.2-0.9-3.3
			c-1.8-6.6-3.6-13.5-0.4-18.9c3.5-6,9.4-11.7,14.2-16c4.2-3.8,10.6-8.8,17.7-9c0.1,0,0.2,0,0.4,0c3.1,0,6.1,1,9.4,3.2
			c3.1,2,5.8,5,7.6,8.8c0.1,0.2,0.2,0.4,0.3,0.7c1.2,2.2,2.6,4.9,4.2,7.7c-6,1.5-12.5,3.7-18.3,7.9c-9.6,7-12.3,16.4-6.9,24.1
			c5.1,7.2,13.2,12.9,21.1,18.1c7.6,5,16,9.3,24.9,12.6c14.2,5.4,29.8,8.2,45.1,8.2c3.8,0,7.6-0.2,11.4-0.5
			c9.6-0.9,18.9-2.8,27.4-5.7c1.7-0.6,3.5-1.2,5.3-1.9c4.3,6.9,4.2,15.7,3.4,23.5c-0.3,3.2-0.8,6.5-1.5,9.8
			c-0.5,2.5-0.9,4.1-2.1,5.7c-1-1.6-1.9-3.1-2.7-4.4c-1.4-2-3.5-3.2-6-3.2c-2.8,0-5.3,1.5-6.6,3.8c-1.1,2.1-1,4.5,0.4,6.6
			c9.7,14.5,14.5,30.9,14.1,47.6c0,0.2,0,0.5,0,0.8c0,1.5-0.1,5.5-1.2,6.2c0,0,0,0,0,0c0,0-0.1,0-0.2,0c-1.9,0-5.7-2.8-7.4-4
			c-0.4-0.3-0.8-0.6-1.1-0.8c-0.9-0.7-1.9-1.3-2.8-2c-5.7-3.9-11-7.7-14.2-11.5l-0.5-0.6c-0.9-1.1-1.6-2-2.2-2.6
			c2.3-3.2,3.9-6.2,4.8-7.8c5.7-11.4,2.3-24.3-8.8-33.6c-11.8-9.8-26.9-12.6-41.3-14.6c-3.7-0.5-7.5-1-11.2-1.4
			c-27.4-3.2-55.7-6.6-68.5-32.5c-1-2-1.9-4.2-2.8-6.7L618.7,366.2L618.7,366.2z M586.9,490.8c2.4,0,4.7-1.1,5.9-2.9
			c1.2-1.7,1.4-3.8,0.6-5.8c-5.3-14.1-7-29.1-4.9-43.4c0.4-2.6,1.2-5.5,2-8.5c2.6-9.6,5.8-21.6-3.2-30c-1.8-1.7-3.7-2.9-5.5-4.1
			c-3.2-2-5.7-3.7-7-7.3c-1.7-4.9-0.7-10.5,2.6-14.2c3.4-3.8,7.4-5.7,12.2-5.7c4.9,0,10.4,1.8,17,5.6c4,11.4,9.2,20.1,15.8,26.7
			c18.1,17.9,42.9,20.7,66.9,23.5c4.5,0.5,9.2,1.1,13.6,1.7c14,2,28.3,4.8,36.1,14.9c3.3,4.3,3.7,9,1.2,13.6
			c-1.5,2.8-3.8,5.8-6.1,8.2c-1,1-1.6,1.1-2.1,1.1c-1.4,0-3.4-1.5-5.3-2.9c-0.4-0.3-0.9-0.6-1.3-0.9c-10.9-7.7-23.2-16.5-37.8-16.5
			l-0.2,0c-12.9,0.1-24.3,6.5-29,16.4c-7.2,15.2,3.9,31.6,9.3,39.4c5.3,7.8,11.4,15.3,17.2,22.5c3.4,4.2,6.9,8.5,10.1,12.8
			c7.6,10,16.9,23.5,20.6,39.1c1,4.2,3.1,13,1,18.3c-2,5-11.1,7.3-17.1,8.8c-1,0.3-2,0.5-2.9,0.7c-6.8,1.9-13.7,3.2-20.6,4
			c-0.6,0.1-1.1,0.1-1.8,0.2c-1.7,0.2-3.5,0.5-5.2,0.5c-1.9,0-3.3-0.3-4.2-0.9c-1.8-1.2-3.3-3.6-4.8-6c-0.6-1-1.3-2.1-1.9-3
			c-6-8.5-15.6-20.3-29.4-25.1c-3.6-1.3-7.4-1.9-11.5-1.9c-3.1,0-6.4,0.4-10.2,1.1c-3.8,0.7-6.6,1.1-9.2,1.1c-4.8,0-8.8-1.2-12.8-4
			c-2.6-1.8-5.2-4.2-7.9-7.3c-0.3-0.3-0.6-0.7-1-1.1c-1.2-1.3-2.8-3.2-3.8-4.8l0,0l0,0c-0.5-0.9-0.7-1.4-0.8-1.7c0,0,0,0,0,0l0.1,0
			l0.1,0c0.2-0.1,0.8-0.3,2.3-0.3c2,0,4.4,0.4,6.1,0.8c0.7,0.1,1.3,0.2,1.8,0.3c3.3,0.5,6.7,1.2,10,1.8c1.5,0.3,3,0.6,4.5,0.9
			c7.4,1.4,13.7,2.3,20.2,2.3c1.8,0,3.6-0.1,5.3-0.2c4.7-0.4,9.2-1.5,13.6-2.5c3.9-0.9,7.6-1.8,11.4-2.2c1.1-0.1,2.2-0.2,3.2-0.2
			c13.1,0,19.2,10.4,24.4,25.9c1,3,3.7,4.9,6.9,4.9c2.4,0,4.6-1.1,5.9-2.8c1.2-1.7,1.5-3.7,0.8-5.8c-3.3-10.1-8.4-25.3-21-32.3
			c-4.7-2.6-9.8-3.9-15.7-3.9c-6.1,0-12.2,1.4-18.1,2.7c-3.8,0.8-7.4,1.6-10.9,2.1c-1.9,0.2-3.9,0.4-5.9,0.4c-7.1,0-14-1.4-21.3-2.9
			c-7.2-1.5-14.7-3-22.4-3.1l-0.1,0c-6,0-10.8,2.2-13.3,6.1c-0.9-0.1-1.9-0.2-2.8-0.3c-1.6-0.1-3.2-0.3-4.7-0.5
			c-1-0.1-1.9-0.2-2.8-0.3c-2.3-0.2-4.4-0.4-6.5-1c-2.2-0.6-3.8-2.4-5-5.2c-1.3-3.1-1.9-6.6-2.6-10.2c-0.1-0.8-0.3-1.5-0.4-2.3
			c-0.9-4.5-1.4-9-1.6-13.4c-0.2-5.4-4-8.2-7.5-8.2c-1.8,0-3.6,0.7-4.8,2c-1.2,1.3-1.8,3.2-1.7,5.2c0.6,8,1.6,15.2,3,22
			c0.4,1.8,0.7,3.4,1.1,5.1c-1.9,0.7-4,1-6.1,1c-3,0-6-0.7-8.6-2.1c-10.7-5.6-8.3-20.1-7.2-24.4c2.2-9.2,6.4-18.3,10.4-27
			c1.2-2.6,2.4-5.2,3.6-7.8c1.7-3.7,3.3-7.6,4.9-11.3c3.5-8.2,7.1-16.8,11.3-24.7c3.2-6.1,6.2-8.8,7.3-8.8c0,0,0.1,0,0.2,0.1
			c1.7,1.2,1.7,6.8,1.8,9.5c0,0.9,0,1.7,0,2.4c0.6,12.8,2.4,25.6,5.1,38c1.4,6.2,3.1,12.5,5,18.5c0.1,0.5,0.3,0.9,0.4,1.4
			c1.4,4.5,3,9.5,6.3,13.4c4.7,5.4,12.8,8.1,24.7,8.1c3,0,6-0.2,8.5-0.3c11.2-0.7,20.3-4.1,27-10.1c3.3-3,7.9-4.7,13-4.7
			c0.6,0,1.3,0,1.9,0.1c0.2,0,0.5,0,0.7,0c3.7,0,6.4-2.7,6.6-6.5c0.2-4-2.6-7.2-6.5-7.5c-0.8-0.1-1.6-0.1-2.4-0.1
			c-1.1,0-2.1,0.1-3.2,0.2c0.9-6-0.2-11.9-3.3-16.9c-1.3-2.1-3.5-3.4-6-3.4c-2.7,0-5.2,1.5-6.5,3.7c-1.2,2.1-1.1,4.5,0.3,6.6
			c1.9,3,2.3,6.4,1.2,9.9c-1.5,4.9-5.7,9.5-10.7,11.8c-4.4,2-9.6,2.9-16.4,2.9c-0.2,0-0.5,0-0.7,0c-0.4,0-0.7,0-1.1,0l-0.9,0l-1,0
			c-4.1,0-11.6,0-14.5-3.3c-2.5-2.9-3.8-8.1-4.9-12.8c-0.3-1.4-0.6-2.6-1-3.8c-1.9-6.9-3.5-14-4.7-21.1c-1.2-6.8-2-13.7-2.5-20.3
			c-0.1-1.5-0.2-2.9-0.2-4.4c-0.1-3.1-0.3-6.4-0.8-9.6c-0.3-1.9-0.8-3.7-1.2-5.5c-0.7-2.6-1.3-5.1-1.4-7.6
			c-0.1-4.3,1.1-8.6,3.3-12.2c1.4-2.3,3.5-4.5,5.7-6.1c1.2-0.9,2.3-1.4,3.5-1.7c0.1,0,0.3,0,0.4,0c1.2,0,2.9,0.9,3.4,1.2
			c1.8,1,3.6,2.2,5.8,4l0.6,0.5c1.6,1.3,3.1,2.5,4.3,4c2.6,3.2,0.5,10.1-1.2,15.6c-0.7,2.2-1.3,4.3-1.7,6.1
			c-3.4,17.9-1.8,36.4,4.6,53.4C581.1,488.9,583.7,490.8,586.9,490.8L586.9,490.8z M703.2,615.1c6.4-1.9,12.1-4.2,16.9-6.9
			c6.5-3.7,10.3-9.7,11.2-17.9c0.7-5.7,0-12.4-2.1-20.5c-3.3-13-10-26-21.1-41c-3.9-5.3-8.1-10.5-12.2-15.5
			c-6-7.5-12.3-15.2-17.6-23.3c-4.1-6.2-9.1-13.8-7.9-21c1.1-6.7,7.6-9.4,10.4-10.2c2.1-0.7,4.3-1,6.6-1c10.6,0,20.7,7.3,29.7,13.7
			l1.4,1c3.4,2.4,8.6,6.1,14.3,6.1c1.8,0,3.5-0.4,5.2-1.1c4,6.7,10.6,11.4,17.1,15.6c0.8,0.5,1.5,1,2.3,1.4c2.1,1.3,4,2.5,5.7,4
			c3.1,2.8,5.9,6.2,8.1,10c1,1.7,1.9,3.7,2.6,5.8c1.5,4.5,2.2,9.4,2.7,13.1c0.3,2.8,0.6,5.8,0.9,9.3c0.1,0.7,0.1,1.4,0.2,2.1
			c1.5,14.1,1.6,23.7-9,28c-1.4,0.6-2.9,1-4.3,1.3c-1.7,0.2-2.4,0.3-3.1,0.3c-0.4,0-0.8,0-1.3,0c-1.7-0.1-3.1-0.6-4.3-1.3
			c-3.6-2.1-4-6.6-4.2-12.7l0-0.2c-0.4-11.4-2.6-24.1-15.8-31.3c-1.1-0.6-2.3-0.9-3.5-0.9c-3.2,0-6.2,2.4-7,5.6
			c-0.8,3,0.5,5.9,3.3,7.4c7.9,4.3,8.3,10.9,8.7,19.2c0.3,6.2,0.7,13.2,5,19.2c3.8,5.3,9.7,8.5,16.9,9c2.5,3.1,5.7,5.5,9,7.8
			c5.8,4.1,8.4,7.1,8.6,14.2c0.2,7.4-0.3,15.7-1.7,26.1c-0.4,3.3-1.1,6.9-1.9,11.4c-0.1,0.6-0.2,1.1-0.3,1.7c-0.6,3-1.2,6.5-2.8,8.3
			c-1.1,1.2-2.8,1.8-5.3,1.8c-3.9,0-8.7-1.5-12.2-2.6c-0.8-0.2-1.5-0.5-2.1-0.7c-7.8-2.3-15.2-5.4-22.1-9
			C715.3,634.8,707.2,626.2,703.2,615.1L703.2,615.1z M483.3,592c-0.2,0-0.5,0-0.7,0c-0.9-0.1-1.8-0.3-2.5-0.7
			c-0.1,0-0.1-0.1-0.2-0.1c-2.4-1.4-3.7-4.6-3.6-8.8c0.3-13.9,9.7-26.3,19.8-37.8c5.8,5.1,13.6,8,21.5,8c4,0,8-0.8,11.6-2.2
			c4.3,4.6,9.7,5.7,15,6.3c4.6,0.6,9.3,1.2,13.9,1.7l1.1,0.1c1.6,3.7,4.1,6.9,6.5,9.9c9.2,11.3,20.8,17.6,32.5,17.6
			c1.5,0,3.1-0.1,4.6-0.3c1.9-0.3,3.7-0.6,5.5-0.9c3.2-0.6,6.3-1.1,9.3-1.1c2.4,0,4.6,0.4,6.7,1.1c5.3,1.9,10.3,5.6,15.8,11.7
			c2.4,2.7,4.5,5.6,6.6,8.7c1.8,2.6,3.6,5.2,5.7,7.7c5.5,6.6,12.3,7.4,17,7.4c1.3,0,2.6-0.1,4.1-0.2c5.6-0.5,10.6-1.1,15.4-1.9l1,5
			c0.3,1.4,0.4,2.5,0.4,3.6c0.1,11.7-11.2,22-19.4,29.6c-0.7,0.7-1.5,1.3-2.1,2c-4,3.7-8.9,7.9-14.8,10.7c-0.2-0.6-0.5-1.5-0.6-2.1
			c-0.1-0.5-0.2-1-0.4-1.4c-1.1-3.7-1.8-7.5-2.1-11.2c-0.4-4.3-4.2-6.7-7.6-6.7c-2,0-3.8,0.8-4.9,2.1c-1.2,1.3-1.7,3-1.5,4.9
			c0.6,6,1.5,10.9,2.8,15.4l0.2,0.8c1.1,3.7,2.5,8.4,6.2,11.1c1.9,1.4,4,2.1,6.5,2.1c7,0,14.5-5.9,19-9.4l0.5-0.4
			c7.5-5.9,14.9-13.2,21.4-20.9c3.7-4.5,6.4-9.1,8-13.8c5.2,5.6,11.5,10.4,19,14.4c9.3,4.9,19.1,8.8,29,11.4
			c1.9,0.5,4.1,1.1,6.3,1.6c0.8,6.7,3.5,12.7,6.1,18.5c1.9,4.2,3.7,8.2,4.8,12.5c2.9,11,2.7,24-0.5,38.6c-0.2,1-0.4,1.9-0.6,2.9
			c-0.5,2.4-0.9,4.7-1.7,6.8c-1.1,2.8-2.5,4.5-5.1,5.8c-4.4,2.2-10,3.5-15.5,3.6c-0.1,0-0.3,0-0.4,0c-5.7,0-10.9-2.8-16.1-8.6
			l-5.2-6.8c-1.7-2.5-3.3-5-4.5-7.1c-1.3-2.1-3.5-3.4-6-3.4c-2.7,0-5.2,1.5-6.5,3.7c-1.2,2.1-1.1,4.5,0.3,6.6c1.4,2.2,3,4.9,4.8,7.5
			c0.9,1.3,1.8,2.6,2.7,3.7c1.3,1.8,2.6,3.7,2.6,5.6c0.1,2-0.7,4.6-2.1,6.8c-3.8,5.9-11.8,8.1-17.6,9.3c-9.6,2-20.1,3-31.4,3
			c-6.7,0-13.7-0.4-20.9-1.1c-3.6-0.3-7.2-0.7-10-2.4c-3-1.8-5.2-5-7.3-8.2l-0.6-0.9c-3.5-5.1-7-10.3-10.5-15.4l-5.2-7.6l-15.7-23
			l-0.6-0.9l-6.6-9.7c-0.4-0.6-0.8-1.2-1.2-1.9c-1.7-2.7-3.7-5.8-6.7-7.7c-1.9-1.2-3.8-1.8-5.8-1.8c-4,0-7.9,2.5-11.4,7.5
			c-3.5,4.9-6.9,9.6-10.7,14.1c-6.4,7.6-13.5,14.8-21,21.3c-2.9,2.5-6,5-9,7.3c-0.5,0.4-1.1,0.8-1.7,1.3c-2.9,2.3-6.1,4.8-9.1,5.2
			c-0.2,0-0.5,0-0.7,0c-5,0-8.7-8-10.2-11.4c-2.6-5.7-5.1-11.7-7.8-18.6c-1.8-4.5-3.7-9.1-5.6-13.5c-2.5-5.7-5-11.7-7.1-17.6
			c-2.9-8-2-14.7,2.9-21c1-1.4,2.3-2.7,3.7-4l2.5-2c5.5-4,11.9-6.3,17.6-6.3c4.6,0,8.6,1.5,11.8,4.3c3.4,3.1,5.2,7.1,5.4,12.1
			c0.4,9.1-4.6,18.7-9.7,24.1c-2,2.1-2.5,5-1.4,7.7c1.2,2.7,3.8,4.5,6.5,4.5c1.8,0,3.5-0.8,4.8-2.2c9.1-9.7,17.8-27.1,12.1-44
			c-4.2-12.6-15.8-20.4-30.1-20.4c-2.7,0-5.4,0.3-8,0.9c-6.9,1.5-13.8,4.9-19.5,9.5c-1,0.8-1.9,1.4-2.7,1.7
			c-0.7,0.3-1.3,0.5-1.8,0.6c-0.2,0-0.4,0.1-0.6,0.1c-0.6,0-2.1-0.5-2.2-4.9c-0.1-4,0-8.1,0.2-12.1c0.1-2.4,0.2-4.9,0.2-7.3
			c0.1-6.4,0.3-12.6,2.4-18.4c1.5-4.3,3.7-6.6,7.4-7.9c0.2,0,0.4,0.1,0.7,0.1c0.7,0.1,1.5,0.1,2.2,0.1c5.9,0,11.3-2,16.6-4
			c2-0.7,3.9-1.5,5.8-2c4.1-1.3,8.4-2.2,12.5-2.7c0.5-0.1,1.1-0.1,1.7-0.2c2-0.3,4.4-0.6,6.6-0.6c2.6,0,3.4,0.5,3.6,0.6
			c1,0.7,1.7,4.8,2,6.5c0.2,1.1,0.4,2.2,0.6,3c1.2,4.3,2.7,8.8,4.4,13.3c3.5,9.3,7.2,17,11.2,23.5c5,8.1,11.4,13.5,19.7,16.6
			c4,1.5,8.1,2.4,12,3.3c5,1.1,9.7,2.2,14,4.2c0,0,0,0,0,0c2.9,9.4,7.5,18.2,11.9,26.7c1.4,2.6,2.8,5.3,4.1,8
			c1.8,3.5,3.2,7.4,4.6,11.2c1.7,4.5,3.4,9.2,5.7,13.5c3.9,7.1,10.5,11.1,18.1,11.1c1,0,2.1-0.1,3.1-0.2
			c13.8-1.9,24.9-11.2,35.7-20.1c3.9-3.3,7.6-6.3,11.3-9c9.8-6.9,19.1-10.5,27.6-10.5l0.1,0c9.6,0,17,5.3,22.8,16.1
			c1.2,2.3,3.4,3.7,5.9,3.7c2.5,0,5-1.4,6.3-3.6c1.2-2.1,1.3-4.5,0.1-6.7c-8-15.1-20.6-23.5-35.4-23.5c-1.4,0-2.9,0.1-4.4,0.2
			c-18.1,1.9-32.1,13.1-44.4,23.1c-6.2,5-13.3,10.7-21.1,14.3c-2.1,1-5.1,2.2-7.8,2.2c-1.3,0-2.5-0.3-3.4-0.9
			c-2.2-1.5-3.4-5-4.5-8.1c-0.1-0.4-0.3-0.9-0.4-1.3c-3-8.7-7.2-16.8-11.3-24.7c-3.9-7.6-8-15.4-10.8-23.6
			c-5.2-14.8-4.8-33.6,7.5-42.2c2.7-1.9,3.8-5.1,2.8-8.3c-0.9-3-3.4-5-6.3-5c-1.3,0-2.6,0.4-3.8,1.2c-12.2,8.5-18.5,23.3-17.3,40.6
			c-1.8-0.5-3.7-0.9-5.5-1.3c-8.6-2-16.8-3.9-22-9.9c-9.7-11.1-14.6-27.7-18.8-43.7c-1.4-5.3-4-11.7-11.7-13.6
			c-2.3-0.6-5-0.9-7.9-0.9c-5.4,0-10.9,1-15.6,1.9c-4.1,0.8-8,2.2-11.8,3.6c-0.7,0.3-1.5,0.5-2.2,0.8l-1,0.4
			C490.8,590.6,486.8,592,483.3,592L483.3,592z M522.7,761.2c14.3-9.3,28.3-22.4,41.6-38.8c2.6-3.2,5.1-6.6,8.3-11l0.2-0.3
			c0,0,0,0,0,0.1c1.2,1.7,2.4,3.5,3.6,5.3c0.6,0.9,1.2,1.8,1.8,2.7l9.2,13.5l10.1,14.9c1.9,2.8,3.9,5.7,5.8,8.5
			c4.1,6.2,8.4,12.5,12.8,18.6c5.9,8.2,12.8,12.4,22.5,13.7c7,0.9,14.6,1.4,22.5,1.4c4.5,0,9.2-0.2,14.1-0.5
			c11.8-0.7,22.4-1.7,32.4-5.4c7.1-2.7,16.3-8.1,20-18.8c3.1,1.7,6.4,2.9,9.7,3.6c1.8,0.4,3.7,0.5,5.6,0.5c6,0,11.8-1.6,17.7-3.4
			c0.8-0.2,1.6-0.5,2.3-0.8c5.6,9.1,9.5,20.2,11.8,33.9c2.1,12,4.4,27.8,3.4,42.6c-0.5,7.7-3.1,12.5-7.9,14.8
			c-5.3,2.5-12,3.4-18.4,4.3c-1.6,0.2-3.3,0.5-5,0.7c-17.7,2.8-35.8,4.5-53.8,5.2c-1.5,0.1-3,0.1-4.4,0.2c-3.4,0.2-6.9,0.3-10.4,0.3
			c-4.9,0-11.2-0.2-17.1-1.7c-5.5-1.4-9.1-3.5-11-6.4c-1.6-2.5-1.7-5.3-1.7-8.8c0-3.3,0.2-6.6,0.6-9.9l0.1-0.6
			c0.1-1.2,0.2-2.4,0.5-3.5c0.2-0.8,0.4-1.4,0.8-2c0.9-1.6,1.9-1.9,2.6-1.9c0.2,0,0.4,0,0.6,0c3,0,6.4,0.8,9.7,1.6
			c1.8,0.4,3.6,0.9,5.4,1.2c8.5,1.5,18.5,3,28.6,3c1.4,0,2.8,0,4.2-0.1c22.2-1,40.4-9.7,51.4-24.7c1.5-2.1,1.8-4.6,0.7-6.8
			c-1.2-2.4-3.9-4-6.6-4c-2.3,0-4.3,1.1-5.7,2.9c-8,11-22.5,17.7-39.7,18.5c-1.3,0.1-2.7,0.1-4,0.1c-9.7,0-19.2-1.5-26.4-2.8
			c-1.5-0.3-3.2-0.7-5-1.1c-3.9-0.9-8.3-2-12.5-2c-2.9,0-5.3,0.5-7.5,1.5c-8.5,3.8-10,11.9-11.2,19c-0.8,4.7-1.6,9-4.1,12.1
			c-3.5,4.2-8.1,6.3-13.9,6.3c-7.1,0-15.8-3.3-23.2-8.9c-12.6-9.5-28.8-24.4-35.6-42.1c2.7-5.8,4-12.5,5.1-19
			c0.1-0.5,0.2-1.2,0.3-1.8c0.7-4.9,1.6-9.6,4.3-9.6c0.1,0,0.3,0,0.4,0c3.6,0.4,7.5,4.9,10.1,8l0.2,0.3c6.6,7.8,11.7,17.1,16.6,26
			c1.1,2,2.2,4,3.3,6c1.3,2.3,3.4,3.6,6,3.6c2.6,0,5.1-1.4,6.4-3.6c1.2-2.1,1.2-4.5,0-6.7c-1-1.7-1.9-3.5-2.9-5.2
			c-4.3-7.7-8.7-15.7-14-23.1c-4.5-6.3-13.9-19.3-25.9-19.3c-1,0-2.1,0.1-3.1,0.3c-12.5,2.4-14.5,15.3-16.2,25.8
			c-0.6,3.7-1.1,7.2-2.1,9.9c-1.1,3.2-3.3,6.9-5.8,6.9c-0.4,0-0.9-0.1-1.4-0.3c-3.5-1.4-5.8-6.7-7.4-10.3
			c-2.9-6.5-4.5-13.3-6.2-20.5C524.9,769.4,523.9,765.3,522.7,761.2L522.7,761.2z"/>
	</g>
</g>
</svg>
